<?xml version="1.0" encoding="iso-8859-1"?>
<!-- Uploaded to: SVG Repo, www.svgrepo.com, Generator: SVG Repo Mixer Tools -->
<svg height="800px" width="800px" version="1.1" id="Layer_1" xmlns="http://www.w3.org/2000/svg" xmlns:xlink="http://www.w3.org/1999/xlink" 
	 viewBox="0 0 511.995 511.995" xml:space="preserve">
<path style="fill:#A3875E;" d="M467.775,442.752c12.424,12.424,12.424,32.562,0,45c-12.424,12.424-32.577,12.424-45,0
	L312.127,377.091l45-45L467.775,442.752z"/>
<path style="fill:#B3B3B3;" d="M61.503,142.572c-16.635-34.139-28.61-69.268-24.804-107.823c0.659-6.683,1.749-13.321,3.238-19.869
	c105.728,105.739,211.456,211.479,317.185,317.218c-3.198,0-13.262,13.262-15.777,15.777c-5.551,5.551-11.102,11.102-16.655,16.655
	c-10.343,10.343-20.504,20.915-31.103,30.996c-59.565-47.273-115.491-99.213-165.292-156.74c-2.809-3.246-5.505-6.557-8.22-9.881"/>
<path d="M104.764,184.219l-0.109-0.154c-0.731-1.035-1.462-2.069-2.18-3.104c-0.733-1.055-1.465-2.111-2.183-3.183
	c-4.597-6.861-13.883-8.692-20.742-4.098c-6.859,4.596-8.694,13.883-4.096,20.742c0.806,1.203,1.628,2.391,2.45,3.578
	c0.767,1.105,1.547,2.211,2.329,3.317l0.108,0.154c2.914,4.123,7.532,6.325,12.225,6.325c2.981,0,5.992-0.89,8.613-2.74
	C107.922,200.292,109.527,190.963,104.764,184.219z"/>
<path d="M478.347,432.183c0,0-110.647-110.663-110.648-110.663L50.544,4.379c-3.7-3.7-9.066-5.197-14.144-3.945
	c-5.08,1.25-9.138,5.067-10.697,10.06c-11.172,35.758-4.757,74.524,8.622,108.735c3.968,10.139,8.418,20.261,13.73,29.776
	c4.041,7.239,12.572,10.812,20.305,6.853c7.35-3.763,10.257-12.771,6.494-20.12l-1.038-2.017
	c-7.574-13.464-13.425-27.888-17.523-42.779c-0.984-3.576-8.957-44.939-6.409-44.939l286.1,286.085c0,0-34.421,34.421-34.429,34.427
	l-9.07,9.07c-1.437,1.437-54.071-45.837-58.569-49.905c-21.27-19.241-41.774-39.33-61.45-60.199
	c-10.875-11.536-21.495-23.309-31.853-35.311c-8.339-9.664-16.233-21.836-29.993-12.85c-6.396,5.222-7.347,14.641-2.123,21.035
	c35.897,43.963,76.553,84.469,119.228,121.839c10.905,9.549,21.98,18.902,33.184,28.098c5.602,4.599,11.237,9.157,16.898,13.681
	c4.809,3.844,9.298,8.495,15.882,8.495c3.848,0,7.677-1.48,10.576-4.377l7.862-7.862l100.076,100.09
	c9.118,9.118,21.09,13.675,33.068,13.675c11.978,0,23.959-4.563,33.08-13.682C496.573,480.074,496.57,450.405,478.347,432.183z
	 M457.203,477.181c-6.578,6.575-17.281,6.577-23.858,0.002L333.268,377.092l23.858-23.858l100.076,100.091
	C463.777,459.897,463.774,470.603,457.203,477.181z"/>
</svg>