<?xml version="1.0" encoding="iso-8859-1"?>
<!-- Uploaded to: SVG Repo, www.svgrepo.com, Generator: SVG Repo Mixer Tools -->
<svg height="800px" width="800px" version="1.1" id="Layer_1" xmlns="http://www.w3.org/2000/svg" xmlns:xlink="http://www.w3.org/1999/xlink" 
	 viewBox="0 0 512.001 512.001" xml:space="preserve">
<path style="fill:#9DA6BA;" d="M340.266,293.198l9.814,208.076h-218.62l9.814-208.076c0.504-10.833,9.439-19.35,20.283-19.35h5.159
	h67.221h5.17h5.17h70.535h5.159C330.827,273.848,339.751,282.365,340.266,293.198z M275.534,352.792
	c0-19.2-15.564-34.763-34.763-34.763s-34.763,15.564-34.763,34.763c0,19.2,15.564,34.763,34.763,34.763
	S275.534,371.992,275.534,352.792z"/>
<polygon style="fill:#E1EAF6;" points="239.108,46.412 270.214,46.412 330.28,46.412 327.137,92.588 319.082,211.036 
	314.813,273.848 244.278,273.848 239.108,273.848 233.938,273.848 166.718,273.848 151.261,46.412 211.328,46.412 "/>
<circle style="fill:#5A5D6F;" cx="240.77" cy="352.792" r="34.763"/>
<path d="M351.732,57.138c5.923,0,10.726-4.802,10.726-10.726s-4.803-10.726-10.726-10.726h-71.048
	c-0.998-9.034-4.991-17.401-11.51-23.92C261.588,4.179,251.5,0,240.771,0c-20.634,0-37.675,15.64-39.913,35.686h-71.049
	c-5.924,0-10.726,4.802-10.726,10.726s4.802,10.726,10.726,10.726h11.43l14.042,206.621c-13.641,2.791-24.048,14.502-24.719,28.934
	l-9.814,208.076c-0.138,2.929,0.929,5.788,2.953,7.909c2.024,2.123,4.829,3.323,7.761,3.323h218.62c2.933,0,5.737-1.2,7.76-3.323
	c2.025-2.122,3.092-4.98,2.954-7.909l-9.815-208.08c-0.686-14.432-11.097-26.137-24.73-28.929l2.871-42.215
	c29.041-2.562,52.837-25.17,56.427-54.589l7.197-58.862c0.813-6.635-1.262-13.313-5.693-18.32
	c-4.431-5.007-10.807-7.879-17.493-7.879h-30.942l1.684-24.756C340.301,57.138,351.732,57.138,351.732,57.138z M240.771,21.452
	c4.999,0,9.7,1.947,13.235,5.482c2.453,2.452,4.14,5.466,4.944,8.751h-36.354C224.611,27.523,231.995,21.452,240.771,21.452z
	 M329.552,293.703l9.286,196.844H142.705l9.285-196.851c0.238-5.115,4.441-9.121,9.569-9.121h5.159h67.221h10.34h70.535h5.16
	C325.102,284.574,329.31,288.586,329.552,293.703z M369.559,103.346c0.709,0,1.168,0.351,1.428,0.645
	c0.26,0.293,0.551,0.791,0.466,1.497l-7.198,58.867c-2.215,18.153-16.152,32.347-33.65,35.378l6.555-96.387
	C337.159,103.346,369.559,103.346,369.559,103.346z M304.791,263.122h-24.395c3.204-5.853,5.029-12.563,5.029-19.693v-2.896
	c0-5.924-4.803-10.726-10.726-10.726c-5.923,0-10.726,4.802-10.726,10.726v2.896c0,8.928-5.978,16.476-14.137,18.882V148.288
	c0-5.924-4.802-10.726-10.726-10.726s-10.726,4.802-10.726,10.726v114.023c-8.159-2.406-14.137-9.954-14.137-18.882v-2.896
	c0-5.924-4.802-10.726-10.726-10.726s-10.726,4.802-10.726,10.726v2.896c0,7.13,1.826,13.841,5.029,19.693H176.74L162.743,57.138
	h48.586h17.054v21.785c0,5.924,4.802,10.726,10.726,10.726c5.924,0,10.726-4.802,10.726-10.726V57.138h20.38h48.586L304.791,263.122
	z"/>
<path d="M240.771,307.303c-25.083,0-45.489,20.406-45.489,45.489c0,25.083,20.406,45.489,45.489,45.489
	c25.083,0,45.49-20.406,45.49-45.489C286.261,327.709,265.854,307.303,240.771,307.303z M240.771,376.83
	c-13.254,0-24.037-10.783-24.037-24.037c0-13.254,10.783-24.037,24.037-24.037c13.254,0,24.038,10.783,24.038,24.037
	C264.809,366.047,254.025,376.83,240.771,376.83z"/>
<path d="M261.633,413.577H219.91c-5.924,0-10.726,4.802-10.726,10.726s4.802,10.726,10.726,10.726h41.723
	c5.923,0,10.726-4.802,10.726-10.726S267.556,413.577,261.633,413.577z"/>
<path d="M261.633,449.327H219.91c-5.924,0-10.726,4.802-10.726,10.726s4.802,10.726,10.726,10.726h41.723
	c5.923,0,10.726-4.802,10.726-10.726S267.556,449.327,261.633,449.327z"/>
<path d="M239.108,100.557c-5.924,0-10.726,4.802-10.726,10.726v3.754c0,5.924,4.802,10.726,10.726,10.726
	s10.726-4.802,10.726-10.726v-3.754C249.834,105.359,245.032,100.557,239.108,100.557z"/>
</svg>