<?xml version="1.0" encoding="iso-8859-1"?>
<!-- Uploaded to: SVG Repo, www.svgrepo.com, Generator: SVG Repo Mixer Tools -->
<svg height="800px" width="800px" version="1.1" id="Layer_1" xmlns="http://www.w3.org/2000/svg" xmlns:xlink="http://www.w3.org/1999/xlink" 
	 viewBox="0 0 512 512" xml:space="preserve">
<polygon style="fill:#B2D299;" points="467.716,496.451 44.282,496.451 73.378,129.046 438.62,129.046 "/>
<circle style="fill:#F4D15A;" cx="256.005" cy="312.754" r="138.373"/>
<path d="M255.999,466.668c-84.872,0-153.92-69.048-153.92-153.92s69.048-153.92,153.92-153.92s153.92,69.048,153.92,153.92
	S340.872,466.668,255.999,466.668z M255.999,189.922c-67.727,0-122.825,55.099-122.825,122.825s55.099,122.825,122.825,122.825
	s122.825-55.099,122.825-122.825S323.726,189.922,255.999,189.922z"/>
<path d="M256.012,328.297c-4.688,0-9.321-2.111-12.379-6.127c-5.204-6.832-3.884-16.586,2.948-21.788l35.514-27.05
	c6.835-5.204,16.588-3.882,21.79,2.948c5.204,6.832,3.884,16.586-2.948,21.788l-35.515,27.05
	C262.605,327.26,259.295,328.297,256.012,328.297z"/>
<path d="M328.622,272.977c-1.011,0-2.038-0.093-3.032-0.295c-0.995-0.202-1.975-0.498-2.923-0.886
	c-0.933-0.389-1.835-0.871-2.674-1.43c-0.857-0.575-1.65-1.213-2.365-1.928c-0.715-0.731-1.368-1.524-1.943-2.363
	c-0.558-0.855-1.026-1.757-1.415-2.69c-0.389-0.933-0.698-1.912-0.902-2.907c-0.202-1.011-0.294-2.021-0.294-3.047
	c0-1.011,0.093-2.021,0.294-3.032c0.204-0.995,0.513-1.975,0.902-2.907c0.389-0.933,0.857-1.835,1.415-2.69
	c0.575-0.84,1.228-1.648,1.943-2.363c0.715-0.715,1.508-1.368,2.365-1.928c0.84-0.56,1.741-1.042,2.674-1.43
	c0.948-0.389,1.928-0.684,2.923-0.886c2.006-0.404,4.058-0.404,6.064,0c0.995,0.202,1.975,0.498,2.907,0.886
	c0.947,0.389,1.849,0.871,2.688,1.43c0.855,0.56,1.648,1.213,2.365,1.928c0.715,0.715,1.368,1.524,1.926,2.363
	c0.56,0.855,1.042,1.757,1.43,2.69c0.389,0.933,0.684,1.912,0.886,2.907c0.202,1.011,0.311,2.021,0.311,3.032
	c0,1.026-0.109,2.037-0.311,3.047c-0.202,0.995-0.498,1.975-0.886,2.907c-0.389,0.933-0.871,1.835-1.43,2.69
	c-0.558,0.84-1.211,1.632-1.926,2.363c-0.717,0.715-1.51,1.353-2.365,1.928c-0.84,0.56-1.741,1.042-2.688,1.43
	c-0.934,0.389-1.912,0.684-2.907,0.886C330.658,272.884,329.632,272.977,328.622,272.977z"/>
<path style="fill:#33895C;" d="M262.846,127.976h-13.694c-79.277,0-152.299-43.057-190.672-112.427l0,0H453.52l0,0
	C415.145,84.919,342.123,127.976,262.846,127.976z"/>
<path d="M483.215,495.224L454.12,127.818c-0.641-8.085-7.388-14.319-15.499-14.319h-61.326c37.11-20.882,68.49-51.846,89.829-90.424
	c2.663-4.817,2.582-10.681-0.213-15.422S459.022,0,453.518,0H58.48c-5.504,0-10.597,2.91-13.393,7.651s-2.876,10.607-0.211,15.422
	c21.339,38.58,52.717,69.544,89.829,90.424H73.378c-8.111,0-14.859,6.235-15.499,14.319L28.785,495.224
	c-0.342,4.324,1.137,8.593,4.08,11.779c2.943,3.186,7.082,4.997,11.42,4.997h423.432c4.336,0,8.477-1.811,11.42-4.997
	C482.079,503.817,483.557,499.548,483.215,495.224z M425.024,31.095c-37.861,50.742-97.82,81.332-162.178,81.332h-13.696
	c-37.953,0-74.372-10.647-105.636-29.783h119.473c8.585,0,15.548-6.961,15.548-15.548s-6.962-15.548-15.548-15.548H104.504
	c-6.255-6.392-12.124-13.211-17.53-20.454H425.024z M61.111,480.905l26.631-336.313h336.512l26.633,336.312H61.111V480.905z"/>
<path d="M309.638,82.644c-1.026,0-2.038-0.109-3.047-0.311c-0.997-0.187-1.976-0.498-2.907-0.886
	c-0.934-0.389-1.835-0.871-2.69-1.43c-0.84-0.56-1.633-1.213-2.363-1.928c-0.715-0.715-1.368-1.508-1.928-2.363
	c-0.56-0.84-1.042-1.741-1.43-2.69c-0.389-0.933-0.684-1.912-0.886-2.907s-0.309-2.021-0.309-3.032s0.107-2.037,0.309-3.032
	s0.498-1.975,0.886-2.907c0.389-0.948,0.871-1.85,1.43-2.69c0.56-0.855,1.213-1.648,1.928-2.363
	c0.731-0.715,1.522-1.368,2.363-1.928c0.857-0.56,1.757-1.042,2.69-1.43c0.933-0.389,1.911-0.7,2.907-0.886
	c2.006-0.404,4.073-0.404,6.079,0c0.995,0.187,1.975,0.498,2.906,0.886c0.934,0.389,1.836,0.871,2.69,1.43
	c0.84,0.56,1.648,1.213,2.363,1.928c0.717,0.715,1.37,1.508,1.928,2.363c0.56,0.84,1.042,1.741,1.43,2.69
	c0.389,0.933,0.684,1.912,0.886,2.907c0.202,0.995,0.311,2.021,0.311,3.032s-0.109,2.037-0.311,3.032
	c-0.202,0.995-0.498,1.975-0.886,2.907c-0.389,0.948-0.871,1.85-1.43,2.69c-0.558,0.855-1.211,1.648-1.928,2.363
	c-0.715,0.715-1.522,1.368-2.363,1.928c-0.855,0.56-1.757,1.042-2.69,1.43c-0.933,0.389-1.911,0.7-2.906,0.886
	C311.675,82.536,310.649,82.644,309.638,82.644z"/>
</svg>