<?xml version="1.0" ?>
<!DOCTYPE svg  PUBLIC '-//W3C//DTD SVG 1.1//EN'  'http://www.w3.org/Graphics/SVG/1.1/DTD/svg11.dtd'>
<!-- Uploaded to: SVG Repo, www.svgrepo.com, Generator: SVG Repo Mixer Tools -->
<svg fill="#000000" width="800px" height="800px" viewBox="0 0 250 250" style="fill-rule:evenodd;clip-rule:evenodd;stroke-linecap:round;stroke-linejoin:round;stroke-miterlimit:1.5;" version="1.1" xml:space="preserve" xmlns="http://www.w3.org/2000/svg" xmlns:serif="http://www.serif.com/" xmlns:xlink="http://www.w3.org/1999/xlink">
<g transform="matrix(0.271104,0.271104,-0.271104,0.271104,27.7989,-235.455)">
<g transform="matrix(0.8,0,0,0.8,486.714,140.248)">
<g transform="matrix(0.684389,0,0,0.684389,157.806,305.723)">
<path d="M472.035,408.836C487.168,584.477 500,768.478 500,887.413C500,929.482 465.845,963.636 423.776,963.636C381.707,963.636 347.552,929.482 347.552,887.413C347.552,768.478 360.384,584.477 375.518,408.836L472.035,408.836Z" style="fill:rgb(15,169,84);"/>
</g>
<g transform="matrix(2.30539,-2.30539,2.30539,2.30539,-129.666,431.591)">
<path d="M92.161,158.932L99.027,165.799C75.203,194.116 49.796,223.332 32.142,240.986C25.898,247.231 15.758,247.231 9.514,240.986C4.424,235.896 3.483,228.219 6.691,222.172C7.418,223.544 8.359,224.832 9.514,225.986C15.758,232.231 25.898,232.231 32.142,225.986C48.108,210.02 70.416,184.597 92.161,158.932Z" style="fill:rgb(14,124,63);"/>
</g>
<g transform="matrix(0.684389,0,0,0.684389,157.806,305.723)">
<path d="M472.035,408.836C487.168,584.477 500,768.478 500,887.413C500,929.482 465.845,963.636 423.776,963.636C381.707,963.636 347.552,929.482 347.552,887.413C347.552,768.478 360.384,584.477 375.518,408.836L472.035,408.836Z" style="fill:none;stroke:black;stroke-width:35.73px;"/>
</g>
<g transform="matrix(0.993384,0,0,0.684389,-323.255,282.751)">
<path d="M725.111,442.403C730.144,382.402 735.518,322.859 740.822,266.624L811.625,266.624C816.929,322.859 822.303,382.402 827.336,442.403L725.111,442.403Z" style="fill:rgb(64,64,64);"/>
</g>
<g transform="matrix(2.30539,-2.30539,2.30539,2.30539,-129.666,431.591)">
<path d="M117.322,131.911L125.583,140.172C118.378,149.662 110.698,159.658 102.876,169.648L92.161,158.932C97.894,151.609 109.734,141.704 117.322,131.911Z" style="fill:rgb(51,51,51);"/>
</g>
<g transform="matrix(0.993384,0,0,0.684389,-323.255,282.751)">
<path d="M725.111,442.403C730.144,382.402 735.518,322.859 740.822,266.624L811.625,266.624C816.929,322.859 822.303,382.402 827.336,442.403L725.111,442.403Z" style="fill:none;stroke:black;stroke-width:28.67px;"/>
</g>
</g>
<path d="M825.231,469.924C768.931,460.362 724.927,411.13 719.129,349.909C718.705,348.163 718.481,346.346 718.481,344.48C718.481,342.977 718.497,341.424 718.527,339.83C718.497,338.601 718.481,337.371 718.481,336.137L718.622,336.137C720.661,271.586 744.208,141.608 744.208,141.608C744.208,141.608 762.831,244.407 768.388,312.564C769.128,325.77 780.703,336.12 794.731,336.12C794.732,336.137 794.732,336.137 794.733,336.137C808.771,336.137 820.354,325.78 821.095,312.565C826.067,251.379 841.583,162.278 844.706,144.689L844.706,141.608C844.706,141.608 844.801,142.137 844.981,143.143C845.161,142.137 845.256,141.608 845.256,141.608L845.256,144.689C848.379,162.278 863.895,251.379 868.867,312.565C869.608,325.78 881.191,336.137 895.229,336.137C895.23,336.137 895.23,336.137 895.231,336.12C909.259,336.12 920.834,325.77 921.574,312.564C927.131,244.407 945.754,141.608 945.754,141.608C945.754,141.608 969.301,271.586 971.34,336.137L971.481,336.137C971.481,337.371 971.466,338.601 971.435,339.83C971.465,341.424 971.481,342.977 971.481,344.48C971.481,346.346 971.257,348.163 970.833,349.909C965.035,411.13 921.031,460.362 864.731,469.924L864.731,512.428L825.231,512.428L825.231,469.924Z" style="fill:rgb(191,191,191);"/>
<g transform="matrix(1.84431,-1.84431,1.84431,1.84431,382.982,485.521)">
<path d="M226.513,73.111C237.405,65.158 245.806,59.334 245.806,59.334C245.806,59.334 216.952,100.955 200.005,119.008L200.043,119.046C199.709,119.381 199.371,119.71 199.03,120.035C198.606,120.475 198.189,120.9 197.782,121.308C197.276,121.814 196.722,122.246 196.134,122.604C177.965,137.629 152.688,139.047 134.833,126.376L123.31,137.899L112.601,127.19L116.13,123.662L118.415,129.794L134.833,113.376C152.688,126.047 177.965,124.629 196.134,109.604C196.722,109.246 197.276,108.814 197.782,108.308C198.189,107.9 198.606,107.475 199.03,107.035C199.371,106.71 199.709,106.381 200.043,106.046L200.005,106.008C207.664,97.85 217.753,84.879 226.513,73.111Z" style="fill:rgb(140,140,140);"/>
</g>
<g transform="matrix(1.84431,-1.84431,1.84431,1.84431,384.826,505.808)">
<path d="M198.689,46.29C207.636,39.747 215,34.574 217.576,32.774L218.412,31.939C218.412,31.939 218.294,32.108 218.07,32.43C218.392,32.206 218.561,32.088 218.561,32.088L217.726,32.924C213.815,38.523 193.966,66.742 178.741,84.687C175.539,80.882 175.43,75.4 178.615,71.837C184.988,64.336 192.185,55.012 198.689,46.29Z" style="fill:rgb(140,140,140);"/>
</g>
<g transform="matrix(1.84431,-1.84431,1.84431,1.84431,384.826,502.12)">
<path d="M171.873,18.471C182.764,10.519 191.166,4.694 191.166,4.694C191.166,4.694 168.464,37.441 151.505,57.442C148.301,53.64 148.191,48.158 151.375,44.596C157.886,36.928 165.259,27.356 171.873,18.471Z" style="fill:rgb(140,140,140);"/>
</g>
<path d="M825.231,469.924C768.931,460.362 724.927,411.13 719.129,349.909C718.705,348.163 718.481,346.346 718.481,344.48C718.481,342.977 718.497,341.424 718.527,339.83C718.497,338.601 718.481,337.371 718.481,336.137L718.622,336.137C720.661,271.586 744.208,141.608 744.208,141.608C744.208,141.608 762.831,244.407 768.388,312.564C769.128,325.77 780.703,336.12 794.731,336.12C794.732,336.137 794.732,336.137 794.733,336.137C808.771,336.137 820.354,325.78 821.095,312.565C826.067,251.379 841.583,162.278 844.706,144.689L844.706,141.608C844.706,141.608 844.801,142.137 844.981,143.143C845.161,142.137 845.256,141.608 845.256,141.608L845.256,144.689C848.379,162.278 863.895,251.379 868.867,312.565C869.608,325.78 881.191,336.137 895.229,336.137C895.23,336.137 895.23,336.137 895.231,336.12C909.259,336.12 920.834,325.77 921.574,312.564C927.131,244.407 945.754,141.608 945.754,141.608C945.754,141.608 969.301,271.586 971.34,336.137L971.481,336.137C971.481,337.371 971.466,338.601 971.435,339.83C971.465,341.424 971.481,342.977 971.481,344.48C971.481,346.346 971.257,348.163 970.833,349.909C965.035,411.13 921.031,460.362 864.731,469.924L864.731,512.428L825.231,512.428L825.231,469.924Z" style="fill:none;stroke:black;stroke-width:19.56px;"/>
</g>
</svg>