<?xml version="1.0" encoding="iso-8859-1"?>
<!-- Uploaded to: SVG Repo, www.svgrepo.com, Generator: SVG Repo Mixer Tools -->
<svg version="1.1" id="Layer_1" xmlns="http://www.w3.org/2000/svg" xmlns:xlink="http://www.w3.org/1999/xlink" 
	 viewBox="0 0 512 512" xml:space="preserve">
<g>
	<path style="fill:#F0DF9E;" d="M385.875,319.439v128.752c0,29.036-23.545,52.581-52.592,52.581H178.717
		c-29.047,0-52.592-23.545-52.592-52.581V319.439H385.875z"/>
	<path style="fill:#F0DF9E;" d="M385.875,63.809v255.629h-259.75V63.809c0-29.036,23.545-52.581,52.592-52.581h154.566
		C362.33,11.228,385.875,34.773,385.875,63.809z M275.413,152.197V79.214h-38.737v72.982H275.413z"/>
</g>
<rect x="236.676" y="79.214" style="fill:#DAEDE2;" width="38.737" height="72.982"/>
<path d="M333.283,0H178.717c-35.191,0-63.82,28.625-63.82,63.809v255.629v128.752c0,35.184,28.629,63.809,63.82,63.809h154.566
	c35.191,0,63.82-28.625,63.82-63.809V319.439V63.809C397.103,28.625,368.474,0,333.283,0z M374.647,448.191
	c0,22.802-18.556,41.353-41.364,41.353H178.717c-22.808,0-41.364-18.551-41.364-41.353V330.667h158.086
	c6.2,0,11.228-5.027,11.228-11.228s-5.028-11.228-11.228-11.228H137.353V63.809c0-22.802,18.556-41.353,41.364-41.353h154.566
	c22.808,0,41.364,18.551,41.364,41.353v244.401h-11.279c-6.2,0-11.228,5.027-11.228,11.228s5.028,11.228,11.228,11.228h11.279
	V448.191z"/>
<path d="M331.368,308.211h-2.432c-6.2,0-11.228,5.027-11.228,11.228s5.028,11.228,11.228,11.228h2.432
	c6.2,0,11.228-5.027,11.228-11.228S337.569,308.211,331.368,308.211z"/>
<path d="M275.413,67.986h-38.737c-6.2,0-11.228,5.027-11.228,11.228v72.982c0,6.201,5.028,11.228,11.228,11.228h38.737
	c6.2,0,11.228-5.027,11.228-11.228V79.214C286.641,73.013,281.615,67.986,275.413,67.986z M264.185,140.968h-16.281V90.442h16.281
	V140.968z"/>
<path d="M314.105,92.261c6.2,0,11.228-5.027,11.228-11.228v-1.875c0-6.201-5.028-11.228-11.228-11.228s-11.228,5.027-11.228,11.228
	v1.875C302.877,87.234,307.905,92.261,314.105,92.261z"/>
<path d="M314.105,127.809c6.2,0,11.228-5.027,11.228-11.228v-1.864c0-6.201-5.028-11.228-11.228-11.228s-11.228,5.027-11.228,11.228
	v1.864C302.877,122.782,307.905,127.809,314.105,127.809z"/>
<path d="M325.333,152.14v-1.875c0-6.201-5.028-11.228-11.228-11.228s-11.228,5.027-11.228,11.228v1.875
	c0,6.201,5.028,11.228,11.228,11.228S325.333,158.342,325.333,152.14z"/>
<path d="M171.228,242.526c-6.2,0-11.228,5.027-11.228,11.228v18.762c0,6.201,5.028,11.228,11.228,11.228
	c6.2,0,11.228-5.027,11.228-11.228v-18.762C182.456,247.553,177.428,242.526,171.228,242.526z"/>
<path d="M171.228,355.133c-6.2,0-11.228,5.027-11.228,11.228v18.762c0,6.201,5.028,11.228,11.228,11.228
	c6.2,0,11.228-5.027,11.228-11.228v-18.762C182.456,360.159,177.428,355.133,171.228,355.133z"/>
</svg>