<?xml version="1.0" encoding="iso-8859-1"?>
<!-- Uploaded to: SVG Repo, www.svgrepo.com, Generator: SVG Repo Mixer Tools -->
<svg version="1.1" id="Layer_1" xmlns="http://www.w3.org/2000/svg" xmlns:xlink="http://www.w3.org/1999/xlink" 
	 viewBox="0 0 512 512" xml:space="preserve">
<g>
	<rect x="35.409" y="14.382" style="fill:#509ED9;" width="234.978" height="483.231"/>
	<rect x="270.387" y="14.382" style="fill:#509ED9;" width="206.214" height="483.231"/>
</g>
<path d="M317.604,286.917c-7.942,0-14.382-6.44-14.382-14.382v-63.272c0-7.942,6.44-14.382,14.382-14.382
	c7.942,0,14.382,6.44,14.382,14.382v63.272C331.986,280.478,325.546,286.917,317.604,286.917z"/>
<path d="M317.599,330.062c-0.935,0-1.886-0.099-2.805-0.288c-0.92-0.171-1.828-0.459-2.689-0.818
	c-0.877-0.36-1.712-0.791-2.487-1.323c-0.792-0.518-1.526-1.122-2.188-1.783s-1.266-1.395-1.783-2.188
	c-0.516-0.775-0.964-1.609-1.323-2.474c-0.36-0.876-0.631-1.783-0.818-2.689c-0.188-0.933-0.288-1.884-0.288-2.819
	c0-0.933,0.099-1.884,0.288-2.805c0.187-0.92,0.459-1.827,0.818-2.688c0.36-0.877,0.807-1.712,1.323-2.488
	c0.518-0.791,1.122-1.525,1.783-2.186s1.395-1.267,2.188-1.783c0.775-0.518,1.625-0.964,2.487-1.323
	c0.861-0.36,1.769-0.633,2.689-0.82c1.855-0.374,3.768-0.374,5.623,0c0.906,0.187,1.812,0.46,2.689,0.82
	c0.863,0.36,1.697,0.805,2.474,1.323c0.791,0.516,1.525,1.122,2.186,1.783s1.267,1.395,1.798,2.186
	c0.518,0.777,0.964,1.611,1.323,2.488c0.36,0.863,0.633,1.768,0.82,2.688c0.187,0.922,0.273,1.871,0.273,2.805
	c0,0.935-0.088,1.886-0.273,2.819c-0.187,0.906-0.46,1.814-0.82,2.689c-0.36,0.864-0.805,1.699-1.323,2.474
	c-0.531,0.792-1.136,1.526-1.798,2.188c-0.662,0.662-1.395,1.266-2.186,1.783c-0.777,0.532-1.611,0.964-2.474,1.323
	c-0.877,0.36-1.783,0.647-2.689,0.818C319.482,329.963,318.533,330.062,317.599,330.062z"/>
<path d="M223.161,286.917c-7.942,0-14.382-6.44-14.382-14.382v-63.272c0-7.942,6.44-14.382,14.382-14.382
	c7.942,0,14.382,6.44,14.382,14.382v63.272C237.543,280.478,231.103,286.917,223.161,286.917z"/>
<path d="M223.165,330.062c-0.949,0-1.886-0.099-2.819-0.288c-0.922-0.171-1.828-0.459-2.689-0.818
	c-0.862-0.36-1.697-0.791-2.488-1.323c-0.777-0.518-1.525-1.122-2.186-1.783s-1.251-1.395-1.783-2.188
	c-0.516-0.775-0.964-1.609-1.323-2.474c-0.36-0.876-0.631-1.783-0.82-2.689c-0.187-0.933-0.272-1.884-0.272-2.819
	c0-0.933,0.086-1.884,0.272-2.805c0.188-0.92,0.46-1.827,0.82-2.688c0.36-0.877,0.807-1.712,1.323-2.488
	c0.532-0.791,1.122-1.525,1.783-2.186c3.351-3.337,8.313-4.877,12.987-3.926c0.92,0.187,1.827,0.46,2.689,0.82
	c0.863,0.36,1.71,0.805,2.487,1.323c0.791,0.516,1.526,1.122,2.188,1.783s1.266,1.395,1.782,2.186
	c0.518,0.777,0.964,1.611,1.323,2.488c0.36,0.863,0.633,1.768,0.82,2.688c0.187,0.922,0.288,1.871,0.288,2.805
	c0,0.935-0.101,1.886-0.288,2.819c-0.187,0.906-0.46,1.814-0.82,2.689c-0.36,0.864-0.805,1.699-1.323,2.474
	c-0.516,0.792-1.12,1.526-1.782,2.188c-0.662,0.662-1.397,1.266-2.188,1.783c-0.777,0.532-1.625,0.964-2.487,1.323
	c-0.864,0.36-1.769,0.647-2.689,0.818C225.048,329.963,224.099,330.062,223.165,330.062z"/>
<rect x="82.453" y="199.195" style="fill:#B5DDF8;" width="93.96" height="126.564"/>
<rect x="82.453" y="199.195" style="fill:#074761;" width="93.96" height="45.985"/>
<path d="M476.59,0H270.382H35.41c-7.942,0-14.382,6.44-14.382,14.382v483.235c0,7.942,6.44,14.382,14.382,14.382h234.972H476.59
	c7.942,0,14.382-6.44,14.382-14.382V14.382C490.972,6.44,484.532,0,476.59,0z M256,28.765v67.314H49.792V28.765H256z
	 M49.792,124.843H256v358.393H49.792V124.843z M462.208,483.235H284.765V124.843h86.294c7.942,0,14.382-6.44,14.382-14.382
	S379,96.078,371.058,96.078h-86.294V28.765h177.443L462.208,483.235L462.208,483.235z"/>
<path d="M176.418,184.808H82.453c-7.942,0-14.382,6.44-14.382,14.382v45.985v80.58c0,7.942,6.44,14.382,14.382,14.382h93.965
	c7.942,0,14.382-6.44,14.382-14.382v-80.58v-45.985C190.801,191.249,184.36,184.808,176.418,184.808z M96.835,213.573h65.201v17.22
	H96.835V213.573z M96.835,311.373v-51.815h18.218v2.915c0,7.942,6.44,14.382,14.382,14.382s14.382-6.44,14.382-14.382v-2.915h18.218
	v51.815L96.835,311.373L96.835,311.373z"/>
<path d="M414.205,124.843c-3.783,0-7.493-1.539-10.168-4.215c-0.662-0.662-1.266-1.395-1.783-2.186
	c-0.532-0.777-0.964-1.611-1.323-2.488c-0.36-0.863-0.647-1.768-0.834-2.688c-0.187-0.922-0.272-1.871-0.272-2.805
	c0-3.783,1.537-7.493,4.214-10.168s6.386-4.214,10.168-4.214s7.493,1.537,10.167,4.214c0.663,0.662,1.267,1.395,1.783,2.188
	c0.518,0.777,0.964,1.609,1.323,2.474c0.36,0.876,0.647,1.783,0.82,2.689c0.187,0.933,0.288,1.884,0.288,2.819
	c0,3.783-1.539,7.493-4.215,10.167C421.699,123.302,417.986,124.843,414.205,124.843z"/>
</svg>