<?xml version="1.0" encoding="utf-8"?><!-- Uploaded to: SVG Repo, www.svgrepo.com, Generator: SVG Repo Mixer Tools -->
<svg fill="#000000" width="800px" height="800px" viewBox="0 0 24 24" id="funnel" data-name="Flat Line" xmlns="http://www.w3.org/2000/svg" class="icon flat-line"><path id="secondary" d="M19,4V6.64a1,1,0,0,1-.23.64l-4.54,5.44a1,1,0,0,0-.23.64V21l-4-2V13.36a1,1,0,0,0-.23-.64L5.23,7.28A1,1,0,0,1,5,6.64V4A1,1,0,0,1,6,3H18A1,1,0,0,1,19,4Z" style="fill: rgb(44, 169, 188); stroke-width: 2;"></path><path id="primary" d="M19,4V6.64a1,1,0,0,1-.23.64l-4.54,5.44a1,1,0,0,0-.23.64V21l-4-2V13.36a1,1,0,0,0-.23-.64L5.23,7.28A1,1,0,0,1,5,6.64V4A1,1,0,0,1,6,3H18A1,1,0,0,1,19,4Z" style="fill: none; stroke: rgb(0, 0, 0); stroke-linecap: round; stroke-linejoin: round; stroke-width: 2;"></path></svg>