<?xml version="1.0" encoding="iso-8859-1"?>
<!-- Uploaded to: SVG Repo, www.svgrepo.com, Generator: SVG Repo Mixer Tools -->
<svg height="800px" width="800px" version="1.1" id="Layer_1" xmlns="http://www.w3.org/2000/svg" xmlns:xlink="http://www.w3.org/1999/xlink" 
	 viewBox="0 0 512.002 512.002" xml:space="preserve">
<path style="fill:#33895C;" d="M414.194,120.507H97.807v-16.589c0-49.183,39.871-89.054,89.054-89.054H325.14
	c49.183,0,89.054,39.871,89.054,89.054L414.194,120.507L414.194,120.507z"/>
<path style="fill:#B2D299;" d="M411.607,157.161l0.079-36.444H100.316l0.079,36.444c0.168,77.755,63.248,140.699,141.003,140.699
	h29.205C348.36,297.86,411.439,234.916,411.607,157.161z"/>
<path d="M396.03,510.802c-0.981,0-1.949-0.103-2.913-0.296c-0.953-0.193-1.873-0.476-2.779-0.847
	c-0.892-0.372-1.754-0.832-2.557-1.367c-0.819-0.535-1.577-1.159-2.261-1.843c-0.699-0.684-1.308-1.442-1.858-2.259
	c-0.534-0.803-0.996-1.665-1.367-2.571c-0.372-0.892-0.652-1.827-0.847-2.779c-0.193-0.951-0.281-1.932-0.281-2.898
	c0-3.909,1.576-7.744,4.355-10.507c0.684-0.684,1.442-1.308,2.261-1.858c0.803-0.535,1.665-0.996,2.557-1.367
	c0.907-0.372,1.827-0.654,2.779-0.847c1.917-0.386,3.894-0.386,5.812,0c0.951,0.193,1.888,0.476,2.779,0.847s1.767,0.832,2.57,1.367
	c0.817,0.55,1.576,1.174,2.261,1.858c2.763,2.763,4.355,6.598,4.355,10.507c0,0.966-0.104,1.949-0.297,2.898
	c-0.193,0.953-0.476,1.889-0.847,2.779c-0.372,0.907-0.832,1.769-1.367,2.571c-0.534,0.817-1.158,1.576-1.842,2.259
	c-0.685,0.684-1.443,1.308-2.261,1.843c-0.803,0.535-1.68,0.996-2.57,1.367c-0.893,0.372-1.828,0.654-2.779,0.847
	C397.975,510.699,396.994,510.802,396.03,510.802z"/>
<circle style="fill:#F4D15A;" cx="121.138" cy="455.623" r="41.515"/>
<path d="M433.619,106.522h-4.56v-2.604C429.059,46.616,382.442,0,325.14,0H186.861c-57.3,0-103.918,46.616-103.918,103.918v2.604
	h-4.56c-8.209,0-14.863,6.656-14.863,14.863s6.654,14.863,14.863,14.863h7.103l0.046,20.946
	c0.129,60.16,34.578,112.446,84.735,138.306l-18.178,49.925h-48.563c-8.209,0-14.863,6.656-14.863,14.863
	s6.654,14.863,14.863,14.863h37.738l-9.165,25.171c-3.549-0.705-7.215-1.081-10.968-1.081c-31.088,0-56.378,25.292-56.378,56.38
	s25.292,56.38,56.378,56.38s56.378-25.292,56.378-56.38c0-16.599-7.213-31.542-18.665-41.867l14.055-38.603h165.063l28.829,82.297
	c2.143,6.122,7.889,9.954,14.028,9.954c1.63,0,3.288-0.271,4.914-0.84c7.748-2.713,11.828-11.194,9.114-18.94l-25.387-72.471h39.013
	c8.208,0,14.863-6.656,14.863-14.863s-6.656-14.863-14.863-14.863h-49.427l-17.462-49.846
	c50.238-25.833,84.753-78.165,84.883-138.384l0.045-20.946h7.103c8.208,0,14.863-6.656,14.863-14.863
	S441.827,106.522,433.619,106.522z M121.134,482.273c-14.695,0-26.652-11.956-26.652-26.653c0-14.697,11.956-26.653,26.652-26.653
	s26.652,11.956,26.652,26.653C147.785,470.317,135.829,482.273,121.134,482.273z M112.671,103.918
	c0-40.909,33.282-74.191,74.191-74.191H325.14c40.909,0,74.191,33.282,74.191,74.191v1.726h-286.66V103.918z M327.551,345.423
	H183.725l14.163-38.899c13.818,4.029,28.417,6.2,43.511,6.2h29.205c15.031,0,29.572-2.151,43.339-6.147L327.551,345.423z
	 M396.743,157.13c-0.152,69.403-56.737,125.868-126.14,125.868h-29.205c-59.33,0-109.261-41.277-122.608-96.612h141.437
	c8.208,0,14.863-6.656,14.863-14.863s-6.656-14.863-14.863-14.863H115.258l-0.045-20.409h281.575L396.743,157.13z"/>
<path d="M304.813,186.393c-0.966,0-1.947-0.103-2.898-0.297c-0.951-0.193-1.888-0.474-2.779-0.846
	c-0.892-0.372-1.754-0.834-2.57-1.367c-0.803-0.55-1.577-1.159-2.261-1.858c-0.684-0.684-1.308-1.443-1.842-2.261
	c-0.535-0.803-0.997-1.665-1.369-2.557s-0.652-1.828-0.846-2.779c-0.193-0.966-0.297-1.932-0.297-2.898
	c0-0.981,0.104-1.96,0.297-2.913c0.193-0.951,0.474-1.888,0.846-2.779c0.372-0.905,0.834-1.767,1.369-2.57
	c0.534-0.817,1.158-1.577,1.842-2.261c0.684-0.684,1.457-1.308,2.261-1.842c0.818-0.535,1.68-0.997,2.57-1.369
	c0.893-0.372,1.828-0.653,2.779-0.846c4.831-0.966,9.958,0.609,13.422,4.056c0.684,0.684,1.293,1.443,1.843,2.261
	c0.534,0.803,0.996,1.665,1.367,2.57c0.372,0.893,0.652,1.828,0.846,2.779c0.195,0.953,0.282,1.932,0.282,2.913
	c0,0.966-0.089,1.932-0.282,2.898c-0.193,0.951-0.474,1.889-0.846,2.779c-0.372,0.89-0.834,1.754-1.367,2.557
	c-0.55,0.817-1.159,1.577-1.843,2.261c-0.699,0.699-1.457,1.308-2.261,1.858c-0.818,0.534-1.68,0.996-2.57,1.367
	c-0.907,0.372-1.843,0.653-2.779,0.846C306.759,186.291,305.779,186.393,304.813,186.393z"/>
</svg>