<?xml version="1.0" encoding="iso-8859-1"?>
<!-- Uploaded to: SVG Repo, www.svgrepo.com, Generator: SVG Repo Mixer Tools -->
<svg height="800px" width="800px" version="1.1" id="Layer_1" xmlns="http://www.w3.org/2000/svg" xmlns:xlink="http://www.w3.org/1999/xlink" 
	 viewBox="0 0 512 512" xml:space="preserve">
<path style="fill:#77C4D3;" d="M433.229,215.92v14.542c0,13.476-10.922,24.397-24.397,24.397H139.839h-36.671
	c-13.476,0-24.397-10.922-24.397-24.397v-18.695h39.212h39.77h2.479h39.361h233.586C433.216,213.143,433.229,214.532,433.229,215.92
	z"/>
<path style="fill:#E6F6FF;" d="M271.757,54.436c87.796,0,159.216,70.068,161.423,157.332H199.593h-39.361h-2.479h-39.77H78.771
	v-92.606c0-35.741,28.972-64.725,64.725-64.725h43.7h40.291L271.757,54.436L271.757,54.436z M276.368,100.317
	c0,20.158,8.17,38.419,21.397,51.634c13.215,13.215,31.476,21.385,51.634,21.385h34.427
	C366.855,130.603,325.077,100.317,276.368,100.317z"/>
<polygon style="fill:#77C4D3;" points="187.196,12.397 187.196,54.436 143.496,54.436 137.608,54.436 137.608,12.397 "/>
<path d="M349.4,185.733h34.428c4.107,0,7.949-2.036,10.256-5.435c2.307-3.398,2.781-7.721,1.266-11.539
	c-9.355-23.554-25.363-43.664-46.294-58.151c-21.442-14.843-46.578-22.688-72.687-22.688c-6.846,0-12.397,5.551-12.397,12.397
	c0,22.826,8.891,44.279,25.028,60.4C305.131,176.85,326.582,185.733,349.4,185.733z M363.72,160.939H349.4
	c-16.194,0-31.419-6.305-42.872-17.758c-8.248-8.24-13.828-18.439-16.305-29.552C320.7,117.689,347.489,135.014,363.72,160.939z"/>
<path d="M445.58,212.187c0.005-0.14,0.021-0.278,0.021-0.419c0-0.429-0.022-0.853-0.064-1.271
	c-1.386-45.144-19.936-87.369-52.311-118.989c-32.664-31.901-75.803-49.471-121.469-49.471h-31.873V12.397
	c0-6.846-5.55-12.397-12.397-12.397S215.09,5.551,215.09,12.397v29.641h-15.496V12.397c0-6.846-5.55-12.397-12.397-12.397h-49.588
	c-6.847,0-12.397,5.551-12.397,12.397v31.851c-33.725,8.234-58.837,38.688-58.837,74.913v92.606v18.695
	c0,20.288,16.505,36.795,36.795,36.795h24.274v68.767h-11.17c-18.682,0-33.881,15.199-33.881,33.881v81.176
	c0,18.682,15.199,33.881,33.881,33.881h11.17v14.641c0,6.846,5.55,12.397,12.397,12.397c6.847,0,12.397-5.551,12.397-12.397v-14.641
	h11.17c18.682,0,33.881-15.199,33.881-33.881v-81.176c0-18.682-15.199-33.881-33.881-33.881h-11.17v-68.767h256.595
	c20.288,0,36.795-16.505,36.795-36.795V215.92C445.626,214.672,445.607,213.427,445.58,212.187z M127.442,460.168h-11.17
	c-5.011,0-9.087-4.076-9.087-9.087v-81.176c0-5.011,4.076-9.087,9.087-9.087h11.17V460.168z M150.005,24.794h24.794v17.244h-24.794
	V24.794z M163.406,360.817c5.011,0,9.087,4.076,9.087,9.087v81.176c0,5.011-4.076,9.087-9.087,9.087h-11.17v-99.35H163.406z
	 M420.832,230.462c0,6.616-5.384,12-12,12H103.169c-6.618,0-12-5.384-12-12v-6.298h26.815c6.847,0,12.397-5.551,12.397-12.397
	s-5.55-12.397-12.397-12.397H91.168v-80.209c0-28.853,23.475-52.328,52.328-52.328h43.7h84.561
	c77.217,0,140.02,57.261,148.173,132.537H199.593c-6.847,0-12.397,5.551-12.397,12.397c0,6.846,5.55,12.397,12.397,12.397h221.239
	L420.832,230.462L420.832,230.462z"/>
<path d="M160.232,199.37h-2.479c-6.847,0-12.397,5.551-12.397,12.397c0,6.846,5.55,12.397,12.397,12.397h2.479
	c6.847,0,12.397-5.551,12.397-12.397C172.63,204.922,167.079,199.37,160.232,199.37z"/>
</svg>