<?xml version="1.0" encoding="iso-8859-1"?>
<!-- Uploaded to: SVG Repo, www.svgrepo.com, Generator: SVG Repo Mixer Tools -->
<svg version="1.1" id="Layer_1" xmlns="http://www.w3.org/2000/svg" xmlns:xlink="http://www.w3.org/1999/xlink" 
	 viewBox="0 0 512 512" xml:space="preserve">
<path style="fill:#19CCFE;" d="M37.23,145.764v286.932c0,5.475,0.555,10.82,1.611,15.983c1.32,6.453,3.425,12.621,6.209,18.399
	c0.557,1.156,1.141,2.295,1.751,3.42c1.221,2.248,2.547,4.43,3.972,6.538c0.713,1.054,1.45,2.092,2.211,3.109
	c1.522,2.036,3.14,3.996,4.847,5.873c1.707,1.878,3.502,3.673,5.381,5.381c1.878,1.706,3.837,3.324,5.873,4.847
	C82.316,506.14,98.742,512,116.535,512h278.932l0,0c2.737,0,5.442-0.139,8.109-0.41c3.999-0.407,7.91-1.109,11.711-2.088
	c7.602-1.956,14.763-5.01,21.302-8.985c2.18-1.325,4.292-2.752,6.327-4.273c3.054-2.283,5.936-4.782,8.628-7.473
	c0.896-0.897,1.772-1.815,2.626-2.754c4.266-4.694,7.978-9.902,11.03-15.521c0.61-1.123,1.194-2.264,1.752-3.42
	c2.784-5.778,4.888-11.945,6.209-18.399c1.056-5.163,1.611-10.508,1.611-15.983V145.764H37.23z"/>
<path style="fill:#9BE7FE;" d="M256,145.764H37.23v286.932c0,5.475,0.555,10.82,1.611,15.983c1.32,6.453,3.425,12.621,6.209,18.399
	c0.558,1.156,1.141,2.295,1.752,3.42c1.221,2.248,2.547,4.43,3.972,6.538c0.713,1.054,1.45,2.092,2.211,3.109
	c1.522,2.036,3.14,3.996,4.847,5.873c1.707,1.878,3.503,3.673,5.381,5.381c1.878,1.706,3.837,3.324,5.873,4.847
	C82.316,506.14,98.742,512,116.535,512H256V145.764z"/>
<rect x="37.23" y="145.763" style="fill:#FB7E17;" width="437.542" height="145.601"/>
<path style="fill:#FFFC99;" d="M256,15.208c-72.106,0-130.556,58.452-130.556,130.556h261.112
	C386.556,73.66,328.106,15.208,256,15.208z"/>
<path style="fill:#F7EE00;" d="M256,0c-80.374,0-145.764,65.389-145.764,145.764h30.416c0-45.16,26.092-84.335,63.988-103.261
	c-3.047,5.654-5.992,11.841-8.82,18.576c-11.956,28.472-20.306,63.295-20.306,84.686h30.416c0-14.641,6.285-45.17,17.933-72.91
	c5.711-13.601,11.585-23.744,16.928-30.699v103.609h30.416V42.155c5.343,6.955,11.217,17.098,16.928,30.699
	c11.648,27.74,17.933,58.269,17.933,72.91h30.416c0-21.389-8.349-56.214-20.306-84.686c-2.829-6.735-5.773-12.922-8.82-18.576
	c37.896,18.926,63.988,58.1,63.988,103.261h30.416C401.764,65.389,336.374,0,256,0z"/>
<rect x="37.23" y="145.763" style="fill:#FF9845;" width="218.771" height="145.601"/>
<rect x="7.604" y="130.555" style="fill:#EE2712;" width="496.792" height="30.416"/>
</svg>