<?xml version="1.0" encoding="iso-8859-1"?>
<!-- Uploaded to: SVG Repo, www.svgrepo.com, Generator: SVG Repo Mixer Tools -->
<svg version="1.1" id="Layer_1" xmlns="http://www.w3.org/2000/svg" xmlns:xlink="http://www.w3.org/1999/xlink" 
	 viewBox="0 0 512 512" xml:space="preserve">
<g>
	<rect x="110.387" y="101.042" style="fill:#E4AAA9;" width="293.546" height="294.473"/>
	<polygon style="fill:#E4AAA9;" points="110.384,101.037 145.146,101.037 145.146,100.57 29.273,100.57 110.384,257.012 	"/>
</g>
<g>
	<path style="fill:#E0315B;" d="M403.93,101.037H110.384V73.773c0-32.211,26.112-58.323,58.323-58.323h176.9
		c32.211,0,58.323,26.112,58.323,58.323V101.037z"/>
	<rect x="110.387" y="395.515" style="fill:#E0315B;" width="293.546" height="101.042"/>
</g>
<path d="M267.966,462.55h-67.967c-8.531,0-15.45-6.918-15.45-15.45s6.918-15.45,15.45-15.45h67.967c8.531,0,15.45,6.918,15.45,15.45
	S276.499,462.55,267.966,462.55z"/>
<path d="M314.321,462.548c-1.004,0-2.025-0.093-3.028-0.292c-0.99-0.201-1.964-0.494-2.889-0.881
	c-0.929-0.386-1.823-0.865-2.657-1.421c-0.851-0.572-1.639-1.221-2.35-1.931c-2.889-2.874-4.527-6.86-4.527-10.923
	c0-1.003,0.093-2.024,0.292-3.013c0.201-0.989,0.494-1.962,0.881-2.888c0.386-0.942,0.865-1.839,1.421-2.673
	c0.572-0.85,1.221-1.638,1.931-2.348c0.711-0.711,1.499-1.361,2.35-1.916c0.834-0.556,1.729-1.035,2.657-1.421
	c0.942-0.386,1.899-0.695,2.889-0.881c5.037-1.02,10.351,0.633,13.95,4.218c0.712,0.711,1.361,1.499,1.916,2.348
	c0.556,0.834,1.035,1.73,1.421,2.673c0.386,0.927,0.68,1.899,0.881,2.888c0.201,0.99,0.309,2.01,0.309,3.013
	c0,4.063-1.653,8.049-4.528,10.923c-0.711,0.711-1.499,1.36-2.348,1.931c-0.834,0.556-1.746,1.035-2.673,1.421
	c-0.927,0.386-1.899,0.68-2.888,0.881C316.345,462.456,315.326,462.548,314.321,462.548z"/>
<rect x="218.536" y="154.22" style="fill:#E4AAA9;" width="77.249" height="61.092"/>
<rect x="218.536" y="215.324" style="fill:#B5DDF8;" width="77.249" height="125.468"/>
<path d="M448.269,85.586h-28.888V73.773C419.381,33.095,386.286,0,345.609,0h-176.9c-40.678,0-73.773,33.095-73.773,73.773v11.349
	H29.274c-5.395,0-10.398,2.813-13.202,7.425c-2.801,4.609-2.997,10.347-0.514,15.136l79.378,153.098v134.733V496.55
	c0,8.531,6.918,15.45,15.45,15.45h293.546c8.531,0,15.45-6.918,15.45-15.45V395.515v-60.886h28.888
	c27.519,0,49.906-22.387,49.906-49.906V135.492C498.174,107.974,475.787,85.586,448.269,85.586z M125.834,257.014V116.487h19.312
	c0.011,0,0.02-0.002,0.029-0.002H388.48v263.58H125.834V257.014z M125.834,73.773c0-23.641,19.232-42.873,42.873-42.873h176.9
	c23.641,0,42.873,19.232,42.873,42.873v11.813H148.846c-1.188-0.292-2.423-0.465-3.7-0.465h-19.312L125.834,73.773L125.834,73.773z
	 M54.686,116.022h40.248v77.628L54.686,116.022z M388.48,481.1H125.834v-70.136H388.48V481.1z M467.274,284.723
	c0,10.48-8.527,19.006-19.006,19.006H419.38V116.485h28.888c10.48,0,19.006,8.527,19.006,19.006V284.723z"/>
<path d="M295.782,138.775h-77.249c-8.531,0-15.45,6.918-15.45,15.45v61.092v125.465c0,8.531,6.918,15.45,15.45,15.45h77.249
	c8.531,0,15.45-6.918,15.45-15.45V215.316v-61.092C311.231,145.693,304.314,138.775,295.782,138.775z M233.982,169.674h46.349
	v30.192h-46.349V169.674z M280.332,325.331h-46.349v-94.565h46.349V325.331z"/>
</svg>