<?xml version="1.0" encoding="iso-8859-1"?>
<!-- Uploaded to: SVG Repo, www.svgrepo.com, Generator: SVG Repo Mixer Tools -->
<svg height="800px" width="800px" version="1.1" id="Layer_1" xmlns="http://www.w3.org/2000/svg" xmlns:xlink="http://www.w3.org/1999/xlink" 
	 viewBox="0 0 512 512" xml:space="preserve">
<path style="fill:#666666;" d="M302.479,386.359v19.174c0,51.745-41.94,93.685-93.685,93.685c-51.732,0-93.685-41.94-93.685-93.685
	v-19.174H302.479z"/>
<path d="M392.1,17.561C380.775,6.237,365.711,0,349.686,0c-33.078,0-59.99,26.905-59.99,59.977V93.02
	c0,7.059,5.723,12.783,12.783,12.783c7.06,0,12.783-5.724,12.783-12.783V59.977c0-18.975,15.443-34.411,34.424-34.411
	c9.197,0,17.841,3.578,24.337,10.074c6.505,6.504,10.087,15.148,10.087,24.337v16.016c0,7.059,5.723,12.783,12.783,12.783
	c7.06,0,12.783-5.724,12.783-12.783V59.977C409.675,43.959,403.433,28.894,392.1,17.561z"/>
<path d="M302.478,119.864c-7.06,0-12.783,5.724-12.783,12.783v3.835c0,7.059,5.723,12.783,12.783,12.783
	c7.06,0,12.783-5.724,12.783-12.783v-3.835C315.26,125.587,309.537,119.864,302.478,119.864z"/>
<path d="M302.478,162.047c-7.06,0-12.783,5.724-12.783,12.783v198.747H115.108c-7.06,0-12.783,5.724-12.783,12.783v19.174
	C102.325,464.24,150.086,512,208.793,512S315.26,464.24,315.26,405.534v-19.174V174.83
	C315.26,167.77,309.537,162.047,302.478,162.047z M289.695,405.534c0,44.608-36.293,80.901-80.902,80.901
	s-80.902-36.293-80.902-80.901v-6.391h161.804V405.534z"/>
</svg>