<?xml version="1.0" encoding="iso-8859-1"?>
<!-- Uploaded to: SVG Repo, www.svgrepo.com, Generator: SVG Repo Mixer Tools -->
<svg version="1.1" id="Layer_1" xmlns="http://www.w3.org/2000/svg" xmlns:xlink="http://www.w3.org/1999/xlink" 
	 viewBox="0 0 512 512" xml:space="preserve">
<path style="fill:#666666;" d="M500.416,332.835v55.22c0,10.877-8.815,19.692-19.692,19.692h-60.235v-74.912L500.416,332.835
	L500.416,332.835z"/>
<g>
	<path style="fill:#CCC2B8;" d="M500.416,123.946v208.889h-79.928V104.253h60.235C491.601,104.253,500.416,113.069,500.416,123.946z
		"/>
	<path style="fill:#CCC2B8;" d="M420.489,332.835v74.912H31.276c-10.877,0-19.692-8.815-19.692-19.692V123.946
		c0-10.877,8.815-19.692,19.692-19.692h389.213V332.835z M372.995,359.848V152.152H59.077v207.696H372.995z"/>
</g>
<rect x="59.077" y="152.152" style="fill:#DAEDE2;" width="313.919" height="207.696"/>
<path d="M294.609,163.736h8.885c6.397,0,11.584-5.187,11.584-11.584s-5.187-11.584-11.584-11.584h-8.885
	c-6.397,0-11.584,5.187-11.584,11.584S288.212,163.736,294.609,163.736z"/>
<path d="M372.995,140.568h-30.118c-6.397,0-11.584,5.187-11.584,11.584c0,6.397,5.187,11.584,11.584,11.584h18.534v184.528H70.661
	V163.736h185.336c6.397,0,11.584-5.187,11.584-11.584s-5.187-11.584-11.584-11.584H59.077c-6.397,0-11.584,5.187-11.584,11.584
	v207.696c0,6.397,5.187,11.584,11.584,11.584h313.919c6.397,0,11.584-5.187,11.584-11.584V152.152
	C384.579,145.754,379.392,140.568,372.995,140.568z"/>
<path d="M480.724,92.67h-60.235H31.276C14.03,92.67,0,106.7,0,123.946v264.109C0,405.3,14.03,419.33,31.276,419.33h389.213h60.235
	c17.246,0,31.276-14.03,31.276-31.276v-55.22V123.946C512,106.7,497.97,92.67,480.724,92.67z M488.833,123.946v197.305h-56.76
	V115.837h48.652C485.194,115.837,488.833,119.476,488.833,123.946z M23.167,388.054V123.946c0-4.47,3.638-8.109,8.109-8.109h377.629
	v216.998v63.328H31.276C26.806,396.163,23.167,392.524,23.167,388.054z M488.833,388.054c0,4.47-3.638,8.109-8.109,8.109h-48.652
	v-51.744h56.76V388.054z"/>
<path d="M460.453,184.378c6.397,0,11.584-5.187,11.584-11.584v-9.267c0-6.397-5.187-11.584-11.584-11.584
	c-6.397,0-11.584,5.187-11.584,11.584v9.267C448.869,179.191,454.056,184.378,460.453,184.378z"/>
<path d="M460.453,234.767c6.397,0,11.584-5.187,11.584-11.584v-9.267c0-6.397-5.187-11.584-11.584-11.584
	c-6.397,0-11.584,5.187-11.584,11.584v9.267C448.869,229.58,454.056,234.767,460.453,234.767z"/>
<path d="M460.453,285.156c6.397,0,11.584-5.187,11.584-11.584v-9.267c0-6.397-5.187-11.584-11.584-11.584
	c-6.397,0-11.584,5.187-11.584,11.584v9.267C448.869,279.969,454.056,285.156,460.453,285.156z"/>
</svg>