<?xml version="1.0" encoding="iso-8859-1"?>
<!-- Uploaded to: SVG Repo, www.svgrepo.com, Generator: SVG Repo Mixer Tools -->
<svg version="1.1" id="Layer_1" xmlns="http://www.w3.org/2000/svg" xmlns:xlink="http://www.w3.org/1999/xlink" 
	 viewBox="0 0 511.998 511.998" xml:space="preserve">
<path style="fill:#FBB0AD;" d="M362.304,357.97v51.959h-212.61V357.97l0.9-4.072c12.004,2.666,24.483,4.072,37.289,4.072h136.234
	c12.806,0,25.284-1.406,37.289-4.072L362.304,357.97z"/>
<path style="fill:#FBCDCB;" d="M495.644,174.39v12.053c0,81.92-57.438,150.43-134.239,167.439v0.016
	c-12.004,2.666-24.483,4.072-37.289,4.072H187.882c-12.806,0-25.284-1.406-37.289-4.072v-0.016
	C73.792,336.873,16.355,268.363,16.355,186.443V174.39H495.644z"/>
<rect x="16.355" y="102.069" style="fill:#FBB0AD;" width="479.289" height="72.32"/>
<path d="M495.645,85.715H16.355C7.324,85.715,0,93.037,0,102.069v72.32v12.053c0,43.011,14.909,85.049,41.979,118.373
	c23.673,29.141,55.735,50.577,91.36,61.4v43.713c0,9.033,7.324,16.355,16.355,16.355h212.61c9.031,0,16.355-7.322,16.355-16.355
	v-43.713c35.625-10.824,67.687-32.26,91.36-61.4c27.07-33.323,41.979-75.362,41.979-118.373V174.39v-72.32
	C512,93.037,504.676,85.715,495.645,85.715z M166.049,393.574v-20.523c7.232,0.839,14.528,1.274,21.833,1.274h136.236
	c7.306,0,14.6-0.435,21.833-1.274v20.523H166.049z M357.869,337.915c-0.227,0.051-0.45,0.105-0.672,0.164
	c-10.797,2.349-21.922,3.539-33.081,3.539H187.882c-11.157,0-22.283-1.191-33.081-3.538c-0.222-0.059-0.445-0.115-0.672-0.165
	c-70.354-15.581-121.42-79.284-121.42-151.472V174.39v-55.966h446.581v39.611H124.344c-9.031,0-16.355,7.322-16.355,16.355
	c0,9.033,7.324,16.355,16.355,16.355h354.884C477.25,261.149,426.825,322.643,357.869,337.915z"/>
<path d="M75.145,158.035h-7.633c-9.031,0-16.355,7.322-16.355,16.355c0,9.033,7.324,16.355,16.355,16.355h7.633
	c9.031,0,16.355-7.322,16.355-16.355C91.499,165.357,84.177,158.035,75.145,158.035z"/>
</svg>