<?xml version="1.0" encoding="iso-8859-1"?>
<!-- Uploaded to: SVG Repo, www.svgrepo.com, Generator: SVG Repo Mixer Tools -->
<svg version="1.1" id="Layer_1" xmlns="http://www.w3.org/2000/svg" xmlns:xlink="http://www.w3.org/1999/xlink" 
	 viewBox="0 0 512 512" xml:space="preserve">
<path style="fill:#E1EAF6;" d="M444.861,168.643v302.598h-45.603H112.737H67.145V168.643H444.861z M399.258,426.729V258.461H112.737
	v168.268H399.258z"/>
<path style="fill:#9DA6BA;" d="M444.861,50.219v118.424H67.145V50.219h42.192h122.574h48.184h122.574H444.861z M399.258,110.375
	c0-11.767-9.539-21.306-21.306-21.306c-11.767,0-21.306,9.539-21.306,21.306s9.539,21.306,21.306,21.306
	C389.719,131.681,399.258,122.142,399.258,110.375z M317.955,110.375c0-11.767-9.539-21.306-21.306-21.306
	c-11.767,0-21.306,9.539-21.306,21.306s9.539,21.306,21.306,21.306C308.416,131.681,317.955,122.142,317.955,110.375z
	 M236.652,110.375c0-11.767-9.539-21.306-21.306-21.306s-21.306,9.539-21.306,21.306s9.539,21.306,21.306,21.306
	S236.652,122.142,236.652,110.375z M155.349,110.375c0-11.767-9.539-21.306-21.306-21.306c-11.767,0-21.306,9.539-21.306,21.306
	s9.539,21.306,21.306,21.306C145.81,131.681,155.349,122.142,155.349,110.375z"/>
<g>
	<polygon style="fill:#5A5D6F;" points="389.719,11.369 402.669,50.219 280.095,50.219 293.044,11.369 	"/>
	<rect x="112.739" y="258.461" style="fill:#5A5D6F;" width="286.521" height="168.268"/>
	<circle style="fill:#5A5D6F;" cx="377.954" cy="110.375" r="21.306"/>
	<circle style="fill:#5A5D6F;" cx="296.651" cy="110.375" r="21.306"/>
	<polygon style="fill:#5A5D6F;" points="218.961,11.369 231.911,50.219 109.337,50.219 122.287,11.369 	"/>
	<circle style="fill:#5A5D6F;" cx="215.348" cy="110.375" r="21.306"/>
	<circle style="fill:#5A5D6F;" cx="134.045" cy="110.375" r="21.306"/>
</g>
<path d="M456.23,471.241V50.219c0-6.279-5.09-11.369-11.369-11.369h-33.998L400.505,7.774C398.958,3.131,394.612,0,389.719,0
	h-96.674c-4.893,0-9.238,3.131-10.786,7.774L271.9,38.849h-31.795L229.746,7.774C228.199,3.131,223.855,0,218.96,0h-96.674
	c-4.893,0-9.238,3.131-10.786,7.774l-10.358,31.075H67.145c-6.279,0-11.369,5.09-11.369,11.369v118.304
	c0,0.041-0.006,0.081-0.006,0.122s0.006,0.08,0.006,0.121v302.476c0,6.279,5.09,11.369,11.369,11.369h34.222v18.021
	c0,6.279,5.09,11.369,11.369,11.369c6.279,0,11.369-5.09,11.369-11.369V482.61h263.782v18.021c0,6.279,5.09,11.369,11.369,11.369
	s11.369-5.09,11.369-11.369V482.61h34.233C451.14,482.61,456.23,477.52,456.23,471.241z M301.238,22.739h80.285l5.37,16.11h-91.026
	L301.238,22.739z M130.481,22.739h80.285l5.37,16.11h-91.025L130.481,22.739z M109.336,61.588H231.91h48.184h122.574h30.823v95.685
	H78.515V61.588H109.336z M78.515,459.871V180.012h354.977v279.859L78.515,459.871L78.515,459.871z"/>
<path d="M352.353,269.831c6.279,0,11.369-5.09,11.369-11.369c0-6.279-5.09-11.369-11.369-11.369h-3.127
	c-6.279,0-11.369,5.09-11.369,11.369c0,6.279,5.09,11.369,11.369,11.369H352.353z"/>
<path d="M399.257,247.092H383.76c-6.279,0-11.369,5.09-11.369,11.369c0,6.279,5.09,11.369,11.369,11.369h4.127V415.36H124.105
	V269.831h192.86c6.279,0,11.369-5.09,11.369-11.369c0-6.279-5.09-11.369-11.369-11.369H112.737c-6.279,0-11.369,5.09-11.369,11.369
	v168.268c0,6.279,5.09,11.369,11.369,11.369h286.521c6.279,0,11.369-5.09,11.369-11.369V258.462
	C410.626,252.182,405.536,247.092,399.257,247.092z"/>
<path d="M399.257,203.32h-286.52c-6.279,0-11.369,5.09-11.369,11.369s5.09,11.369,11.369,11.369h286.521
	c6.279,0,11.369-5.09,11.369-11.369S405.536,203.32,399.257,203.32z"/>
<path d="M134.042,143.05c18.018,0,32.676-14.659,32.676-32.676c0-6.279-5.09-11.369-11.369-11.369s-11.369,5.09-11.369,11.369
	c0,5.479-4.458,9.937-9.937,9.937c-5.479,0-9.937-4.457-9.937-9.937c0-5.48,4.457-9.937,9.937-9.937
	c6.279,0,11.369-5.09,11.369-11.369c0-6.279-5.09-11.369-11.369-11.369c-18.017,0-32.676,14.659-32.676,32.676
	S116.025,143.05,134.042,143.05z"/>
<path d="M215.346,143.05c18.017,0,32.676-14.659,32.676-32.676c0-6.279-5.09-11.369-11.369-11.369
	c-6.279,0-11.369,5.09-11.369,11.369c0,5.479-4.457,9.937-9.937,9.937c-5.48,0-9.937-4.457-9.937-9.937
	c0-5.48,4.458-9.937,9.937-9.937c6.279,0,11.369-5.09,11.369-11.369c0-6.279-5.09-11.369-11.369-11.369
	c-18.017,0-32.676,14.659-32.676,32.676S197.329,143.05,215.346,143.05z"/>
<path d="M296.647,143.05c18.017,0,32.676-14.659,32.676-32.676c0-6.279-5.09-11.369-11.369-11.369
	c-6.279,0-11.369,5.09-11.369,11.369c0,5.479-4.458,9.937-9.937,9.937s-9.937-4.457-9.937-9.937c0-5.48,4.457-9.937,9.937-9.937
	c6.279,0,11.369-5.09,11.369-11.369c0-6.279-5.09-11.369-11.369-11.369c-18.017,0-32.676,14.659-32.676,32.676
	S278.63,143.05,296.647,143.05z"/>
<path d="M377.951,143.05c18.017,0,32.676-14.659,32.676-32.676c0-6.279-5.09-11.369-11.369-11.369s-11.369,5.09-11.369,11.369
	c0,5.479-4.457,9.937-9.937,9.937s-9.937-4.457-9.937-9.937c0-5.48,4.458-9.937,9.937-9.937c6.279,0,11.369-5.09,11.369-11.369
	c0-6.279-5.09-11.369-11.369-11.369c-18.018,0-32.676,14.659-32.676,32.676S359.933,143.05,377.951,143.05z"/>
</svg>