<?xml version="1.0" encoding="iso-8859-1"?>
<!-- Uploaded to: SVG Repo, www.svgrepo.com, Generator: SVG Repo Mixer Tools -->
<svg version="1.1" id="Layer_1" xmlns="http://www.w3.org/2000/svg" xmlns:xlink="http://www.w3.org/1999/xlink" 
	 viewBox="0 0 511.999 511.999" xml:space="preserve">
<g>
	<path style="fill:#074761;" d="M61.728,135.258h212.96c26.343,0,47.7,21.355,47.7,47.7v32.13H14.027v-32.13
		C14.027,156.614,35.383,135.258,61.728,135.258z"/>
	<rect x="322.392" y="250.641" style="fill:#074761;" width="57.284" height="57.284"/>
</g>
<path style="fill:#509ED9;" d="M469.331,307.918h-89.66v-57.284h89.66c15.819,0,28.641,12.824,28.641,28.641l0,0
	C497.973,295.094,485.149,307.918,469.331,307.918z"/>
<path style="fill:#B5DDF8;" d="M267.909,426.658H68.504c-30.087,0-54.477-24.391-54.477-54.477V215.088h308.359v157.093
	C322.386,402.267,297.997,426.658,267.909,426.658z"/>
<path d="M70.838,293.896c-0.912,0-1.838-0.098-2.735-0.281c-0.898-0.182-1.781-0.449-2.623-0.8c-0.856-0.351-1.669-0.786-2.427-1.29
	c-0.772-0.504-1.487-1.094-2.132-1.739c-2.609-2.622-4.11-6.227-4.11-9.916c0-0.926,0.098-1.839,0.281-2.749
	c0.182-0.899,0.449-1.783,0.8-2.623c0.351-0.843,0.786-1.655,1.291-2.413c0.505-0.773,1.094-1.488,1.739-2.134
	c0.645-0.659,1.361-1.234,2.132-1.753c0.757-0.505,1.571-0.94,2.427-1.291c0.842-0.351,1.725-0.617,2.623-0.8
	c1.81-0.365,3.675-0.365,5.485,0c0.898,0.182,1.781,0.449,2.623,0.8c0.842,0.351,1.655,0.786,2.427,1.291
	c0.757,0.519,1.473,1.094,2.118,1.753c0.659,0.645,1.234,1.361,1.753,2.134c0.505,0.757,0.94,1.57,1.291,2.413
	c0.351,0.842,0.617,1.724,0.8,2.623c0.182,0.91,0.267,1.824,0.267,2.749c0,3.689-1.487,7.294-4.11,9.916
	C78.147,292.393,74.542,293.896,70.838,293.896z"/>
<rect x="120.986" y="85.339" style="fill:#509ED9;" width="94.446" height="49.919"/>
<path d="M469.331,236.606h-89.66h-43.256v-21.518v-32.13c0-34.037-27.691-61.728-61.728-61.728H229.46V99.368h14.144
	c7.747,0,14.027-6.281,14.027-14.027s-6.28-14.027-14.027-14.027h-28.171h-94.451H92.809c-7.747,0-14.027,6.281-14.027,14.027
	s6.28,14.027,14.027,14.027h14.144v21.863H61.726C27.69,121.231,0,148.921,0,182.959v32.13V372.18
	c0,37.774,30.731,68.506,68.504,68.506h199.405c37.773,0,68.504-30.731,68.504-68.506v-50.236h43.256h89.66
	c23.528,0,42.669-19.142,42.669-42.669C512,255.747,492.858,236.606,469.331,236.606z M135.009,99.368h66.396v21.863h-66.396V99.368
	z M28.055,182.959c0-18.567,15.106-33.673,33.671-33.673h59.255h94.451h59.255c18.567,0,33.673,15.106,33.673,33.673v18.102H28.055
	V182.959z M308.359,372.18c0,22.304-18.146,40.451-40.449,40.451H68.504c-22.304,0-40.449-18.147-40.449-40.451V229.116h280.304
	v21.518v15.201H112.925c-7.747,0-14.027,6.281-14.027,14.027s6.28,14.027,14.027,14.027h195.434v14.027L308.359,372.18
	L308.359,372.18z M365.642,293.89h-29.229v-29.229h29.229V293.89z M469.331,293.89h-75.633v-29.229h75.633
	c8.059,0,14.614,6.556,14.614,14.615C483.945,287.334,477.389,293.89,469.331,293.89z"/>
</svg>