<?xml version="1.0" encoding="iso-8859-1"?>
<!-- Uploaded to: SVG Repo, www.svgrepo.com, Generator: SVG Repo Mixer Tools -->
<svg height="800px" width="800px" version="1.1" id="Layer_1" xmlns="http://www.w3.org/2000/svg" xmlns:xlink="http://www.w3.org/1999/xlink" 
	 viewBox="0 0 512 512" xml:space="preserve">
<path d="M497.898,224.311c-0.917,0-1.849-0.097-2.75-0.281c-0.904-0.185-1.792-0.451-2.637-0.804
	c-0.86-0.353-1.678-0.791-2.44-1.297c-0.776-0.508-1.495-1.1-2.144-1.749c-0.649-0.649-1.241-1.368-1.749-2.144
	c-0.508-0.762-0.945-1.579-1.297-2.44c-0.353-0.846-0.621-1.733-0.804-2.637c-0.183-0.903-0.281-1.833-0.281-2.75
	c0-0.915,0.097-1.847,0.281-2.764c0.183-0.888,0.451-1.777,0.804-2.637c0.353-0.846,0.79-1.664,1.297-2.426
	c0.508-0.776,1.1-1.495,1.749-2.144c0.649-0.649,1.368-1.241,2.144-1.763c0.762-0.508,1.579-0.945,2.44-1.297
	c0.846-0.353,1.733-0.62,2.637-0.804c4.568-0.931,9.449,0.578,12.72,3.864c0.649,0.649,1.241,1.368,1.763,2.144
	c0.508,0.762,0.945,1.579,1.297,2.426c0.353,0.86,0.621,1.749,0.804,2.637c0.183,0.917,0.268,1.849,0.268,2.764
	c0,3.71-1.509,7.347-4.133,9.97c-0.649,0.649-1.368,1.241-2.144,1.749c-0.762,0.506-1.579,0.945-2.427,1.297
	c-0.859,0.353-1.747,0.619-2.651,0.804C499.744,224.213,498.813,224.311,497.898,224.311z"/>
<path d="M14.102,224.311c-0.917,0-1.847-0.097-2.764-0.281c-0.888-0.185-1.777-0.451-2.637-0.804
	c-0.846-0.353-1.664-0.791-2.426-1.297c-0.776-0.508-1.495-1.1-2.144-1.749s-1.241-1.368-1.763-2.144
	c-0.508-0.762-0.945-1.579-1.297-2.44c-0.338-0.846-0.621-1.733-0.79-2.637C0.099,212.058,0,211.127,0,210.21
	c0-0.915,0.099-1.847,0.282-2.764c0.169-0.888,0.451-1.777,0.79-2.637c0.353-0.846,0.79-1.664,1.297-2.426
	c0.522-0.776,1.114-1.495,1.763-2.144c2.623-2.637,6.261-4.133,9.97-4.133s7.347,1.496,9.97,4.133
	c0.649,0.649,1.241,1.368,1.749,2.144c0.508,0.762,0.945,1.579,1.297,2.426c0.353,0.86,0.621,1.749,0.804,2.637
	c0.183,0.917,0.282,1.849,0.282,2.764c0,0.917-0.099,1.849-0.282,2.75c-0.183,0.904-0.451,1.792-0.804,2.637
	c-0.353,0.86-0.79,1.678-1.297,2.44c-0.508,0.776-1.1,1.495-1.749,2.144C21.45,222.802,17.811,224.311,14.102,224.311z"/>
<path style="fill:#B2D299;" d="M373.84,465.419H138.159c-23.104,0-42.198-18.02-43.537-41.084l-0.439-247.233h323.63l-0.439,247.233
	C416.039,447.4,396.945,465.419,373.84,465.419z"/>
<path style="fill:#33895C;" d="M420.195,176.898H91.805v-43.941c0-23.301,18.889-42.19,42.19-42.19h244.012
	c23.301,0,42.19,18.889,42.19,42.19v43.941H420.195z"/>
<path d="M472.459,222.382c-3.363-7.026-11.784-10-18.808-6.631l-21.822,10.444l0.061-34.362h6.734
	c7.787,0,14.102-6.315,14.102-14.102s-6.315-14.102-14.102-14.102h-4.327v-30.673c0-31.041-25.252-56.292-56.292-56.292H270.102
	V60.682h34.786c7.787,0,14.102-6.315,14.102-14.102s-6.315-14.102-14.102-14.102h-97.776c-7.789,0-14.102,6.315-14.102,14.102
	s6.314,14.102,14.102,14.102h34.786v15.982H133.993c-31.039,0-56.292,25.252-56.292,56.292v30.673h-4.327
	c-7.789,0-14.102,6.315-14.102,14.102c0,7.787,6.314,14.102,14.102,14.102h6.734l0.061,34.362l-21.821-10.444
	c-7.023-3.365-15.446-0.393-18.808,6.631c-3.362,7.024-0.393,15.446,6.632,18.808l34.053,16.301l0.296,166.867
	c0,0.265,0.008,0.529,0.024,0.793c1.768,30.488,27.076,54.371,57.615,54.371h235.682c30.539,0,55.847-23.884,57.614-54.371
	c0.016-0.265,0.024-0.527,0.024-0.793l0.296-166.867l34.054-16.301C472.853,237.83,475.822,229.408,472.459,222.382z
	 M105.907,132.957c0-15.487,12.6-28.088,28.088-28.088h244.012c15.487,0,28.088,12.6,28.088,28.088v29.839H105.907V132.957z
	 M373.841,451.316H138.159c-15.494,0-28.354-12.025-29.436-27.442L108.44,263.05h185.632c7.787,0,14.102-6.315,14.102-14.102
	c0-7.787-6.315-14.102-14.102-14.102H108.389l-0.076-43.012h295.373l-0.41,232.041C402.195,439.293,389.335,451.316,373.841,451.316
	z"/>
<path d="M336.382,263.05c-0.917,0-1.849-0.099-2.764-0.282c-0.904-0.183-1.777-0.451-2.637-0.804
	c-0.848-0.353-1.664-0.79-2.44-1.297c-0.762-0.508-1.481-1.1-2.144-1.749c-0.649-0.649-1.227-1.368-1.749-2.144
	c-0.508-0.762-0.945-1.579-1.297-2.426c-0.353-0.86-0.62-1.749-0.804-2.653c-0.183-0.903-0.281-1.833-0.281-2.749
	c0-3.709,1.508-7.347,4.132-9.97c0.663-0.649,1.381-1.241,2.144-1.749c0.777-0.506,1.594-0.945,2.44-1.297
	c0.86-0.353,1.733-0.635,2.637-0.804c1.819-0.367,3.695-0.381,5.514,0c0.903,0.169,1.791,0.451,2.636,0.804
	c0.848,0.353,1.665,0.791,2.44,1.297c0.776,0.508,1.495,1.1,2.144,1.749c2.623,2.623,4.133,6.261,4.133,9.97
	c0,0.915-0.099,1.847-0.282,2.749c-0.183,0.904-0.451,1.792-0.804,2.653c-0.353,0.846-0.79,1.664-1.297,2.426
	c-0.506,0.776-1.099,1.495-1.749,2.144c-0.649,0.649-1.368,1.241-2.144,1.749c-0.762,0.508-1.594,0.945-2.44,1.297
	c-0.846,0.353-1.733,0.621-2.636,0.804C338.23,262.952,337.299,263.05,336.382,263.05z"/>
</svg>