<?xml version="1.0" encoding="iso-8859-1"?>
<!-- Uploaded to: SVG Repo, www.svgrepo.com, Generator: SVG Repo Mixer Tools -->
<svg height="800px" width="800px" version="1.1" id="Layer_1" xmlns="http://www.w3.org/2000/svg" xmlns:xlink="http://www.w3.org/1999/xlink" 
	 viewBox="0 0 512 512" xml:space="preserve">
<g>
	<path style="fill:#DBB67E;" d="M219.082,144.941l207.674,207.674c10.548,10.548,10.548,27.635,0,38.183l-34.566,34.566
		l-1.391,1.391c-10.548,10.548-27.635,10.548-38.183,0l-267.37-267.37c-10.548-10.548-10.548-27.635,0-38.183l1.391-1.391
		l33.175-33.175l1.391-1.391c10.548-10.548,27.635-10.548,38.183,0l5.075,5.075"/>
</g>
<g>
	<path style="fill:#A3875E;" d="M119.811,86.636L86.636,119.81L18.453,51.614c-7.74-7.74-7.74-20.287,0-28.027l5.135-5.135
		c7.74-7.74,20.287-7.74,28.027,0L119.811,86.636z"/>
	<path style="fill:#A3875E;" d="M493.547,488.412l-5.135,5.135c-7.74,7.74-20.287,7.74-28.027,0l-68.196-68.183l33.175-33.175
		l68.183,68.196C501.288,468.125,501.288,480.671,493.547,488.412z"/>
</g>
<path d="M184.207,127.954c2.47,2.469,5.707,3.704,8.943,3.704s6.474-1.236,8.943-3.704c4.939-4.939,4.939-12.947,0-17.887
	l-2.736-2.736c-4.939-4.938-12.947-4.938-17.887,0c-4.939,4.939-4.939,12.947,0,17.887L184.207,127.954z"/>
<path d="M512,474.398c0-8.671-3.377-16.825-9.51-22.955l-60.272-60.284c3.319-5.872,5.096-12.524,5.096-19.452
	c0-10.589-4.126-20.545-11.616-28.036L228.025,135.999c-4.939-4.938-12.947-4.938-17.887,0c-4.939,4.939-4.939,12.947,0,17.887
	l207.674,207.672c2.713,2.713,4.208,6.317,4.208,10.148c0,3.831-1.494,7.436-4.208,10.147l-35.957,35.957
	c-5.594,5.597-14.7,5.599-20.297,0L94.189,150.441c-2.713-2.713-4.208-6.317-4.208-10.148c0-3.831,1.494-7.436,4.208-10.147
	l35.957-35.957c5.595-5.598,14.7-5.598,20.297,0l5.074,5.075c4.939,4.938,12.947,4.938,17.887,0c4.939-4.939,4.939-12.947,0-17.887
	l-5.075-5.075c-12.842-12.841-32.372-15.005-47.478-6.51L60.558,9.509C47.899-3.148,27.304-3.15,14.645,9.511L9.51,14.645
	C3.377,20.777,0,28.93,0,37.602s3.377,16.825,9.51,22.955l60.272,60.284c-3.319,5.872-5.096,12.524-5.096,19.452
	c0,10.589,4.126,20.545,11.616,28.036l267.37,267.369c7.73,7.729,17.882,11.594,28.036,11.594
	c6.715-0.001,13.427-1.702,19.441-5.084l60.294,60.284c6.329,6.329,14.642,9.493,22.955,9.493s16.628-3.164,22.957-9.495
	l5.135-5.136v0.001C508.623,491.223,512,483.069,512,474.398z M27.397,32.53l5.135-5.135c1.398-1.398,3.234-2.097,5.07-2.097
	c1.836,0,3.673,0.701,5.072,2.097l59.251,59.241l-15.29,15.287L27.397,42.671C24.601,39.876,24.601,35.327,27.397,32.53z
	 M484.604,479.469L484.604,479.469l-5.135,5.136c-2.796,2.798-7.346,2.793-10.142,0l-59.251-59.241l15.287-15.287l59.24,59.253
	C487.4,472.123,487.4,476.674,484.604,479.469z"/>
</svg>