<?xml version="1.0" encoding="iso-8859-1"?>
<!-- Uploaded to: SVG Repo, www.svgrepo.com, Generator: SVG Repo Mixer Tools -->
<svg height="800px" width="800px" version="1.1" id="Layer_1" xmlns="http://www.w3.org/2000/svg" xmlns:xlink="http://www.w3.org/1999/xlink" 
	 viewBox="0 0 512 512" xml:space="preserve">
<path style="fill:#CCC2B8;" d="M204.709,270.159v-52.041h293.896v101.484c0,40.32-32.685,73.005-73.018,73.005H277.727
	c-40.32,0-73.018-32.685-73.018-73.005V270.159z"/>
<path style="fill:#B3B3B3;" d="M498.605,218.118H204.709c0.576-0.442,1.366-1.031,2.331-1.741
	c42.892-31.399,93.554-47.112,144.282-47.112c48.545,0,97.144,14.387,139.058,43.2L498.605,218.118z"/>
<polygon style="fill:#666666;" points="376.921,119.393 376.921,169.265 351.322,169.265 326.393,169.265 326.393,119.393 "/>
<path style="fill:#B3B3B3;" d="M204.709,218.118v52.041H39.423c-7.18,0-13.69-2.907-18.405-7.622
	c-4.715-4.715-7.622-11.225-7.622-18.405c0-14.36,11.654-26.014,26.027-26.014L204.709,218.118L204.709,218.118z"/>
<path d="M511.995,218.017c-0.003-0.418-0.021-0.833-0.063-1.247c-0.007-0.062-0.019-0.121-0.025-0.182
	c-0.039-0.335-0.088-0.668-0.153-0.999c-0.031-0.165-0.07-0.326-0.107-0.488c-0.052-0.224-0.108-0.446-0.171-0.667
	c-0.051-0.177-0.102-0.352-0.159-0.526c-0.07-0.212-0.15-0.421-0.23-0.63c-0.063-0.161-0.119-0.323-0.188-0.48
	c-0.147-0.342-0.309-0.678-0.485-1.007c-0.06-0.113-0.129-0.22-0.193-0.33c-0.137-0.238-0.276-0.474-0.427-0.703
	c-0.079-0.119-0.162-0.236-0.245-0.352c-0.151-0.216-0.309-0.427-0.474-0.635c-0.086-0.107-0.173-0.214-0.261-0.319
	c-0.18-0.212-0.368-0.418-0.563-0.619c-0.086-0.088-0.167-0.178-0.255-0.265c-0.229-0.225-0.47-0.442-0.717-0.651
	c-0.06-0.052-0.118-0.109-0.18-0.159c-0.291-0.237-0.592-0.466-0.906-0.682l-0.082-0.056c-0.009-0.007-0.019-0.013-0.028-0.019
	l-8.114-5.577c-32.517-22.354-69.174-36.804-107.652-42.631v-39.401c0-7.397-5.997-13.395-13.395-13.395h-50.528
	c-7.398,0-13.395,5.998-13.395,13.395v39.302c-40.584,6.023-78.962,21.628-112.69,46.027H39.423C17.685,204.722,0,222.4,0,244.132
	c0,10.533,4.1,20.433,11.544,27.877c7.445,7.447,17.346,11.547,27.879,11.547h151.891v36.047c0,47.641,38.765,86.4,86.414,86.4
	h147.859c47.649,0,86.414-38.76,86.414-86.4V218.118C512,218.084,511.995,218.051,511.995,218.017z M339.788,155.869v-23.08h23.737
	v23.08H339.788z M351.322,182.66c34.47,0,68.047,7.554,98.803,22.062h-197.51C283.242,190.204,316.725,182.66,351.322,182.66z
	 M30.489,253.064c-2.386-2.384-3.698-5.556-3.698-8.932c0-6.958,5.666-12.618,12.632-12.618h151.891v25.252H39.423
	C36.047,256.764,32.875,255.451,30.489,253.064z M425.586,379.211H277.727c-32.876,0-59.623-26.741-59.623-59.61v-36.047h88.946
	c7.398,0,13.395-5.998,13.395-13.395c0-7.397-5.997-13.395-13.395-13.395h-88.946v-25.25h267.105v88.09
	C485.209,352.47,458.462,379.211,425.586,379.211z"/>
<path d="M352.246,256.764h-5.452c-7.398,0-13.395,5.998-13.395,13.395c0,7.397,5.997,13.395,13.395,13.395h5.452
	c7.398,0,13.395-5.998,13.395-13.395C365.642,262.762,359.644,256.764,352.246,256.764z"/>
</svg>