<?xml version="1.0" encoding="iso-8859-1"?>
<!-- Uploaded to: SVG Repo, www.svgrepo.com, Generator: SVG Repo Mixer Tools -->
<svg height="800px" width="800px" version="1.1" id="Layer_1" xmlns="http://www.w3.org/2000/svg" xmlns:xlink="http://www.w3.org/1999/xlink" 
	 viewBox="0 0 512.002 512.002" xml:space="preserve">
<g>
	<path style="fill:#AFAFAF;" d="M340.542,253.953c-0.085-1.024-0.256-1.962-0.427-2.986c-0.427-2.56-0.939-5.119-1.621-7.679
		c-9.471-36.774-42.832-64.078-82.508-64.078c-39.761,0-73.122,27.303-82.508,64.163c-0.683,2.474-1.195,4.949-1.621,7.423
		c-0.171,1.109-0.341,2.133-0.512,3.242c-0.427,3.413-0.683,6.826-0.683,10.239v0.256c0,47.013,38.31,85.323,85.323,85.323
		s85.323-38.31,85.323-85.323C341.31,260.95,341.054,257.451,340.542,253.953z M255.987,307.195
		c-23.549,0-42.662-19.112-42.662-42.662c0-23.549,19.112-42.662,42.662-42.662s42.662,19.112,42.662,42.662
		C298.648,288.082,279.536,307.195,255.987,307.195z"/>
	<path style="fill:#AFAFAF;" d="M494.892,81.685L348.136,220.25c-8.191-16.979-20.819-31.399-36.518-41.552L479.961,18.29
		C485.251,23.495,494.465,44.996,494.892,81.685z"/>
	<path style="fill:#AFAFAF;" d="M200.356,178.698c-15.7,10.153-28.327,24.573-36.518,41.552L17.081,81.941
		c0-17.747,2.474-35.153,6.826-48.037c3.072-9.044,6.229-13.481,8.276-15.444L200.356,178.698z"/>
</g>
<path d="M465.712,399.429l-28.754-31.57c-17.491-19.112-47.184-20.478-66.296-3.072c-9.215,8.362-14.676,19.966-15.273,32.508
	c-0.512,12.543,3.754,24.573,12.201,33.788l28.669,31.484c8.447,9.3,19.966,14.676,32.508,15.273h2.304
	c11.689,0,22.867-4.266,31.484-12.116C481.752,448.234,483.117,418.542,465.712,399.429z M451.121,453.098
	c-5.887,5.29-13.566,8.106-21.501,7.679c-8.02-0.341-15.358-3.84-20.734-9.642l-28.669-31.57
	c-5.375-5.887-8.106-13.481-7.764-21.501c0.427-8.02,3.84-15.358,9.727-20.648c5.717-5.205,12.884-7.764,20.051-7.764
	c8.106,0,16.211,3.242,22.099,9.727l28.754,31.484C464.176,423.064,463.237,442.006,451.121,453.098z"/>
<path d="M141.312,364.703c-19.198-17.406-48.89-15.955-66.296,3.157l-28.754,31.57c-17.406,19.112-15.955,48.89,3.157,66.296
	c8.959,8.191,20.307,12.201,31.57,12.201c12.713,0,25.426-5.205,34.727-15.358l28.669-31.57
	C161.79,411.887,160.424,382.194,141.312,364.703z M131.756,419.566l-28.669,31.57c-11.092,12.116-30.034,13.054-42.235,1.962
	c-12.116-11.092-13.054-30.034-1.962-42.235l28.754-31.484c5.887-6.485,13.908-9.812,22.099-9.812c7.167,0,14.334,2.56,20.051,7.764
	C141.995,388.423,142.848,407.364,131.756,419.566z"/>
<path d="M511.957,85.354v-0.939c0-40.699-10.665-84.385-34.129-84.385c-2.218,0-4.266,0.853-5.887,2.389L295.747,170.165
	c-12.201-5.119-25.682-8.02-39.761-8.02s-27.559,2.901-39.761,8.02L40.033,2.42c-1.621-1.536-3.498-2.304-5.973-2.389
	c-7.679,0.085-18.43,5.119-26.28,28.413c-5.29,15.529-8.02,35.495-7.764,56.399v0.939c0.085,2.304,1.024,4.522,2.73,6.143
	c0,0,154.179,145.135,154.521,145.306c-0.597,2.218-1.109,4.437-1.536,6.655c-0.085,0.085-0.085,0.171-0.085,0.256
	c-0.597,2.901-1.024,5.887-1.365,8.788c-0.085,0.768-0.171,1.451-0.171,2.218c-0.341,3.072-0.512,6.229-0.512,9.386
	c0,14.078,2.816,27.474,8.02,39.675l-20.648,20.563c-10.921-4.522-22.867-6.741-35.068-6.229
	c-21.672,1.024-41.638,10.409-56.143,26.365l-28.754,31.57C6.501,392.433-0.922,413.167,0.102,434.839s10.409,41.552,26.365,56.143
	c14.932,13.566,34.129,20.99,54.351,20.99c1.365,0,2.645,0,4.01-0.085c21.672-1.024,41.552-10.409,56.143-26.365l28.669-31.484
	c14.505-16.041,21.928-36.689,20.904-58.447c-0.597-12.543-4.01-24.488-9.898-35.153l13.14-13.054
	c0.341-0.341,0.427-0.768,0.683-1.195c17.15,12.969,38.396,20.734,61.518,20.734c11.519,0,22.611-1.962,32.935-5.461
	c10.409-3.584,19.966-8.788,28.498-15.273c0.341,0.427,0.427,0.853,0.768,1.195l13.14,13.054
	c-5.887,10.665-9.386,22.696-9.983,35.239c-1.024,21.757,6.485,42.406,20.99,58.361l28.754,31.57
	c14.505,15.955,34.471,25.256,56.143,26.28c1.28,0.085,2.56,0.085,3.84,0.085c20.307,0,39.505-7.423,54.522-21.075
	c33.02-30.119,35.409-81.484,5.29-114.504l-28.669-31.484c-23.72-26.024-60.494-32.935-91.211-20.136l-20.648-20.563
	c5.205-12.201,8.02-25.597,8.02-39.675c0-4.266-0.341-8.532-0.853-12.713c-0.171-1.195-0.341-2.304-0.597-3.498
	c-0.512-3.157-1.109-6.314-1.877-9.386c-0.171-0.512-0.256-1.109-0.427-1.706c0.341-0.171,154.691-145.647,154.691-145.647
	C511.018,89.961,511.957,87.743,511.957,85.354z M17.081,81.941c0-17.747,2.474-35.153,6.826-48.037
	c3.072-9.044,6.229-13.481,8.276-15.444l168.172,160.237c-15.7,10.153-28.327,24.573-36.518,41.552L17.081,81.941z M157.012,442.518
	l-28.669,31.57c-11.519,12.543-27.218,19.966-44.368,20.734s-33.447-5.034-46.075-16.467
	c-12.543-11.519-19.966-27.218-20.734-44.368c-0.853-17.065,5.034-33.447,16.467-46.075l28.754-31.57
	c11.433-12.543,27.133-19.88,44.283-20.734c1.024,0,2.133-0.085,3.157-0.085c15.955,0,31.143,5.802,42.918,16.553
	c12.628,11.519,19.966,27.218,20.819,44.368C174.332,413.593,168.445,429.89,157.012,442.518z M181.67,335.266l-10.921,10.921
	c-2.048-2.304-4.181-4.607-6.485-6.655c-2.474-2.304-5.034-4.266-7.764-6.143l13.481-13.481c3.498,5.461,7.508,10.495,12.031,15.188
	C181.926,335.181,181.755,335.181,181.67,335.266z M255.987,349.857c-47.013,0-85.323-38.31-85.323-85.323v-0.256
	c0-3.413,0.256-6.826,0.683-10.239c0.171-1.109,0.341-2.133,0.512-3.242c0.427-2.474,0.939-4.949,1.621-7.423
	c9.386-36.86,42.747-64.163,82.508-64.163c39.675,0,73.037,27.303,82.508,64.078c0.683,2.56,1.195,5.119,1.621,7.679
	c0.171,1.024,0.341,1.962,0.427,2.986c0.512,3.498,0.768,6.997,0.768,10.58C341.31,311.546,303,349.857,255.987,349.857z
	 M402.231,335.522c17.406,0,34.727,6.996,47.354,20.819l28.669,31.57c23.805,26.109,21.928,66.638-4.181,90.357
	c-12.543,11.519-28.925,17.321-46.075,16.553s-32.849-8.106-44.283-20.734l-28.754-31.484
	c-11.433-12.628-17.321-29.01-16.553-46.075c0.768-17.15,8.191-32.935,20.734-44.368
	C371.429,340.983,386.873,335.522,402.231,335.522z M355.388,333.389c-2.645,1.877-5.29,3.925-7.764,6.143
	c-2.304,2.133-4.437,4.351-6.399,6.655l-10.921-10.921c-0.085-0.085-0.256-0.085-0.341-0.171c4.437-4.693,8.532-9.727,12.031-15.188
	L355.388,333.389z M348.136,220.25c-8.191-16.979-20.819-31.399-36.518-41.552L479.961,18.29
	c5.29,5.205,14.505,26.706,14.932,63.395L348.136,220.25z"/>
<g>
	<path style="fill:#CC004E;" d="M355.388,333.389c-2.645,1.877-5.29,3.925-7.764,6.143c-2.304,2.133-4.437,4.351-6.399,6.655
		l-10.921-10.921c-0.085-0.085-0.256-0.085-0.341-0.171c4.437-4.693,8.532-9.727,12.031-15.188L355.388,333.389z"/>
	<path style="fill:#CC004E;" d="M478.254,387.911l-28.669-31.57c-12.628-13.822-29.948-20.819-47.354-20.819
		c-15.358,0-30.802,5.461-43.088,16.638c-12.543,11.433-19.966,27.218-20.734,44.368c-0.768,17.065,5.119,33.447,16.553,46.075
		l28.754,31.484c11.433,12.628,27.133,19.966,44.283,20.734c17.15,0.768,33.532-5.034,46.075-16.553
		C500.182,454.548,502.059,414.02,478.254,387.911z M462.555,465.726c-8.618,7.85-19.795,12.116-31.484,12.116h-2.304
		c-12.543-0.597-24.061-5.973-32.508-15.273l-28.669-31.484c-8.447-9.215-12.713-21.246-12.201-33.788
		c0.597-12.543,6.058-24.147,15.273-32.508c19.112-17.406,48.805-16.041,66.296,3.072l28.754,31.57
		C483.117,418.542,481.752,448.234,462.555,465.726z"/>
	<path style="fill:#CC004E;" d="M182.011,335.096c-0.085,0.085-0.256,0.085-0.341,0.171l-10.921,10.921
		c-2.048-2.304-4.181-4.607-6.485-6.655c-2.474-2.304-5.034-4.266-7.764-6.143l13.481-13.481
		C173.479,325.369,177.489,330.403,182.011,335.096z"/>
	<path style="fill:#CC004E;" d="M152.745,352.075c-11.775-10.751-26.962-16.553-42.918-16.553c-1.024,0-2.133,0.085-3.157,0.085
		c-17.15,0.853-32.85,8.191-44.283,20.734l-28.754,31.57c-11.433,12.628-17.321,29.01-16.467,46.075
		c0.768,17.15,8.191,32.849,20.734,44.368c12.628,11.433,28.925,17.235,46.075,16.467s32.85-8.191,44.368-20.734l28.669-31.57
		c11.433-12.628,17.321-28.925,16.553-46.075C172.711,379.293,165.373,363.594,152.745,352.075z M144.384,430.999l-28.669,31.57
		c-9.3,10.153-22.013,15.358-34.727,15.358c-11.263,0-22.611-4.01-31.57-12.201c-19.112-17.406-20.563-47.184-3.157-66.296
		l28.754-31.57c17.406-19.112,47.099-20.563,66.296-3.157C160.424,382.194,161.79,411.887,144.384,430.999z"/>
</g>
<path d="M255.987,221.871c-23.549,0-42.662,19.112-42.662,42.662c0,23.549,19.112,42.662,42.662,42.662s42.662-19.112,42.662-42.662
	C298.648,240.984,279.536,221.871,255.987,221.871z M255.987,290.13c-14.078,0-25.597-11.519-25.597-25.597
	c0-14.078,11.519-25.597,25.597-25.597c14.078,0,25.597,11.519,25.597,25.597C281.584,278.612,270.065,290.13,255.987,290.13z"/>
<g>
	<path style="fill:#7E939E;" d="M30.05,80.576c0-17.747,2.474-35.153,6.826-48.037c0.939-2.764,1.877-4.974,2.799-6.945
		l-7.491-7.133c-2.048,1.962-5.205,6.399-8.276,15.444c-4.351,12.884-6.826,30.29-6.826,48.037L163.837,220.25
		c1.485-3.072,3.268-5.956,5.034-8.848L30.05,80.576z"/>
	<path style="fill:#7E939E;" d="M479.961,18.29l-7.764,7.398c4.642,10.307,9.42,28.609,9.727,54.803L343.162,211.505
		c1.741,2.858,3.507,5.708,4.974,8.746L494.892,81.685C494.465,44.996,485.251,23.495,479.961,18.29z"/>
	<path style="fill:#7E939E;" d="M340.542,253.953c-0.085-1.024-0.256-1.962-0.427-2.986c-0.427-2.56-0.939-5.119-1.621-7.679
		c-9.471-36.774-42.832-64.078-82.508-64.078c-2.884,0-5.725,0.188-8.541,0.469c35.861,3.592,65.204,29.505,73.984,63.609
		c0.683,2.56,1.195,5.119,1.621,7.679c0.171,1.024,0.341,1.962,0.427,2.986c0.512,3.498,0.768,6.997,0.768,10.58
		c0,44.129-33.762,80.588-76.791,84.888c2.807,0.282,5.648,0.435,8.532,0.435c47.013,0,85.323-38.31,85.323-85.323
		C341.31,260.95,341.054,257.451,340.542,253.953z"/>
</g>
</svg>