<?xml version="1.0" encoding="iso-8859-1"?>
<!-- Uploaded to: SVG Repo, www.svgrepo.com, Generator: SVG Repo Mixer Tools -->
<svg height="800px" width="800px" version="1.1" id="Layer_1" xmlns="http://www.w3.org/2000/svg" xmlns:xlink="http://www.w3.org/1999/xlink" 
	 viewBox="0 0 512.002 512.002" xml:space="preserve">
<path d="M324.255,320.757c-1.014,0-2.045-0.109-3.042-0.312c-0.998-0.187-1.981-0.498-2.933-0.874
	c-0.938-0.39-1.841-0.875-2.683-1.435c-0.86-0.577-1.655-1.232-2.373-1.95c-0.718-0.718-1.373-1.515-1.934-2.373
	c-0.56-0.842-1.045-1.747-1.435-2.683c-0.39-0.952-0.702-1.934-0.905-2.917c-0.203-1.014-0.295-2.044-0.295-3.058
	s0.094-2.044,0.295-3.042c0.203-0.998,0.515-1.981,0.905-2.917c0.39-0.95,0.858-1.855,1.42-2.697
	c0.577-0.858,1.232-1.655,1.95-2.373c0.718-0.718,1.513-1.373,2.373-1.933c0.842-0.562,1.746-1.047,2.683-1.437
	c0.952-0.39,1.935-0.685,2.933-0.888c5.055-1.03,10.452,0.64,14.072,4.257c0.719,0.718,1.374,1.515,1.934,2.373
	c0.562,0.842,1.045,1.747,1.435,2.697c0.39,0.938,0.686,1.919,0.889,2.917c0.203,1,0.312,2.028,0.312,3.042
	s-0.109,2.044-0.312,3.058c-0.187,0.983-0.499,1.966-0.889,2.917c-0.39,0.936-0.874,1.841-1.435,2.683
	c-0.56,0.858-1.215,1.655-1.934,2.373c-0.718,0.718-1.513,1.373-2.371,1.95c-0.842,0.56-1.747,1.045-2.699,1.435
	c-0.936,0.374-1.917,0.685-2.916,0.874C326.297,320.648,325.267,320.757,324.255,320.757z"/>
<path style="fill:#E4AAA9;" d="M456.47,140.059V87.075c0-39.474-32-71.474-71.474-71.474H122.329c-39.474,0-71.474,32-71.474,71.474
	v30.335v22.649H456.47z"/>
<path style="fill:#E7AD7C;" d="M141.185,140.059h-90.33V496.14h216.848v-17.418C245.082,458.571,141.185,341.827,141.185,140.059z"
	/>
<path style="fill:#E0315B;" d="M356.626,496.399h-73.323c-57.727,0-104.524-46.797-104.524-104.524v-24.176h282.37v24.176
	C461.15,449.602,414.353,496.399,356.626,496.399z"/>
<path d="M461.15,352.099h-88.196c6.187-9.278,9.803-20.409,9.803-32.373v-46.802c0-26.856-18.195-49.527-42.902-56.374v-60.891
	H456.47c8.615,0,15.601-6.986,15.601-15.601V87.075C472.07,39.062,433.01,0,384.996,0H122.329C75.54,0,37.268,37.1,35.346,83.426
	c-0.002,0.078-0.012,0.156-0.012,0.234c0,0.027,0.003,0.051,0.003,0.078c-0.042,1.109-0.084,2.218-0.084,3.339v52.984v356.082
	c0,8.615,6.984,15.601,15.601,15.601h216.848c1.142,0,2.251-0.131,3.323-0.363c4.037,0.412,8.134,0.622,12.278,0.622h73.323
	c66.237,0,120.124-53.888,120.124-120.124v-24.176C476.75,359.085,469.765,352.099,461.15,352.099z M351.556,272.924v46.802
	c0,15.053-12.248,27.301-27.301,27.301s-27.301-12.248-27.301-27.301v-46.802c0-9.253,4.638-17.432,11.7-22.373v7.808
	c0,8.615,6.986,15.601,15.601,15.601s15.601-6.986,15.601-15.601v-7.808C346.918,255.492,351.556,263.672,351.556,272.924z
	 M308.654,216.552c-24.707,6.847-42.902,29.518-42.902,56.374v46.802c0,11.964,3.616,23.095,9.803,32.373h-74.234
	c-23.047-51.306-42.059-117.53-44.304-196.439h151.636V216.552L308.654,216.552z M122.329,31.201h262.668
	c30.808,0,55.872,25.064,55.872,55.873v37.384H141.185h-74.73V99.26h224.197c8.615,0,15.601-6.986,15.601-15.601
	s-6.986-15.601-15.601-15.601H69.791C77.588,46.583,98.193,31.201,122.329,31.201z M66.455,480.54v-324.88h59.329
	c1.828,71.156,16.215,138.294,42.856,200.198c-3.339,2.861-5.462,7.1-5.462,11.842v24.176c0,35.075,15.115,66.683,39.17,88.664
	L66.455,480.54L66.455,480.54z M445.549,391.876c0,49.033-39.891,88.923-88.923,88.923h-73.323
	c-49.033,0-88.923-39.891-88.923-88.923V383.3h251.169V391.876z"/>
<path d="M337.453,99.26c-1.014,0-2.045-0.108-3.042-0.31c-0.998-0.187-1.981-0.499-2.917-0.889c-0.95-0.39-1.855-0.874-2.697-1.435
	c-0.86-0.562-1.655-1.217-2.373-1.934c-0.718-0.718-1.373-1.513-1.934-2.371c-0.56-0.842-1.045-1.747-1.435-2.699
	c-0.39-0.936-0.685-1.917-0.888-2.917c-0.203-0.998-0.312-2.028-0.312-3.042c0-1.012,0.109-2.044,0.312-3.058
	c0.203-0.983,0.498-1.966,0.888-2.916c0.39-0.938,0.875-1.842,1.435-2.685c0.562-0.858,1.217-1.654,1.934-2.371
	c0.718-0.718,1.513-1.373,2.373-1.95c0.842-0.548,1.747-1.03,2.697-1.42c0.938-0.39,1.919-0.702,2.917-0.889
	c2.012-0.406,4.087-0.406,6.084,0c0.998,0.187,1.981,0.499,2.917,0.889c0.95,0.39,1.855,0.874,2.697,1.42
	c0.858,0.577,1.654,1.232,2.373,1.95c0.718,0.718,1.373,1.513,1.933,2.371c0.577,0.842,1.045,1.747,1.435,2.685
	c0.39,0.95,0.702,1.933,0.889,2.916c0.203,1.014,0.312,2.045,0.312,3.058c0,1.014-0.109,2.045-0.312,3.042
	c-0.187,1-0.499,1.983-0.889,2.917c-0.39,0.952-0.874,1.856-1.435,2.699c-0.56,0.858-1.215,1.654-1.933,2.371
	c-0.719,0.718-1.515,1.373-2.373,1.934c-0.842,0.562-1.747,1.045-2.697,1.435c-0.938,0.39-1.919,0.686-2.917,0.889
	C339.495,99.153,338.465,99.26,337.453,99.26z"/>
</svg>