<?xml version="1.0" encoding="iso-8859-1"?>
<!-- Uploaded to: SVG Repo, www.svgrepo.com, Generator: SVG Repo Mixer Tools -->
<svg version="1.1" id="Layer_1" xmlns="http://www.w3.org/2000/svg" xmlns:xlink="http://www.w3.org/1999/xlink" 
	 viewBox="0 0 512 512" xml:space="preserve">
<path d="M163.228,172.542c-4.335,0-8.622-1.947-11.46-5.654c-12.233-15.974-8.948-36.645,8.372-52.66
	c5.243-4.847,5.372-9.862,4.556-13.217c-0.887-3.668-2.647-6.649-8.356-9.321c-7.214-3.375-10.327-11.961-6.95-19.175
	c3.375-7.214,11.958-10.328,19.176-6.952c12.894,6.033,21.024,15.673,24.165,28.65c3.622,14.907-1.239,30.312-13.008,41.192
	c-6.111,5.651-7.811,10.342-5.054,13.942c4.842,6.324,3.642,15.377-2.681,20.22C169.372,171.573,166.287,172.542,163.228,172.542z"
	/>
<path d="M229.76,174.617c-3.992,0-7.963-1.647-10.814-4.873c-11.776-13.329-9.248-31.939,6.291-46.306
	c1.46-1.349,3.291-3.581,2.367-7.387c-0.588-2.436-1.387-3.769-4.563-5.256c-7.214-3.376-10.327-11.961-6.95-19.176
	c3.375-7.214,11.956-10.327,19.176-6.95c10.789,5.049,17.645,13.321,20.372,24.583c3.148,12.966-0.894,26.19-10.817,35.366
	c-2.815,2.603-4.082,4.905-4.374,5.89c0.032,0.04,0.072,0.087,0.117,0.138c5.273,5.969,4.71,15.083-1.259,20.357
	C236.56,173.426,233.152,174.617,229.76,174.617z M240.268,150.256L240.268,150.256L240.268,150.256z"/>
<path d="M99.965,174.619c-4.699,0-9.303-2.29-12.073-6.512c-9.64-14.692-6.82-31.391,7.542-44.669
	c1.46-1.349,3.291-3.581,2.367-7.387c-0.588-2.436-1.387-3.769-4.563-5.256c-7.214-3.376-10.327-11.961-6.95-19.176
	c3.375-7.214,11.956-10.327,19.176-6.95c10.79,5.049,17.645,13.321,20.372,24.583c3.148,12.966-0.894,26.19-10.817,35.366
	c-5.003,4.625-4.077,6.034-3.007,7.666c4.369,6.66,2.512,15.601-4.148,19.971C105.424,173.853,102.678,174.619,99.965,174.619z"/>
<path style="fill:#B5DDF8;" d="M217.665,433.376H113.802c-54.886,0-99.38-44.494-99.38-99.38V215.847h302.622v118.149
	C317.045,388.883,272.551,433.376,217.665,433.376z"/>
<rect x="317.051" y="252.394" style="fill:#509ED9;" width="58.897" height="58.897"/>
<path style="fill:#074761;" d="M468.13,311.291h-92.186v-58.897h92.186c16.264,0,29.448,13.185,29.448,29.448l0,0
	C497.577,298.106,484.392,311.291,468.13,311.291z"/>
<path d="M468.13,237.971h-92.187h-44.475v-22.124c0-7.966-6.458-14.423-14.423-14.423H14.423C6.458,201.424,0,207.881,0,215.847
	v118.149c0,62.751,51.051,113.802,113.802,113.802h103.862c62.751,0,113.802-51.051,113.802-113.802v-8.283h44.475h92.187
	c24.189,0,43.87-19.681,43.87-43.87S492.319,237.971,468.13,237.971z M302.622,333.996c0,46.846-38.112,84.957-84.957,84.957
	H113.802c-46.846,0-84.957-38.112-84.957-84.957V230.269h273.777v22.124v15.63H116.107c-7.964,0-14.423,6.457-14.423,14.423
	c0,7.966,6.458,14.423,14.423,14.423h186.515v14.423V333.996z M331.467,266.816h30.052v30.052h-30.052V266.816z M468.13,296.868
	h-77.765v-30.052h77.765c8.284,0,15.025,6.741,15.025,15.025C483.155,290.126,476.414,296.868,468.13,296.868z"/>
<path d="M72.834,296.874c-0.937,0-1.891-0.101-2.812-0.288c-0.923-0.188-1.832-0.462-2.697-0.822
	c-0.88-0.361-1.715-0.808-2.494-1.327c-0.795-0.519-1.53-1.125-2.194-1.788c-0.663-0.663-1.269-1.413-1.788-2.192
	c-0.518-0.779-0.966-1.63-1.327-2.495c-0.361-0.865-0.633-1.774-0.821-2.697c-0.189-0.923-0.288-1.875-0.288-2.812
	c0-0.952,0.1-1.889,0.288-2.827c0.187-0.923,0.46-1.832,0.821-2.697c0.361-0.865,0.809-1.702,1.327-2.495
	c0.519-0.779,1.125-1.514,1.788-2.192c0.663-0.663,1.399-1.255,2.194-1.788c0.779-0.519,1.614-0.966,2.494-1.327
	c0.867-0.361,1.774-0.635,2.697-0.822c1.861-0.375,3.779-0.375,5.639,0c0.923,0.188,1.832,0.462,2.697,0.822
	s1.702,0.808,2.481,1.327c0.793,0.534,1.529,1.125,2.192,1.788c0.679,0.678,1.271,1.413,1.803,2.192
	c0.519,0.793,0.968,1.63,1.328,2.495c0.361,0.865,0.633,1.774,0.821,2.697c0.187,0.937,0.274,1.875,0.274,2.827
	c0,0.937-0.088,1.889-0.274,2.812c-0.187,0.923-0.46,1.832-0.821,2.697c-0.361,0.865-0.809,1.716-1.328,2.495
	c-0.532,0.779-1.138,1.529-1.803,2.192c-0.663,0.663-1.399,1.269-2.192,1.788c-0.779,0.519-1.615,0.966-2.481,1.327
	c-0.867,0.361-1.774,0.635-2.697,0.822C74.723,296.773,73.786,296.874,72.834,296.874z"/>
</svg>