<?xml version="1.0" encoding="iso-8859-1"?>
<!-- Uploaded to: SVG Repo, www.svgrepo.com, Generator: SVG Repo Mixer Tools -->
<svg version="1.1" id="Layer_1" xmlns="http://www.w3.org/2000/svg" xmlns:xlink="http://www.w3.org/1999/xlink" 
	 viewBox="0 0 512 512" xml:space="preserve">
<rect x="259.061" y="99.784" style="fill:#FFE477;" width="117.466" height="404.612"/>
<rect x="135.471" y="99.784" style="fill:#FFF5CC;" width="147.466" height="404.612"/>
<rect x="173.136" y="7.604" style="fill:#4E8FE3;" width="161.701" height="46.11"/>
<polygon style="fill:#52A2E7;" points="376.177,99.784 334.834,48.814 173.138,48.814 135.47,99.784 "/>
<polygon style="fill:#3C66B1;" points="334.834,48.813 284.056,48.813 284.056,99.783 376.177,99.783 "/>
<rect x="284.053" y="229.305" style="fill:#DDB200;" width="92.119" height="103.414"/>
<path style="fill:#FFE477;" d="M207.076,331.753c0,0,35.193-13.96,42.349-40.833c7.156-26.874-16.437-56.486-16.437-56.486
	s-14.831,5.882-27.195,17.362L207.076,331.753z"/>
<rect x="284.053" y="7.604" style="fill:#3C66B1;" width="50.784" height="41.209"/>
<g>
	<path style="fill:#DDB200;" d="M224.168,275.266c7.156,26.874-16.437,56.486-16.437,56.486s-35.193-13.96-42.349-40.833
		c-7.156-26.874,16.437-56.486,16.437-56.486S217.012,248.392,224.168,275.266z"/>
	<rect x="135.471" y="471.192" style="opacity:0.32;fill:#DDB200;enable-background:new    ;" width="240.711" height="33.209"/>
</g>
<path d="M380.968,93.619l-38.53-47.501V7.604c0-4.2-3.405-7.604-7.604-7.604H173.138c-4.199,0-7.604,3.404-7.604,7.604v38.705
	l-36.18,48.956c-0.028,0.038-0.05,0.078-0.077,0.117c-0.087,0.123-0.169,0.247-0.249,0.375c-0.056,0.088-0.111,0.176-0.161,0.266
	c-0.07,0.124-0.135,0.249-0.199,0.377c-0.05,0.099-0.099,0.199-0.145,0.3c-0.054,0.12-0.1,0.242-0.148,0.365
	c-0.044,0.113-0.086,0.225-0.124,0.34c-0.038,0.116-0.07,0.232-0.102,0.35c-0.034,0.126-0.069,0.25-0.097,0.377
	c-0.024,0.11-0.044,0.222-0.063,0.334c-0.024,0.138-0.047,0.276-0.063,0.414c-0.012,0.105-0.021,0.213-0.029,0.319
	c-0.011,0.147-0.019,0.293-0.022,0.439c-0.001,0.049-0.007,0.095-0.007,0.145v404.614c0,4.2,3.405,7.604,7.604,7.604h147.464h93.594
	c4.199,0,7.604-3.404,7.604-7.604V99.784C384.132,97.244,382.882,95,380.968,93.619z M176.974,56.417h99.478V92.18H150.544
	L176.974,56.417z M331.211,56.417l29.008,35.762H291.66V56.417H331.211z M290.538,221.702V107.388h78.386v114.314L290.538,221.702
	L290.538,221.702z M368.573,236.91v88.206h-76.918V236.91L368.573,236.91L368.573,236.91z M282.096,41.209V15.208h17.536v26.001
	H282.096z M266.888,41.209h-17.537V15.208h17.537V41.209z M234.143,41.209h-17.536V15.208h17.536V41.209z M143.074,107.388H275.33
	v361.029c-42.451-0.222-91.496-0.725-132.256-1.259L143.074,107.388L143.074,107.388z M290.538,340.324h78.386v127.627
	c-12.039,0.552-41.797,0.669-78.386,0.534V340.324z M327.23,41.209h-12.39V15.208h12.39V41.209z M180.742,15.208H201.4v26.001
	h-20.657V15.208z M143.074,482.364c18.097,0.231,65.34,0.803,112.211,1.129c6.966,0.049,13.646,0.089,20.045,0.124v13.175H143.074
	V482.364z M290.538,496.792v-13.107c8.898,0.032,17.143,0.05,24.706,0.05c8.47,0,16.093-0.021,22.831-0.062
	c11.953-0.074,21.255-0.215,27.646-0.419c1.146-0.036,2.199-0.072,3.203-0.108v13.647H290.538z"/>
<path d="M242.145,229.694c-2.087-2.618-5.64-3.565-8.751-2.33c-0.575,0.228-12.548,5.041-24.393,14.429
	c-11.721-9.304-23.504-14.082-24.379-14.429c-3.112-1.234-6.665-0.289-8.751,2.33c-1.061,1.331-25.886,32.955-17.838,63.181
	c8.048,30.226,45.31,45.318,46.893,45.945c0.911,0.361,1.861,0.535,2.801,0.535c0.428,0,0.852-0.048,1.271-0.119
	c0.424,0.073,0.853,0.121,1.288,0.121c0.933,0,1.882-0.173,2.801-0.537c1.583-0.628,38.845-15.719,46.893-45.945
	C268.03,262.649,243.206,231.026,242.145,229.694z M172.73,288.963c-4.529-17.011,5.97-36.228,11.668-44.986
	c10.742,5.493,28.187,17.344,32.422,33.247c3.278,12.309-1.314,25.771-6.262,35.593l-6.361-23.892
	c-1.08-4.058-5.246-6.476-9.304-5.391c-4.059,1.08-6.473,5.246-5.392,9.304l6.365,23.904
	C186.304,310.345,175.875,300.772,172.73,288.963z M245.287,288.963c-2.699,10.136-10.415,18.292-18.181,24.242
	c4.781-11.475,8.153-25.834,4.409-39.895c-2.138-8.03-6.346-14.98-11.391-20.887c4.999-3.749,9.945-6.574,13.519-8.407
	C239.351,252.797,249.808,271.979,245.287,288.963z"/>
</svg>