<?xml version="1.0" encoding="iso-8859-1"?>
<!-- Uploaded to: SVG Repo, www.svgrepo.com, Generator: SVG Repo Mixer Tools -->
<svg height="800px" width="800px" version="1.1" id="Layer_1" xmlns="http://www.w3.org/2000/svg" xmlns:xlink="http://www.w3.org/1999/xlink" 
	 viewBox="0 0 510.955 510.955" xml:space="preserve">
<path style="fill:#FFD15C;" d="M501.551,111.282c0-14.629-11.494-26.122-25.078-28.212l0,0
	c14.629-1.045,25.078-13.584,25.078-28.212s-11.494-26.122-26.122-28.212c-1.045-14.629-13.584-26.122-28.212-26.122
	S421.094,12.016,419.004,25.6h-1.045c-1.045-14.629-13.584-25.078-28.212-25.078c-14.629,0-26.122,11.494-28.212,25.078h-1.045
	c-1.045-14.629-13.584-25.078-28.212-25.078c-14.629,0-26.122,11.494-28.212,25.078h-1.045
	c-1.045-14.629-13.584-25.078-28.212-25.078l0,0c-14.629,0-26.122,11.494-28.212,25.078h-1.045
	c-1.045-14.629-13.584-25.078-28.212-25.078c-14.629,0-26.122,11.494-28.212,25.078h-1.045
	c-1.045-14.629-13.584-25.078-28.212-25.078c-14.629,0-26.122,11.494-28.212,25.078h-1.045
	C129.567,10.971,117.029,0.522,102.4,0.522S83.592,13.061,81.502,26.645l0,0C80.457,13.061,67.918,1.567,53.29,1.567
	S27.167,13.061,26.122,27.69C11.494,28.735,0,40.229,0,54.857S11.494,80.98,25.078,83.069v1.045C11.494,85.159,0,96.653,0,111.282
	s11.494,26.122,25.078,28.212v1.045C10.449,141.584,0,154.122,0,168.751s11.494,26.122,25.078,28.212v1.045
	C10.449,199.053,0,211.592,0,226.22c0,14.629,11.494,26.122,25.078,28.212v1.045C10.449,256.522,0,269.061,0,283.69
	s11.494,26.122,25.078,28.212v1.045C10.449,313.992,0,326.531,0,341.159c0,14.629,11.494,26.122,25.078,28.212v1.045
	C10.449,371.461,0,384,0,398.629c0,14.629,11.494,26.122,25.078,28.212v1.045C10.449,428.931,0,441.469,0,456.098
	s11.494,26.122,26.122,28.212c1.045,14.629,13.584,26.122,28.212,26.122s26.122-11.494,28.212-25.078h1.045
	c1.045,14.629,13.584,25.078,28.212,25.078s26.122-11.494,28.212-25.078h1.045c1.045,14.629,13.584,25.078,28.212,25.078
	s26.122-11.494,28.212-25.078h1.045c1.045,14.629,13.584,25.078,28.212,25.078c14.629,0,26.122-11.494,28.212-25.078H256
	c1.045,14.629,13.584,25.078,28.212,25.078l0,0c14.629,0,26.122-11.494,28.212-25.078h1.045
	c1.045,14.629,13.584,25.078,28.212,25.078c14.629,0,26.122-11.494,28.212-25.078h1.045c1.045,14.629,13.584,25.078,28.212,25.078
	c14.629,0,26.122-11.494,28.212-25.078h1.045c1.045,14.629,13.584,25.078,28.212,25.078c14.629,0,26.122-11.494,28.212-26.122
	c14.629-1.045,26.122-13.584,26.122-28.212s-11.494-26.122-25.078-28.212v-1.045c14.629-1.045,25.078-13.584,25.078-28.212
	c0-14.629-11.494-26.122-25.078-28.212v-1.045c14.629-1.045,25.078-13.584,25.078-28.212c0-14.629-11.494-26.122-25.078-28.212
	v-1.045c14.629-1.045,25.078-13.584,25.078-28.212s-11.494-26.122-25.078-28.212v-1.045c14.629-1.045,25.078-13.584,25.078-28.212
	c0-14.629-11.494-26.122-25.078-28.212v-1.045c14.629-1.045,25.078-13.584,25.078-28.212c0-14.629-11.494-26.122-25.078-28.212
	v-1.045C490.057,138.449,501.551,125.91,501.551,111.282z"/>
<g>
	<path style="fill:#F8B64C;" d="M441.992,443.559H59.559V61.127h381.388v382.433H441.992z M80.457,422.661h339.592V82.024H80.457
		V422.661z"/>
	<circle style="fill:#F8B64C;" cx="155.69" cy="118.596" r="15.673"/>
	<circle style="fill:#F8B64C;" cx="155.69" cy="207.412" r="15.673"/>
	<circle style="fill:#F8B64C;" cx="155.69" cy="297.273" r="15.673"/>
	<circle style="fill:#F8B64C;" cx="155.69" cy="386.09" r="15.673"/>
	<circle style="fill:#F8B64C;" cx="250.776" cy="118.596" r="15.673"/>
	<circle style="fill:#F8B64C;" cx="250.776" cy="207.412" r="15.673"/>
	<circle style="fill:#F8B64C;" cx="250.776" cy="297.273" r="15.673"/>
	<circle style="fill:#F8B64C;" cx="250.776" cy="386.09" r="15.673"/>
	<circle style="fill:#F8B64C;" cx="345.861" cy="118.596" r="15.673"/>
	<circle style="fill:#F8B64C;" cx="345.861" cy="207.412" r="15.673"/>
	<circle style="fill:#F8B64C;" cx="345.861" cy="297.273" r="15.673"/>
	<circle style="fill:#F8B64C;" cx="345.861" cy="386.09" r="15.673"/>
</g>
</svg>