<?xml version="1.0" encoding="iso-8859-1"?>
<!-- Uploaded to: SVG Repo, www.svgrepo.com, Generator: SVG Repo Mixer Tools -->
<svg version="1.1" id="Layer_1" xmlns="http://www.w3.org/2000/svg" xmlns:xlink="http://www.w3.org/1999/xlink" 
	 viewBox="0 0 512 512" xml:space="preserve">
<rect x="191.216" y="79.673" style="fill:#EA0011;" width="129.567" height="44.896"/>
<g>
	<polygon style="fill:#F7222B;" points="320.784,79.673 191.216,79.673 256,34.695 	"/>
	<polygon style="fill:#F7222B;" points="321.592,124.57 192.603,124.57 120.163,173.226 120.163,501.551 391.837,501.551 
		391.837,173.226 	"/>
</g>
<rect x="178.678" y="200.62" style="fill:#FBB403;" width="154.645" height="244.506"/>
<path style="fill:#EA0011;" d="M277.468,273.703c-9.62-3.201-24.939-3.632-33.414,23.729c-8.474,27.361-8.474,73.122-20.58,86.681
	c-12.106,13.559-1.161,25.194,19.185,10.097c21.595-16.021,34.596-40.629,42.072-57.08
	C299.243,305.202,295.253,279.618,277.468,273.703z"/>
<path d="M333.322,367.641c-5.77,0-10.449,4.678-10.449,10.449v0.137c0,5.771,4.679,10.449,10.449,10.449
	c5.77,0,10.449-4.678,10.449-10.449v-0.137C343.771,372.319,339.092,367.641,333.322,367.641z"/>
<path d="M168.229,200.624V445.13c0,5.771,4.679,10.449,10.449,10.449H333.32c5.77,0,10.449-4.678,10.449-10.449v-34.056
	c0-5.771-4.679-10.449-10.449-10.449s-10.449,4.678-10.449,10.449v23.607H189.127V211.073h133.745v133.129
	c0,5.771,4.679,10.449,10.449,10.449s10.449-4.678,10.449-10.449V200.624c0-5.771-4.679-10.449-10.449-10.449H178.678
	C172.908,190.175,168.229,194.853,168.229,200.624z"/>
<path d="M397.786,164.636l-66.554-46.1V79.673c0-3.381-1.71-6.656-4.49-8.583l-60.294-41.862v-18.78C266.449,4.678,261.77,0,256,0
	c-5.77,0-10.449,4.678-10.449,10.449v18.78l-60.294,41.862c-2.779,1.927-4.49,5.2-4.49,8.583v40.259l-66.43,44.62
	c-2.889,1.94-4.623,5.193-4.623,8.674v328.325c0,5.771,4.679,10.449,10.449,10.449h271.673c5.77,0,10.449-4.678,10.449-10.449
	V173.226C402.286,169.798,400.604,166.588,397.786,164.636z M201.665,90.122h108.669v23.998H201.665V90.122z M256,47.415
	l31.413,21.809h-62.824L256,47.415z M381.388,491.102H130.612V178.795l65.174-43.776h122.54l63.061,43.681V491.102z"/>
<path d="M275.596,262.427c-7.358-1.419-14.377-0.533-20.544,2.635c-9.399,4.83-16.457,14.68-20.978,29.277
	c-3.621,11.69-5.725,26.032-7.76,39.899c-2.426,16.53-5.446,37.104-10.633,42.914c-10.206,11.429-9.061,22.8-3.4,28.998
	c3.034,3.323,7.658,5.652,13.638,5.652c6.261,0,14.009-2.556,22.968-9.203c17.835-13.234,32.673-33.235,45.357-61.147
	c10.522-23.15,12.664-44.266,6.032-59.461c-1.535-3.517-3.511-6.615-5.874-9.269c7.666-10.412,7.996-23.362,6.56-30.377
	c-1.156-5.655-6.684-9.302-12.332-8.142c-5.654,1.157-9.299,6.678-8.142,12.332C280.511,246.646,282.415,256.49,275.596,262.427z
	 M275.22,332.805c-11.181,24.604-23.869,41.944-38.785,53.011c-0.878,0.652-1.7,1.218-2.467,1.713
	c7.278-11.118,9.963-29.413,13.023-50.256c1.919-13.081,3.905-26.606,7.047-36.75c2.757-8.903,6.412-14.737,10.567-16.872
	c0.588-0.303,1.932-0.994,4.275-0.994c1.393,0,3.141,0.245,5.291,0.96c3.16,1.051,5.435,3.254,6.953,6.733
	C285.232,299.762,283.024,315.633,275.22,332.805z"/>
</svg>