<!DOCTYPE svg PUBLIC "-//W3C//DTD SVG 1.1//EN" "http://www.w3.org/Graphics/SVG/1.1/DTD/svg11.dtd">
<!-- Uploaded to: SVG Repo, www.svgrepo.com, Transformed by: SVG Repo Mixer Tools -->
<svg fill="#846c43" height="800px" width="800px" version="1.1" id="Capa_1" xmlns="http://www.w3.org/2000/svg" xmlns:xlink="http://www.w3.org/1999/xlink" viewBox="0 0 470 470" xml:space="preserve" stroke="#846c43">
<g id="SVGRepo_bgCarrier" stroke-width="0"/>
<g id="SVGRepo_tracerCarrier" stroke-linecap="round" stroke-linejoin="round"/>
<g id="SVGRepo_iconCarrier"> <g> <path d="M456.719,391.15L300.57,235L462.112,73.458c10.501-10.501,10.501-27.587,0-38.088c-5.221-5.221-12.259-8.038-19.611-7.882 c0.145-7.081-2.479-14.208-7.87-19.599C429.544,2.801,422.78,0,415.587,0s-13.958,2.802-19.044,7.889L235,169.431L73.458,7.889 C62.957-2.613,45.87-2.613,35.37,7.888c-5.392,5.391-8.015,12.518-7.87,19.599c-0.188-0.004-0.378-0.006-0.568-0.006 c-7.193,0-13.957,2.802-19.043,7.888c-10.501,10.501-10.501,27.587,0,38.088L169.431,235L13.281,391.15 c-8.65,8.65-13.366,20.139-13.28,32.351c0.087,12.227,5,23.827,13.836,32.662C22.76,465.086,34.475,470,46.824,470 c12.088,0,23.462-4.717,32.026-13.281L235,300.57l156.15,156.15c8.572,8.572,19.931,13.281,32.021,13.281 c0.109,0,0.221,0,0.33-0.001c12.227-0.087,23.827-5,32.662-13.836c8.836-8.835,13.75-20.435,13.836-32.662 C470.086,411.289,465.369,399.8,456.719,391.15z M401.757,446.113c-4.652-4.652-4.652-12.223,0-16.875 c2.254-2.254,5.25-3.495,8.438-3.495s6.184,1.241,8.438,3.495c0.366,0.366,0.761,0.687,1.177,0.961 c1.248,0.824,2.687,1.236,4.127,1.236s2.879-0.412,4.127-1.236c0.416-0.274,0.81-0.595,1.176-0.961 c2.929-2.929,2.929-7.678,0-10.606c-2.254-2.254-3.495-5.25-3.495-8.438s1.241-6.184,3.495-8.438 c4.652-4.652,12.223-4.652,16.875,0c5.789,5.789,8.944,13.473,8.886,21.638c-0.059,8.26-3.412,16.13-9.443,22.162 C433.12,457.993,413.881,458.237,401.757,446.113z M245.607,289.963l16.875-16.875l139.074,139.074 c-3.805,1.284-7.378,3.443-10.405,6.47c-3.029,3.029-5.178,6.606-6.46,10.415L245.607,289.963z M18.495,45.976 c2.254-2.253,5.25-3.495,8.438-3.495s6.184,1.241,8.437,3.495c0.005,0.004,28.191,28.19,28.191,28.19 c1.464,1.464,3.384,2.197,5.303,2.197s3.839-0.732,5.303-2.197c2.929-2.929,2.929-7.678,0-10.606l-28.19-28.19 c-4.652-4.653-4.652-12.223,0-16.875s12.222-4.652,16.875,0l161.542,161.542l-16.875,16.875L95.306,84.699 c-2.929-2.929-7.678-2.929-10.606,0c-2.929,2.929-2.929,7.678,0,10.606l112.213,112.213l-16.875,16.875L18.495,62.852 C13.842,58.199,13.842,50.629,18.495,45.976z M23.887,401.757c4.652-4.652,12.223-4.652,16.875,0 c2.254,2.254,3.495,5.25,3.495,8.438s-1.241,6.184-3.495,8.438c-2.929,2.929-2.929,7.678,0,10.606 c0.366,0.366,0.761,0.687,1.177,0.961c1.248,0.824,2.687,1.236,4.127,1.236s2.879-0.412,4.127-1.236 c0.416-0.274,0.81-0.595,1.176-0.961c2.254-2.254,5.25-3.495,8.438-3.495s6.184,1.241,8.438,3.495 c4.652,4.652,4.652,12.223,0,16.875C62.512,451.844,54.905,455,46.823,455c-8.342,0-16.29-3.354-22.379-9.444 C12.008,433.12,11.763,413.881,23.887,401.757z M78.85,418.632c-3.025-3.025-6.6-5.186-10.404-6.471l58.951-58.951 c2.929-2.929,2.929-7.678,0-10.606c-2.929-2.929-7.678-2.929-10.606,0l-58.958,58.958c-1.282-3.808-3.436-7.383-6.464-10.411 c-3.029-3.029-6.607-5.179-10.415-6.46L407.149,18.495c2.254-2.254,5.25-3.495,8.438-3.495s6.184,1.241,8.438,3.495 c4.652,4.652,4.652,12.223,0,16.875c-0.005,0.005-286.024,286.024-286.024,286.024c-2.929,2.929-2.929,7.678,0,10.606 c1.464,1.464,3.384,2.197,5.303,2.197s3.839-0.732,5.303-2.197L434.631,45.977c2.254-2.254,5.25-3.495,8.438-3.495 c3.187,0,6.183,1.241,8.437,3.495c4.652,4.652,4.652,12.223,0,16.875L85.31,429.047C84.029,425.238,81.879,421.66,78.85,418.632z M418.632,391.15c-3.028,3.028-5.182,6.604-6.464,10.411l-139.079-139.08l16.875-16.875L429.046,384.69 C425.238,385.971,421.66,388.121,418.632,391.15z"/> </g> </g>
</svg>