<?xml version="1.0" encoding="iso-8859-1"?>
<!-- Uploaded to: SVG Repo, www.svgrepo.com, Generator: SVG Repo Mixer Tools -->
<svg version="1.1" id="Layer_1" xmlns="http://www.w3.org/2000/svg" xmlns:xlink="http://www.w3.org/1999/xlink" 
	 viewBox="0 0 502.073 502.073" xml:space="preserve">
<path style="fill:#F2F2F2;" d="M374.857,101.878H128.261c-1.045,3.135-2.09,7.314-3.135,10.449
	c-20.898,53.29-64.784,169.273-27.167,355.265c0,0,4.18,34.482,37.616,34.482h230.922c33.437,0,37.616-34.482,37.616-34.482
	c37.616-185.992-6.269-301.975-27.167-355.265C376.947,109.192,375.902,105.012,374.857,101.878z"/>
<path style="fill:#40596B;" d="M135.576,468.637c-2.09,0-4.18,0-5.224-6.269v-2.09c-12.539-61.649-16.718-119.118-12.539-173.453
	c5.224-68.963,63.739-124.343,133.747-124.343s128.522,54.335,133.747,124.343c4.18,54.335-1.045,112.849-12.539,173.453v2.09
	c-1.045,6.269-3.135,6.269-5.224,6.269H135.576z"/>
<path style="fill:#FF7058;" d="M374.857,24.555c0,0-3.135-20.898-33.437-21.943l-18.808-1.045c-47.02-2.09-95.086-2.09-142.106,0
	l-18.808,1.045c-30.302,1.045-33.437,21.943-33.437,21.943c-4.18,5.224-8.359,33.437-9.404,50.155
	c-1.045,6.269,4.18,11.494,10.449,11.494h129.567h115.984c6.269,0,11.494-5.224,10.449-11.494
	C383.216,57.992,379.037,29.78,374.857,24.555z"/>
<rect x="141.845" y="86.204" style="fill:#E2E2E2;" width="218.384" height="15.673"/>
<g>
	<path style="fill:#F2F2F2;" d="M173.192,358.922l7.314,2.09c-1.045,4.18-4.18,12.539-15.673,12.539
		c-14.629,0-16.718-13.584-16.718-18.808c0-6.269,2.09-19.853,17.763-19.853c12.539,0,14.629,8.359,14.629,11.494l-7.314,2.09
		c0-2.09-1.045-6.269-8.359-6.269c-8.359,0-9.404,8.359-9.404,12.539c0,5.224,2.09,13.584,9.404,13.584
		C170.057,367.282,172.147,362.057,173.192,358.922z"/>
	<path style="fill:#F2F2F2;" d="M184.686,354.743c0-13.584,8.359-19.853,17.763-19.853c10.449,0,18.808,6.269,18.808,19.853
		c0,12.539-8.359,19.853-17.763,19.853C193.045,373.551,184.686,367.282,184.686,354.743z M193.045,354.743
		c0,10.449,5.224,12.539,10.449,12.539s10.449-3.135,10.449-13.584c0-9.404-6.269-12.539-10.449-12.539
		C199.314,341.159,193.045,345.339,193.045,354.743z"/>
	<path style="fill:#F2F2F2;" d="M227.527,373.551v-37.616h26.122v6.269h-17.763v8.359h15.673v6.269h-15.673v15.673h-8.359V373.551z"
		/>
	<path style="fill:#F2F2F2;" d="M259.918,373.551v-37.616h26.122v6.269h-18.808v8.359h15.673v6.269h-15.673v15.673h-7.314V373.551z"
		/>
	<path style="fill:#F2F2F2;" d="M292.31,373.551v-37.616h28.212v6.269h-19.853v8.359h18.808v6.269h-18.808v10.449h20.898v6.269
		L292.31,373.551L292.31,373.551z"/>
	<path style="fill:#F2F2F2;" d="M326.792,373.551v-37.616h28.212v6.269h-19.853v8.359h18.808v6.269h-18.808v10.449h20.898v6.269
		L326.792,373.551L326.792,373.551z"/>
</g>
<g>
	<path style="fill:#FFFFFF;" d="M291.265,287.869c-3.135-18.808-19.853-33.437-39.706-33.437c-12.539,0-24.033-5.224-33.437-13.584
		c-5.224-5.224-8.359-11.494-11.494-17.763c-5.224,15.673,1.045,37.616,17.763,54.335c20.898,20.898,50.155,26.122,64.784,11.494
		C290.22,288.914,290.22,287.869,291.265,287.869z"/>
	<path style="fill:#FFFFFF;" d="M213.943,213.682l-1.045,1.045c1.045,8.359,5.224,15.673,11.494,20.898
		c7.314,7.314,17.763,11.494,28.212,11.494c20.898,0,37.616,13.584,43.886,31.347c5.224-15.673-1.045-37.616-17.763-54.335
		C256.784,204.278,227.527,199.053,213.943,213.682z"/>
</g>
</svg>