<?xml version="1.0" encoding="iso-8859-1"?>
<!-- Uploaded to: SVG Repo, www.svgrepo.com, Generator: SVG Repo Mixer Tools -->
<svg height="800px" width="800px" version="1.1" id="Layer_1" xmlns="http://www.w3.org/2000/svg" xmlns:xlink="http://www.w3.org/1999/xlink" 
	 viewBox="0 0 512 512" xml:space="preserve">
<g transform="translate(-1)">
	<path style="fill:#DAE7EF;" d="M371.756,485.517c0,14.627-51.377,26.483-114.759,26.483s-114.759-11.855-114.759-26.483
		s51.377-26.483,114.759-26.483S371.756,470.89,371.756,485.517"/>
	<path style="fill:#AEBBC1;" d="M256.998,494.345c-4.873,0-8.828-3.946-8.828-8.828V291.31c0-4.882,3.955-8.828,8.828-8.828
		s8.828,3.946,8.828,8.828v194.207C265.825,490.399,261.871,494.345,256.998,494.345"/>
	<path style="fill:#DAE7EF;" d="M386.016,129.466l-23.084-111.81c0,9.746-47.431,17.655-105.931,17.655
		c-58.509,0-105.931-7.91-105.931-17.655l-23.075,111.766c-2.163,9.49-3.407,19.324-3.407,29.475
		c0,73.128,59.277,132.414,132.414,132.414c73.128,0,132.414-59.286,132.414-132.414
		C389.414,148.763,388.17,138.947,386.016,129.466"/>
	<path style="fill:#701C11;" d="M127.472,132.417c-1.766,8.572-2.887,17.382-2.887,26.483c0,73.128,59.286,132.414,132.414,132.414
		S389.413,232.028,389.413,158.9c0-9.101-1.121-17.911-2.887-26.483H127.472z"/>
	<g>
		<path style="fill:#99443D;" d="M362.929,167.724c0,4.873-3.955,8.828-8.828,8.828c-4.873,0-8.828-3.955-8.828-8.828
			s3.955-8.828,8.828-8.828C358.974,158.897,362.929,162.851,362.929,167.724"/>
		<path style="fill:#99443D;" d="M221.687,238.345c0,4.873-3.955,8.828-8.828,8.828s-8.828-3.955-8.828-8.828
			c0-4.873,3.955-8.828,8.828-8.828S221.687,233.472,221.687,238.345"/>
	</g>
	<path style="fill:#AEBBC1;" d="M362.929,17.655c0,9.754-47.431,17.655-105.931,17.655S151.067,27.41,151.067,17.655
		S198.497,0,256.998,0S362.929,7.901,362.929,17.655"/>
	<g>
		<path style="fill:#99443D;" d="M295.919,165.536l26.959,26.959c6.321,6.321,6.321,16.658,0,22.978l-26.959,26.959
			c-6.321,6.321-16.658,6.321-22.978,0l-26.959-26.959c-6.321-6.321-6.321-16.658,0-22.978l26.959-26.959
			C279.261,159.215,289.598,159.215,295.919,165.536"/>
		<path style="fill:#99443D;" d="M184.892,132.414h38.126c8.942,0,16.252,7.309,16.252,16.243v38.135
			c0,8.934-7.309,16.243-16.252,16.243h-38.126c-8.934,0-16.243-7.309-16.243-16.243v-38.135
			C168.65,139.723,175.959,132.414,184.892,132.414"/>
	</g>
	<path style="fill:#FFFFFF;" d="M255.513,88.276h38.126c8.942,0,16.252,7.309,16.252,16.243v38.135
		c0,8.934-7.309,16.243-16.252,16.243h-38.126c-8.934,0-16.243-7.309-16.243-16.243v-38.135
		C239.27,95.585,246.579,88.276,255.513,88.276"/>
	<path style="fill:#99443D;" d="M239.267,132.414v10.24c0,8.934,7.309,16.243,16.243,16.243h38.135
		c8.934,0,16.243-7.309,16.243-16.243v-10.24H239.267z"/>
</g>
</svg>