<?xml version="1.0" encoding="iso-8859-1"?>
<!-- Uploaded to: SVG Repo, www.svgrepo.com, Generator: SVG Repo Mixer Tools -->
<svg version="1.1" id="Layer_1" xmlns="http://www.w3.org/2000/svg" xmlns:xlink="http://www.w3.org/1999/xlink" 
	 viewBox="0 0 501.551 501.551" xml:space="preserve">
<path style="fill:#F2F2F2;" d="M413.793,83.592H100.324c-22.988,0-41.796,18.808-41.796,41.796v334.367
	c0,22.988,18.808,41.796,41.796,41.796h313.469c22.988,0,41.796-18.808,41.796-41.796V125.388
	C455.589,101.355,436.781,83.592,413.793,83.592z"/>
<g>
	<path style="fill:#FF7058;" d="M450.365,97.176c-6.269-8.359-20.898-13.584-27.167-13.584H78.381
		c-7.314,0-20.898,5.224-27.167,13.584c-16.718,22.988,7.314,59.559,27.167,40.751c1.045-1.045,2.09-2.09,3.135-4.18
		c13.584-17.763,35.527-17.763,48.065,0c13.584,17.763,35.527,17.763,48.065,0l0,0c13.584-17.763,35.527-17.763,48.065,0
		c13.584,17.763,35.527,17.763,48.065,0c13.584-17.763,35.527-17.763,48.065,0l0,0c13.584,17.763,35.527,17.763,48.065,0
		c13.584-17.763,35.527-17.763,48.065,0c1.045,1.045,2.09,3.135,3.135,4.18C443.05,156.735,467.083,120.163,450.365,97.176z"/>
	<path style="fill:#FF7058;" d="M380.356,0H131.671c-18.808,0-34.482,15.673-34.482,34.482s15.673,33.437,34.482,33.437h248.686
		c18.808,0,34.482-15.673,34.482-34.482S399.165,0,380.356,0z"/>
</g>
<path style="fill:#FFD15C;" d="M399.165,53.29H102.414c-8.359,0-15.673,6.269-15.673,14.629s6.269,14.629,14.629,14.629h297.796
	c8.359,0,14.629-6.269,14.629-14.629C414.838,59.559,407.524,53.29,399.165,53.29z"/>
<rect x="58.528" y="224.653" style="fill:#84DBFF;" width="397.061" height="164.049"/>
<g>
	<path style="fill:#FFFFFF;" d="M170.332,261.224h17.763v56.424c0,22.988-9.404,34.482-29.257,34.482
		c-17.763,0-27.167-12.539-27.167-29.257l16.718-2.09c0,5.225,1.045,15.673,11.494,15.673c9.404,0,11.494-7.314,11.494-17.763
		v-57.469H170.332z"/>
	<path style="fill:#FFFFFF;" d="M288.405,351.086h-19.853l-8.359-20.898h-35.527l-7.314,20.898h-18.808l34.482-89.861h18.808
		L288.405,351.086z M254.969,315.559l-12.539-33.437l-12.539,33.437H254.969z"/>
	<path style="fill:#FFFFFF;" d="M297.809,351.086v-89.861h27.167l16.718,61.649l15.673-61.649h27.167v89.861h-16.718v-71.053
		l-17.763,71.053h-17.763l-17.763-71.053v71.053H297.809z"/>
</g>
</svg>