<?xml version="1.0" encoding="iso-8859-1"?>
<!-- Uploaded to: SVG Repo, www.svgrepo.com, Generator: SVG Repo Mixer Tools -->
<svg height="800px" width="800px" version="1.1" id="Layer_1" xmlns="http://www.w3.org/2000/svg" xmlns:xlink="http://www.w3.org/1999/xlink" 
	 viewBox="0 0 512 512" xml:space="preserve">
<path style="fill:#A4A4A5;" d="M471.162,403.278c-1.046-1.429-2.712-2.274-4.484-2.274H45.325c-1.772,0-3.438,0.845-4.484,2.274
	c-1.047,1.429-1.351,3.272-0.816,4.962l17.731,56.086c0.732,2.312,2.878,3.883,5.301,3.883h385.888c2.424,0,4.569-1.571,5.301-3.883
	l17.733-56.086C472.512,406.551,472.208,404.708,471.162,403.278z"/>
<path style="opacity:0.15;fill:#202020;enable-background:new    ;" d="M77.028,464.325l-17.731-56.085
	c-0.534-1.69-0.231-3.534,0.816-4.962c1.046-1.429,2.712-2.274,4.484-2.274H45.325c-1.772,0-3.438,0.845-4.484,2.274
	c-1.047,1.429-1.351,3.272-0.816,4.962l17.731,56.086c0.732,2.312,2.878,3.883,5.301,3.883h19.273
	C79.906,468.208,77.761,466.637,77.028,464.325z"/>
<path style="fill:#8C5549;" d="M339.512,219.717c-44.528,0-82.742,27.013-99.166,65.54c-11.182-3.927-23.193-6.089-35.717-6.089
	c-51.338,0-94.258,35.912-105.093,83.975H441.2c3.917-11.168,6.072-23.164,6.072-35.668
	C447.272,267.963,399.026,219.717,339.512,219.717z"/>
<g style="opacity:0.15;">
	<path style="fill:#202020;" d="M214.047,279.582c-3.103-0.271-6.244-0.413-9.419-0.413c-51.338,0-94.258,35.912-105.093,83.975
		h18.902C128.596,318.072,166.974,283.688,214.047,279.582z"/>
</g>
<path style="fill:#FFF1CE;" d="M315.397,363.145h50.659c9.151-7.393,15.008-18.701,15.008-31.382
	c0-22.273-18.064-40.331-40.336-40.331c-22.277,0-40.334,18.058-40.334,40.331C300.394,344.444,306.249,355.752,315.397,363.145z"/>
<path style="fill:#DCE0E2;" d="M512,385.817c0,13.135-10.65,23.783-23.787,23.783H23.782C10.647,409.599,0,398.952,0,385.817l0,0
	c0-13.137,10.647-23.784,23.782-23.784h464.431C501.349,362.033,512,372.679,512,385.817L512,385.817z"/>
<path style="opacity:0.15;fill:#202020;enable-background:new    ;" d="M18.902,385.817c0-13.137,10.647-23.784,23.782-23.784
	H23.782C10.647,362.033,0,372.679,0,385.817c0,13.135,10.647,23.783,23.782,23.783h18.902
	C29.549,409.599,18.902,398.952,18.902,385.817z"/>
<path style="fill:#FFF1CE;" d="M354.952,331.763c0,7.854-6.363,14.222-14.218,14.222c-7.855,0-14.227-6.369-14.227-14.222
	c0-7.855,6.371-14.221,14.227-14.221C348.589,317.542,354.952,323.908,354.952,331.763z"/>
<path style="fill:#8C5549;" d="M354.952,331.763c0,7.854-6.363,14.222-14.218,14.222c-7.855,0-14.227-6.369-14.227-14.222
	c0-7.855,6.371-14.221,14.227-14.221C348.589,317.542,354.952,323.908,354.952,331.763z"/>
<g>
	<path style="fill:#A5665B;" d="M269.778,324.537c-0.554,0-1.116-0.057-1.681-0.171c-4.511-0.923-7.421-5.329-6.498-9.842
		c7.54-36.846,40.35-63.588,78.014-63.588c15.956,0,31.352,4.703,44.528,13.604c3.818,2.577,4.821,7.761,2.244,11.578
		c-2.577,3.817-7.762,4.818-11.579,2.243c-10.406-7.03-22.577-10.746-35.191-10.746c-29.777,0-55.715,21.135-61.675,50.254
		C277.131,321.815,273.656,324.536,269.778,324.537z"/>
	<path style="fill:#A5665B;" d="M152.403,345.165c-2.051,0-4.107-0.753-5.718-2.27c-3.352-3.159-3.508-8.437-0.349-11.789
		c14.989-15.903,36.115-25.024,57.963-25.024c5.09,0,10.189,0.486,15.154,1.442c4.521,0.871,7.482,5.244,6.61,9.766
		c-0.871,4.521-5.245,7.483-9.766,6.61c-3.928-0.757-7.966-1.14-11.998-1.14c-17.526,0-33.799,7.026-45.825,19.786
		C156.833,344.286,154.62,345.165,152.403,345.165z"/>
</g>
<g>
	<path style="fill:#E95353;" d="M163.549,246.366c-2.198,0-4.393-0.864-6.031-2.578c-3.181-3.331-3.06-8.609,0.269-11.792
		c0.032-0.031,6.417-6.343,9.401-16.061c3.807-12.393,0.449-24.863-9.979-37.065c-11.301-13.223-16.47-26.92-15.362-40.711
		c1.583-19.689,15.708-31.877,16.307-32.386c3.514-2.979,8.776-2.546,11.755,0.967c2.969,3.501,2.547,8.742-0.936,11.726
		c-2.465,2.15-23.048,21.529,0.914,49.567c18.205,21.299,17.111,40.912,12.987,53.613c-4.398,13.546-13.194,22.055-13.566,22.411
		C167.692,245.599,165.62,246.366,163.549,246.366z"/>
	<path style="fill:#E95353;" d="M235.264,233.776c-2.199,0-4.393-0.864-6.033-2.578c-3.179-3.331-3.06-8.609,0.271-11.79
		c0.032-0.031,6.416-6.343,9.4-16.061c3.806-12.393,0.448-24.864-9.98-37.066c-11.299-13.223-16.467-26.919-15.36-40.709
		c1.581-19.689,15.705-31.877,16.307-32.386c3.511-2.98,8.775-2.545,11.753,0.967c2.969,3.501,2.55,8.742-0.934,11.726
		c-2.467,2.15-23.048,21.529,0.912,49.566c18.205,21.3,17.111,40.912,12.989,53.614c-4.398,13.546-13.195,22.055-13.566,22.411
		C239.407,233.01,237.333,233.776,235.264,233.776z"/>
	<path style="fill:#E95353;" d="M305.866,186.363c-2.199,0-4.393-0.864-6.033-2.578c-3.179-3.331-3.06-8.609,0.271-11.792
		c0.032-0.031,6.414-6.343,9.4-16.061c3.806-12.392,0.448-24.863-9.98-37.065c-11.3-13.223-16.468-26.92-15.361-40.711
		c1.582-19.689,15.707-31.877,16.307-32.386c3.512-2.98,8.776-2.546,11.754,0.967c2.969,3.501,2.55,8.742-0.934,11.726
		c-2.467,2.15-23.049,21.529,0.912,49.567c18.205,21.299,17.111,40.912,12.989,53.613c-4.397,13.546-13.195,22.055-13.566,22.411
		C310.009,185.596,307.936,186.363,305.866,186.363z"/>
	<path style="fill:#E95353;" d="M378.69,201.756c-2.198,0-4.393-0.864-6.031-2.578c-3.181-3.331-3.06-8.609,0.269-11.79
		c0.032-0.031,6.417-6.343,9.401-16.061c3.807-12.393,0.449-24.864-9.979-37.066c-11.301-13.223-16.469-26.919-15.362-40.709
		c1.583-19.689,15.708-31.877,16.307-32.386c3.514-2.98,8.776-2.545,11.755,0.967c2.969,3.501,2.547,8.742-0.936,11.726
		c-2.465,2.15-23.047,21.529,0.914,49.566c18.205,21.3,17.111,40.912,12.987,53.614c-4.397,13.546-13.194,22.055-13.566,22.411
		C382.834,200.989,380.761,201.756,378.69,201.756z"/>
</g>
</svg>