<?xml version="1.0" encoding="iso-8859-1"?>
<!-- Uploaded to: SVG Repo, www.svgrepo.com, Generator: SVG Repo Mixer Tools -->
<!DOCTYPE svg PUBLIC "-//W3C//DTD SVG 1.1//EN" "http://www.w3.org/Graphics/SVG/1.1/DTD/svg11.dtd">
<svg version="1.1" id="Capa_1" xmlns="http://www.w3.org/2000/svg" xmlns:xlink="http://www.w3.org/1999/xlink" 
	 viewBox="0 0 297.5 297.5" xml:space="preserve">
<g>
	<g id="XMLID_19_">
		<g>
			<rect x="125.055" y="20.42" style="fill:#B04919;" width="47.391" height="20.37"/>
			<path style="fill:#F77E21;" d="M132.065,202.4l-0.99,25.569c-6.23-1.17-12.11-3.63-17.32-7.25L132.065,202.4z"/>
			<path style="fill:#F77E21;" d="M148.175,203.72l16.98,16.99c-5.38,3.75-11.471,6.25-17.931,7.36L148.175,203.72z"/>
			<path style="fill:#F77E21;" d="M159.575,192.29l24.33-0.95c-1.101,6.33-3.54,12.47-7.34,17.95L159.575,192.29z"/>
			<path style="fill:#F77E21;" d="M183.785,175.19l-25.52,1l18.301-18.32C180.235,163.17,182.635,169.08,183.785,175.19z"/>
			<path d="M227.215,142.98v144.18c0,5.58-4.52,10.09-10.09,10.09H80.375c-5.57,0-10.09-4.51-10.09-10.09V142.98
				c0-8.311,3.479-19.811,8.09-26.73l21.8-32.71c2.42-3.62,4.7-11.17,4.7-15.53V10.34c0-5.58,4.521-10.09,10.09-10.09h67.57
				c5.57,0,10.09,4.51,10.09,10.09v57.67c0,4.36,2.28,11.91,4.7,15.53l21.8,32.71C223.735,123.18,227.215,134.67,227.215,142.98z
				 M207.035,277.08v-134.1c0-4.36-2.29-11.91-4.7-15.53l-21.8-32.71c-4.62-6.92-8.09-18.42-8.09-26.73V56.94h-47.391V68.01
				c0,8.31-3.479,19.8-8.09,26.721l-21.8,32.72c-2.42,3.62-4.7,11.17-4.7,15.53v134.1H207.035z M172.445,40.79V20.42h-47.391v20.37
				H172.445z"/>
			<path style="fill:#F5B543;" d="M207.035,142.98v134.1H90.465v-134.1c0-4.36,2.28-11.91,4.7-15.53l21.8-32.72
				c4.61-6.921,8.09-18.41,8.09-26.721V56.94h47.391V68.01c0,8.31,3.47,19.81,8.09,26.73l21.8,32.71
				C204.745,131.07,207.035,138.62,207.035,142.98z M182.785,226.93c23.89-23.899,23.89-62.8,0-86.699
				c-1.51-1.511-3.57-2.36-5.71-2.36c-2.141,0-4.19,0.85-5.71,2.36l-75.23,75.289c-3.149,3.15-3.149,8.261,0,11.41
				c11.57,11.58,26.96,17.96,43.33,17.96S171.215,238.51,182.785,226.93z"/>
			<path d="M182.785,140.23c23.89,23.899,23.89,62.8,0,86.699c-11.57,11.58-26.95,17.96-43.32,17.96s-31.76-6.38-43.33-17.96
				c-3.149-3.149-3.149-8.26,0-11.41l75.23-75.289c1.52-1.511,3.569-2.36,5.71-2.36C179.215,137.87,181.275,138.72,182.785,140.23z
				 M183.905,191.34l-24.33,0.95l16.99,17C180.365,203.81,182.805,197.67,183.905,191.34z M158.265,176.19l25.52-1
				c-1.15-6.11-3.55-12.02-7.22-17.32L158.265,176.19z M165.155,220.71l-16.98-16.99l-0.95,24.351
				C153.685,226.96,159.775,224.46,165.155,220.71z M131.075,227.97l0.99-25.569l-18.311,18.319
				C118.965,224.34,124.845,226.8,131.075,227.97z"/>
		</g>
		<g>
		</g>
	</g>
</g>
</svg>