<?xml version="1.0" encoding="iso-8859-1"?>
<!-- Uploaded to: SVG Repo, www.svgrepo.com, Generator: SVG Repo Mixer Tools -->
<svg height="800px" width="800px" version="1.1" id="Layer_1" xmlns="http://www.w3.org/2000/svg" xmlns:xlink="http://www.w3.org/1999/xlink" 
	 viewBox="0 0 512 512" xml:space="preserve">
<path style="fill:#916D42;" d="M255.553,0h201.941c12.222,0,22.131,9.966,22.131,22.261v388.925
	c0,12.474-5.202,24.377-14.342,32.809l-94.791,64.175L355.139,512h-99.587V0H255.553z"/>
<path style="fill:#BC9A5E;" d="M478.346,14.8l-97.697,67.715l-25.751,156.719H78.184l-14.52-87.49H32.376v-44.011
	C32.377,48.2,80.042,0,139.575,0h34.185h29.402h254.214C466.794,0,475.192,5.927,478.346,14.8L478.346,14.8z"/>
<path style="fill:#CAA661;" d="M75.957,512c-24.077,0-43.778-19.755-43.579-43.901V117.528
	C32.179,93.382,51.88,73.626,75.957,73.626h276.719c24.077,0,43.773,19.757,43.773,43.903v350.571
	c0,24.146-19.694,43.901-43.773,43.901H75.957L75.957,512z"/>
<path style="fill:#DDC98B;" d="M321.298,443.186H111.792c0-13.933,3.942-27.865,11.826-38.435l64.268-86.201
	c15.761-21.14,41.554-21.14,57.315,0l64.274,86.201C317.352,415.321,321.298,429.254,321.298,443.186z"/>
<path style="fill:#FFFFFF;" d="M249.157,396.482c0,4.917-3.964,8.904-8.852,8.904h-1.532c-4.89,0-8.852-3.987-8.852-8.904
	c0-4.917,3.964-8.904,8.852-8.904h1.532C245.195,387.577,249.157,391.564,249.157,396.482z M194.31,125.995h-1.532
	c-4.89,0-8.852,3.987-8.852,8.904c0,4.917,3.964,8.904,8.852,8.904h1.532c4.89,0,8.852-3.987,8.852-8.904
	C203.162,129.982,199.199,125.995,194.31,125.995z M238.773,186.168h1.532c4.89,0,8.852-3.987,8.852-8.904s-3.964-8.904-8.852-8.904
	h-1.532c-4.89,0-8.852,3.987-8.852,8.904S233.885,186.168,238.773,186.168z M194.31,387.577h-1.532c-4.89,0-8.852,3.987-8.852,8.904
	c0,4.917,3.964,8.904,8.852,8.904h1.532c4.89,0,8.852-3.987,8.852-8.904C203.162,391.564,199.199,387.577,194.31,387.577z
	 M217.307,340.494h-1.532c-4.89,0-8.852,3.987-8.852,8.904s3.964,8.904,8.852,8.904h1.532c4.89,0,8.852-3.987,8.852-8.904
	S222.197,340.494,217.307,340.494z M217.307,221.427h-1.532c-4.89,0-8.852,3.987-8.852,8.904c0,4.917,3.964,8.904,8.852,8.904h1.532
	c4.89,0,8.852-3.987,8.852-8.904C226.159,225.414,222.197,221.427,217.307,221.427z"/>
</svg>