<!DOCTYPE svg PUBLIC "-//W3C//DTD SVG 1.1//EN" "http://www.w3.org/Graphics/SVG/1.1/DTD/svg11.dtd">
<!-- Uploaded to: SVG Repo, www.svgrepo.com, Transformed by: SVG Repo Mixer Tools -->
<svg fill="#55aa5b" height="800px" width="800px" version="1.1" id="Layer_1" xmlns="http://www.w3.org/2000/svg" xmlns:xlink="http://www.w3.org/1999/xlink" viewBox="0 0 511.999 511.999" xml:space="preserve" stroke="#55aa5b">
<g id="SVGRepo_bgCarrier" stroke-width="0"/>
<g id="SVGRepo_tracerCarrier" stroke-linecap="round" stroke-linejoin="round"/>
<g id="SVGRepo_iconCarrier"> <g> <g> <path d="M507.079,323.81c-2.328-3.144-57.904-76.98-130.801-76.98c-11.744,0-23.033,1.925-33.727,5.152 c3.436-11.024,5.495-22.693,5.495-34.847c0-72.897-73.838-128.468-76.981-130.798c-8.851-6.559-20.948-6.559-29.794,0 c-3.144,2.33-76.976,57.902-76.976,130.798c0,12.196,2.075,23.905,5.532,34.963c-10.805-3.297-22.224-5.268-34.105-5.268 c-72.897,0-128.471,73.836-130.801,76.98c-6.561,8.849-6.561,20.947,0,29.796c2.328,3.142,57.904,76.98,130.801,76.976 c55.281,0,100.588-42.452,120.279-64.345c19.691,21.894,64.999,64.348,120.279,64.345c72.897,0,128.469-73.833,130.801-76.976 C513.638,344.757,513.638,332.659,507.079,323.81z M135.718,380.549c-29.903,0-59.712-23.5-77.555-41.77 c16.324-16.814,45.99-41.915,77.557-41.915c29.914,0,59.73,23.518,77.557,41.77C196.954,355.446,167.29,380.549,135.718,380.549z M256.173,294.763c-18.28-17.837-41.845-47.684-41.845-77.628c0-29.903,23.5-59.71,41.772-77.555 c16.813,16.326,41.917,45.99,41.917,77.555C298.016,247.086,274.436,276.944,256.173,294.763z M376.277,380.549 c-29.903,0-59.71-23.5-77.553-41.77c16.324-16.814,45.986-41.915,77.555-41.915c29.914,0,59.73,23.518,77.56,41.77 C437.513,355.446,407.849,380.549,376.277,380.549z"/> </g> </g> </g>
</svg>