<!DOCTYPE svg PUBLIC "-//W3C//DTD SVG 1.1//EN" "http://www.w3.org/Graphics/SVG/1.1/DTD/svg11.dtd">
<!-- Uploaded to: SVG Repo, www.svgrepo.com, Transformed by: SVG Repo Mixer Tools -->
<svg fill="#cda35b" version="1.1" id="Capa_1" xmlns="http://www.w3.org/2000/svg" xmlns:xlink="http://www.w3.org/1999/xlink" width="800px" height="800px" viewBox="0 0 460.608 460.608" xml:space="preserve" stroke="#cda35b">
<g id="SVGRepo_bgCarrier" stroke-width="0"/>
<g id="SVGRepo_tracerCarrier" stroke-linecap="round" stroke-linejoin="round"/>
<g id="SVGRepo_iconCarrier"> <g> <g> <path d="M400.954,153.47c0.63-8.707-1.531-15.588-6.408-20.444c-5.927-5.874-13.796-6.576-17.081-6.576 c-3.659-1.52-5.152-5.869-5.769-8.81c11.527-6.179,18.426-13.548,18.426-22.136V45.283C390.122,15.556,309.222,0,229.31,0 C149.384,0,68.49,15.556,68.49,45.283v50.222c0,9.028,7.542,16.722,20.176,23.102c-0.749,2.859-2.29,6.49-5.515,7.843 c-3.292,0-11.145,0.697-17.065,6.576c-4.884,4.861-7.045,11.738-6.438,20.01l0.014,232.959 c0.033,0.742,4.971,74.613,93.146,74.613h53.524h47.964h53.513c88.175,0,93.112-73.871,93.159-74.949L400.954,153.47z M377.632,95.505c0,6.466-13.609,14.323-37.785,20.736V79.028c15.925-4.016,28.932-9.101,37.785-15.166V95.505z M229.31,12.496 c90.534,0,148.322,19.417,148.322,32.787c0,13.371-57.788,32.789-148.322,32.789c-90.544,0-148.329-19.417-148.329-32.789 C80.981,31.914,138.766,12.496,229.31,12.496z M327.358,81.856v37.386c-10.827,2.306-23.219,4.308-37.014,5.846V87.419 C303.449,86.019,315.933,84.173,327.358,81.856z M277.85,88.574v37.722c-13.74,1.171-28.722,1.855-44.727,1.951 c0.014-0.147,0.091-0.287,0.091-0.425V90.516C248.307,90.416,263.335,89.769,277.85,88.574z M220.788,128.184 c-15.994-0.233-30.91-1.036-44.559-2.326V88.173c14.405,1.316,29.391,2.075,44.498,2.285v37.365 C220.723,127.95,220.788,128.051,220.788,128.184z M163.73,86.88v37.628c-16.325-1.977-30.663-4.588-42.505-7.589V79.595 C133.966,82.668,148.367,85.102,163.73,86.88z M80.981,95.505V63.862c6.963,4.77,16.493,8.928,28.054,12.444 c-0.119,0.493-0.301,0.952-0.301,1.468v35.533c-3.757-1.218-7.183-2.453-10.193-3.717c-0.317-0.173-0.651-0.273-0.994-0.392 C86.785,104.566,80.981,99.74,80.981,95.505z M74.837,141.942c3.225-3.267,8.774-2.987,8.774-3.001 c0.754,0.063,1.496-0.023,2.203-0.219c8.123-2.317,12.391-8.917,14.428-15.164c30.878,11.355,80.111,17.224,129.073,17.224 c49.879,0,100.13-6.065,130.867-17.845c1.951,6.427,6.235,13.39,14.627,15.784c0.699,0.196,1.451,0.273,2.197,0.219 c0.08,0.026,5.498-0.28,8.737,2.95c2.185,2.175,3.112,5.773,2.739,11.14v45.292c-0.233,0.648-0.406,1.328-0.406,2.065 c0,9.017-55.664,26.542-157.695,26.542c-102.048,0-157.71-17.524-157.71-26.542c0-0.905-0.196-1.746-0.542-2.525v-45.266 C71.773,147.702,72.69,144.112,74.837,141.942z M388.501,385.328c-0.158,2.562-4.209,62.786-80.693,62.786h-53.513h-47.968 h-53.524c-76.113,0-80.538-60.233-80.668-62.455v-36.328c30.21,18.006,111.019,23.289,158.237,23.289 c47.129,0,127.827-5.274,158.125-23.224v35.932H388.501z M388.073,333.584c0,9.017-55.664,26.547-157.696,26.547 c-102.048,0-157.71-17.53-157.71-26.547c0-0.905-0.196-1.727-0.542-2.511V216.13c30.206,18.007,111.023,23.291,158.251,23.291 c47.128,0,127.827-5.283,158.102-23.23l0.023,115.321C388.245,332.161,388.073,332.856,388.073,333.584z"/> <path d="M286.801,341.798c-0.695,0-1.232-0.274-1.652-0.793c-0.41-0.522-0.625-1.232-0.625-2.128c0-0.947,0.173-2.044,0.527-3.276 s1.162-3.565,2.39-6.991l2.949-8.111l-2.884,0.121c-2.637,4.984-5.685,7.673-9.199,8.056c0.947-2.469,1.424-4.369,1.424-5.699 c0-1.693-0.816-2.534-2.479-2.534c-1.932,0-3.458,0.925-4.564,2.768c-1.11,1.854-1.68,3.585-1.68,5.214 c0,1.582,0.91,2.776,2.739,3.584c-1.349,1.96-2.833,3.809-4.466,5.507v2.833c-0.678,0.551-1.34,1.088-1.816,1.363 c-1.26,0.761-2.595,1.134-3.98,1.134c-3.58,0-5.778-2.062-6.632-6.179c9.292-2.722,13.954-6.277,13.954-10.655 c0-1.647-0.598-2.978-1.769-3.99c-1.194-1.013-2.768-1.521-4.732-1.521c-3.794,0-7.229,1.82-10.328,5.446 c-3.099,3.617-4.653,7.668-4.653,12.148c0,0.645,0.187,1.139,0.266,1.727c-0.541,0.477-1.073,0.938-1.47,1.195 c-1.063,0.686-2.123,1.036-3.206,1.036c-0.794,0-1.428-0.313-1.914-0.938c-0.508-0.621-0.751-1.433-0.751-2.422 c0-1.466,0.364-3.436,1.097-5.891l2.119-7.103l4.896-0.374l1.05-4.882l-4.466,0.262l3.271-11.033l-8.462,1.728l-2.973,9.894 l-2.531,0.099l0.184-0.948l-4.466,0.262l3.279-11.033l-8.468,1.728l-2.973,9.894l-3.005,0.122l-1.02,4.975l2.434-0.121 l-1.349,4.798c-1.085,3.612-1.624,6.496-1.624,8.708c0,0.057,0.033,0.104,0.033,0.178c-1.673,1.419-3.052,2.287-3.981,2.287 c-1.356,0-2.021-0.989-2.021-2.978c0-1.036,0.364-2.847,1.095-5.414c0.765-2.586,2.121-7.057,4.1-13.408l-8.611,1.74 l-4.159,13.488c-0.406,1.335-1.414,2.894-3.041,4.686c-1.638,1.778-3.005,2.67-4.1,2.67c-1.51,0-2.271-1.009-2.271-3.034 c0-2.884,1.75-9.371,5.22-19.508l-8.463,1.693c-2.787,7.547-4.159,13.381-4.312,17.727c-0.525,0.219-1.05,0.462-1.711,0.462 c-1.481,0-2.805-0.719-3.98-2.156c3.89-6.002,5.841-10.734,5.841-14.202c0-1.078-0.233-1.938-0.707-2.595 c-0.474-0.649-1.071-0.976-1.837-0.976c-1.876,0-3.626,1.297-5.281,3.883c-1.671,2.604-2.495,5.433-2.495,8.504 c0,1.895,0.527,3.757,1.592,5.572c-1.05,1.367-1.979,2.398-2.81,3.043c-0.84,0.658-1.778,0.989-2.819,0.989 c-0.884,0-1.591-0.373-2.156-1.092c-0.548-0.719-0.826-1.671-0.826-2.885c0-2.185,0.649-5.572,1.944-10.184l4.177-4.145 c3.118-3.122,5.673-6.272,7.643-9.455c1.965-3.183,2.95-5.946,2.95-8.316c0-1.14-0.222-2.11-0.674-2.932 c-0.46-0.812-0.999-1.213-1.605-1.213c-0.306,0-1.536,0.28-3.662,0.821c-2.121,0.551-4.587,1.274-7.36,2.156 c-2.48,3.841-5.008,9.512-7.598,17.002c-2.553,7.481-3.848,13.446-3.848,17.852c0,2.264,0.607,4.154,1.869,5.68 c1.242,1.517,2.787,2.282,4.621,2.282c2.051,0,3.948-0.625,5.682-1.866c1.76-1.246,3.757-3.174,6.014-5.773 c1.857,1.563,3.617,2.343,5.267,2.343c0.663,0,1.251-0.22,1.848-0.378c0.196,1.512,0.56,2.847,1.272,3.836 c0.971,1.326,2.266,1.998,3.881,1.998c1.75,0,3.535-0.607,5.386-1.82c1.834-1.223,3.909-3.108,6.247-5.666 c0,2.287,0.443,4.088,1.337,5.423c0.903,1.326,2.175,1.998,3.857,1.998c1.496,0,3.188-0.635,5.066-1.896 c1.113-0.737,2.422-1.792,3.853-3.023c0.285,0.989,0.698,1.866,1.246,2.613c1.137,1.53,2.609,2.301,4.424,2.301 c1.755,0,3.605-0.635,5.549-1.891c1.125-0.732,2.42-1.773,3.781-2.968c0.301,0.952,0.688,1.82,1.229,2.548 c1.134,1.536,2.608,2.306,4.42,2.306c1.759,0,3.603-0.635,5.549-1.895c1.293-0.84,2.81-2.091,4.425-3.547 c0.438,0.979,0.924,1.913,1.656,2.688c1.77,1.829,4.089,2.753,6.954,2.753c2.586,0,4.942-0.635,7.075-1.895 c2.128-1.256,4.527-3.202,7.22-5.843v-3.557c1.312-1.601,2.465-3.146,3.258-4.616c1.872-0.312,3.575-0.882,5.134-1.685 c-3.197,5.003-4.779,9.003-4.779,11.976c0,1.615,0.43,2.95,1.326,4.042c0.891,1.092,1.979,1.643,3.262,1.643 c2.875,0,6.968-2.608,12.27-7.803v-3.646c-2.445,2.338-3.999,3.775-4.686,4.289C288.295,341.537,287.567,341.798,286.801,341.798z M184.167,305.643c0.371,0,0.703,0.182,0.959,0.556c0.268,0.383,0.396,0.872,0.396,1.47c0,1.451-0.884,3.599-2.642,6.436 c-1.778,2.838-4.368,5.933-7.785,9.288C178.656,311.546,181.687,305.633,184.167,305.643z M235.853,331.064 c-1.085,3.612-1.626,6.496-1.626,8.708c0,0.117,0.049,0.215,0.049,0.336c-0.378,0.318-0.821,0.71-1.113,0.906 c-1.066,0.681-2.124,1.036-3.208,1.036c-0.798,0-1.428-0.317-1.911-0.943c-0.506-0.62-0.749-1.438-0.749-2.427 c0-1.465,0.362-3.426,1.094-5.89l2.121-7.094l4.487-0.341l-0.224,1.036l2.432-0.117L235.853,331.064z M258.514,326.215 c1.274-2.114,2.6-3.183,3.99-3.183c1.494,0,2.222,1.013,2.222,3.038c0,4.098-2.702,6.917-8.111,8.429 C256.615,331.092,257.259,328.343,258.514,326.215z"/> <path d="M161.532,252.433c0-5.45-2.002-9.81-5.979-13.072c-3.981-3.271-9.343-4.904-16.071-4.904 c-9.544,0-17.525,2.771-23.958,8.321c-6.448,5.549-9.659,11.317-9.659,17.306c0,2.235,0.632,4.308,1.897,6.197 c1.286,1.899,2.634,2.843,4.081,2.843c0.952,0,2.635-0.569,5.02-1.718c2.399-1.144,3.594-2.146,3.594-3.015 c0-0.831-0.551-1.476-1.636-1.961c-2.728-1.11-4.114-3.169-4.114-6.16c0-4.522,2.532-8.699,7.598-12.513 c5.076-3.809,10.734-5.708,16.981-5.708c4.158,0,7.442,1.064,9.859,3.174c2.432,2.119,3.636,4.984,3.636,8.588 c0,4.279-1.757,8.587-5.26,12.918c-1.508,1.97-2.261,3.118-2.261,3.436c0,0.569,0.506,1.223,1.514,1.913 c0.994,0.709,1.897,1.055,2.705,1.055c2.133,0,4.688-1.512,7.619-4.564C160.055,261.506,161.532,257.474,161.532,252.433z"/> <path d="M145.753,244.64c-1.153,0-3.223,0.765-6.193,2.314c-2.982,1.549-5.594,4.172-7.829,7.869 c-2.231,3.691-3.89,10.038-4.984,19.014c-1.104,8.979-2.877,15.578-5.339,19.797c-2.455,4.229-5.491,6.348-9.084,6.348 c-3.183,0-4.789-1.904-4.789-5.694c0-0.378,0.152-1.596,0.453-3.64c0.313-2.035,0.469-3.221,0.469-3.533 c0-0.509-0.201-0.952-0.588-1.316c-0.371-0.359-0.84-0.546-1.391-0.546c-0.784,0-2.322,0.635-4.588,1.909 c-2.271,1.273-3.761,2.282-4.487,3.038c-0.726,0.742-1.094,1.708-1.094,2.894c0,3.117,1.272,5.685,3.799,7.691 c2.534,2.016,5.817,3.015,9.885,3.015c5.701,0,10.944-1.521,15.707-4.564c4.751-3.052,8.258-6.851,10.478-11.406 c2.212-4.555,3.817-10.809,4.821-18.724c1.008-7.925,1.988-13.134,2.929-15.631c0.948-2.516,2.466-4.709,4.555-6.595 C147.463,245.386,146.546,244.64,145.753,244.64z"/> <path d="M332.501,294.661c-1.176,0-2.138-0.458-2.898-1.4c-0.742-0.952-1.12-2.175-1.12-3.668c0-2.203,0.556-5.162,1.666-8.887 l3.192-10.715l7.421-0.579l1.568-7.364l-6.744,0.378l4.934-16.629l-12.77,2.622l-4.499,14.926l-4.546,0.196l-1.535,7.495 l3.687-0.182l-2.025,7.238c-1.647,5.441-2.469,9.819-2.469,13.133c0,0.104,0.037,0.188,0.037,0.285 c-2.521,2.133-4.61,3.458-6.007,3.458c-2.034,0-3.062-1.503-3.062-4.508c0-1.555,0.565-4.289,1.694-8.187 c1.102-3.878,3.155-10.622,6.17-20.218l-13.002,2.637l-6.277,20.372c-0.607,2.016-2.147,4.368-4.602,7.052 c-2.446,2.693-4.5,4.056-6.151,4.056c-2.306,0-3.459-1.54-3.459-4.592c0.01-4.341,2.646-14.151,7.897-29.431l-12.77,2.548 c-4.415,11.878-6.613,21.1-6.679,27.723c-2.44,2.212-4.41,3.458-5.815,3.458c-1.582,0-2.352-0.952-2.352-2.88 c0-1.441,0.947-4.564,2.833-9.381c2.726-7.014,4.083-12.05,4.083-15.103c0-1.857-0.527-3.388-1.601-4.61 c-1.083-1.232-2.445-1.844-4.069-1.844c-2.385,0-5.105,1.115-8.182,3.379c-3.075,2.245-7.22,6.277-12.447,12.125 c0.766-3.813,2.381-9.003,4.831-15.602l-11.678,2.258c-2.634,5.731-4.555,10.902-5.759,15.486 c-0.985,3.808-1.463,7.845-1.624,12.031c-0.346,0.309-0.766,0.709-1.053,0.966c-1.496,1.312-2.877,1.975-4.114,1.975 c-1.946,0-2.917-1.367-2.917-4.112c0-2.608,1.085-7.438,3.274-14.491l4.217-14.015h-2.69l-9.773,5.404 c-1.603-3.664-4.389-5.502-8.37-5.502c-3.171,0-6.81,1.344-10.896,4.032c-4.123,2.669-7.493,6.184-10.127,10.51 c-2.642,4.341-3.956,8.905-3.956,13.684c0,0.514,0.175,0.929,0.21,1.429c-1.326,1.134-2.481,2.025-3.384,2.566 c-1.911,1.13-3.925,1.689-6.027,1.689c-5.395,0-8.721-3.108-10.001-9.32c14.026-4.121,21.055-9.469,21.055-16.078 c0-2.482-0.903-4.479-2.69-6.02c-1.778-1.521-4.154-2.297-7.115-2.297c-5.717,0-10.912,2.73-15.591,8.195 c-4.683,5.479-7.045,11.594-7.045,18.352c0,4.526,1.326,8.186,3.99,10.953c2.667,2.768,6.17,4.158,10.515,4.158 c3.881,0,7.442-0.952,10.653-2.847c1.979-1.167,4.191-2.88,6.489-4.84c0.479,1.33,1.053,2.628,1.879,3.743 c1.96,2.623,4.345,3.943,7.154,3.943c2.877,0,5.664-1.092,8.345-3.248c2.69-2.175,5.628-5.535,8.821-10.1 c-0.285,8.905,2.093,13.348,7.131,13.348c2.002,0,4.109-0.732,6.312-2.202c1.295-0.859,3.292-2.534,5.617-4.593 c0.091,1.876,0.21,4.061,0.443,6.884l10.554-2.487c0-2.865,0.061-5.152,0.154-6.842c0.163-2.264,0.49-4.751,0.961-7.458 c0.275-1.605,1.009-3.113,2.199-4.551l2.679-3.104c0.979-1.148,1.908-2.165,2.771-3.066c0.994-1.05,1.872-1.937,2.68-2.674 c0.896-0.794,1.671-1.419,2.343-1.872c0.728-0.447,1.312-0.677,1.764-0.677c0.799,0,1.195,0.523,1.195,1.54 c0,1.018-0.733,3.407-2.245,7.179c-2.805,7.01-4.2,12.218-4.2,15.63c0,2.516,0.653,4.522,1.946,6.025 c1.312,1.502,3.043,2.249,5.176,2.249c4.022,0,8.671-2.314,13.926-6.87c0.369,1.513,0.906,2.866,1.686,3.953 c1.479,2.012,3.411,3.011,5.848,3.011c2.642,0,5.344-0.915,8.135-2.744c2.763-1.844,5.899-4.677,9.423-8.532 c0,3.436,0.682,6.161,2.021,8.168c1.372,2.016,3.29,3.015,5.815,3.015c2.254,0,4.821-0.952,7.654-2.847 c1.68-1.12,3.668-2.717,5.814-4.574c0.43,1.498,1.051,2.819,1.9,3.953c1.698,2.301,3.92,3.468,6.669,3.468 c2.65,0,5.428-0.952,8.368-2.847c2.939-1.895,6.398-4.84,10.421-8.83v-5.488c-3.085,3.285-5.437,5.441-7.038,6.478 C335.745,294.147,334.144,294.661,332.501,294.661z M165.243,270.784c1.92-3.211,3.932-4.807,6.035-4.807 c2.247,0,3.351,1.521,3.351,4.582c0,6.18-4.091,10.432-12.249,12.723C162.375,278.148,163.334,273.977,165.243,270.784z M207.622,286.615c-2.819,5.423-5.838,8.144-9.021,8.144c-1.3,0-2.375-0.537-3.232-1.601c-0.826-1.073-1.271-2.464-1.271-4.182 c0-4.564,1.439-9.554,4.298-14.981c2.856-5.414,5.862-8.125,9.045-8.125c1.349,0,2.425,0.499,3.232,1.498 c0.77,1.018,1.194,2.408,1.194,4.19C211.872,276.161,210.453,281.173,207.622,286.615z"/> <polygon points="184.077,25.329 178.409,25.329 167.889,67.036 173.562,67.036 "/> <polygon points="239.51,67.036 250.025,25.329 244.354,25.329 233.842,67.036 "/> <polygon points="184.201,67.036 194.708,25.329 191.88,25.329 181.365,67.036 "/> <polygon points="244.713,67.036 255.219,25.329 252.381,25.329 241.867,67.036 "/> <polygon points="227.695,67.036 238.208,25.329 235.371,25.329 224.855,67.036 "/> <polygon points="213.746,67.036 224.258,25.329 221.43,25.329 210.915,67.036 "/> <polygon points="196.951,67.036 207.48,25.329 201.816,25.329 191.292,67.036 "/> <polygon points="221.782,67.036 232.297,25.329 226.624,25.329 216.109,67.036 "/> <polygon points="201.697,67.036 212.21,25.329 209.381,25.329 198.867,67.036 "/> <polygon points="252.297,67.036 262.803,25.329 259.961,25.329 249.442,67.036 "/> <polygon points="265.053,67.036 275.568,25.329 269.893,25.329 259.377,67.036 "/> <polygon points="269.766,67.036 280.282,25.329 277.449,25.329 266.938,67.036 "/> </g> </g> </g>
</svg>