<?xml version="1.0" encoding="iso-8859-1"?>
<!-- Uploaded to: SVG Repo, www.svgrepo.com, Generator: SVG Repo Mixer Tools -->
<svg height="800px" width="800px" version="1.1" id="Layer_1" xmlns="http://www.w3.org/2000/svg" xmlns:xlink="http://www.w3.org/1999/xlink" 
	 viewBox="0 0 511.98 511.98" xml:space="preserve">
<path style="fill:#A0D468;" d="M388.961,162.558c0-17.78-59.529-32.202-132.965-32.202c-73.435,0-132.98,14.422-132.98,32.202
	L53.33,429.019h405.332L388.961,162.558z"/>
<g>
	<path style="fill:#8CC153;" d="M388.101,160.324c0,16.547-59.342,29.968-132.543,29.968s-132.543-13.421-132.543-29.968
		c0-16.546,59.342-29.968,132.543-29.968C328.76,130.356,388.101,143.778,388.101,160.324z"/>
	<path style="fill:#8CC153;" d="M362.664,174.574h-21.342v30.452l0,0c0,2.734,1.047,5.453,3.124,7.546
		c4.172,4.156,10.922,4.156,15.094,0c2.077-2.093,3.124-4.812,3.124-7.546l0,0L362.664,174.574L362.664,174.574z"/>
	<path style="fill:#8CC153;" d="M202.669,174.574v41.108l0,0c0,2.734,1.031,5.468,3.125,7.546c4.156,4.172,10.906,4.172,15.078,0
		c2.078-2.078,3.125-4.812,3.125-7.546l0,0v-41.108H202.669z"/>
	<path style="fill:#8CC153;" d="M181.326,167.668h-21.328v16.031l0,0c0,2.719,1.047,5.453,3.125,7.531
		c4.156,4.172,10.921,4.172,15.078,0c2.094-2.078,3.125-4.812,3.125-7.546V167.668z"/>
	<path style="fill:#8CC153;" d="M298.666,177.23h-21.342v17.124l0,0c0,2.734,1.047,5.469,3.124,7.547
		c4.172,4.172,10.922,4.172,15.094,0c2.077-2.078,3.124-4.812,3.124-7.547L298.666,177.23L298.666,177.23z"/>
</g>
<path style="fill:#F5F7FA;" d="M508.863,410.801c-2.078-2.078-4.812-3.124-7.547-3.108H10.675c-2.734-0.016-5.468,1.03-7.546,3.108
	c-4.172,4.172-4.172,10.922,0,15.094c2.078,2.078,4.812,3.125,7.531,3.125l0,0h490.657l0,0c2.734,0,5.469-1.047,7.547-3.125
	C513.019,421.722,513.019,414.972,508.863,410.801z"/>
<g>
	<path style="fill:#8CC153;" d="M263.543,229.478c-4.172-4.156-10.922-4.156-15.094,0c-2.078,2.078-3.125,4.812-3.125,7.547l0,0
		v127.996l0,0c0,2.734,1.047,5.453,3.125,7.547c4.172,4.155,10.922,4.155,15.094,0c2.078-2.094,3.125-4.812,3.125-7.547l0,0V237.025
		l0,0C266.668,234.291,265.621,231.556,263.543,229.478z"/>
	<path style="fill:#8CC153;" d="M188.873,229.478c-4.172-4.156-10.921-4.156-15.078,0c-1.641,1.641-2.625,3.672-2.984,5.797l0,0
		l-21.343,127.996h0.016c-0.547,3.281,0.438,6.766,2.968,9.297c4.172,4.155,10.922,4.155,15.094,0
		c1.625-1.641,2.609-3.672,2.968-5.797l0,0l21.343-127.996h-0.016C192.388,235.494,191.404,232.01,188.873,229.478z"/>
	<path style="fill:#8CC153;" d="M362.508,363.271L362.508,363.271l-21.326-127.996h-0.016c-0.344-2.125-1.328-4.156-2.969-5.797
		c-4.156-4.156-10.922-4.156-15.078,0c-2.531,2.531-3.516,6.016-2.969,9.297h-0.016l21.344,127.996l0,0
		c0.359,2.125,1.344,4.156,2.968,5.797c4.172,4.155,10.922,4.155,15.094,0C362.07,370.037,363.054,366.552,362.508,363.271z"/>
</g>
<path style="fill:#ED5564;" d="M289.354,159.34c-22.062,17.641-64.389,26.765-79.263,8.156
	c-14.89-18.593,3.312-57.889,25.374-75.529c22.062-17.656,39.64-6.984,54.53,11.625C304.869,122.2,311.431,141.684,289.354,159.34z"
	/>
<g>
	<path style="fill:#8CC153;" d="M303.306,120.247c-4.594,3.688-11.312,2.938-14.983-1.656c-3.672-4.609-2.938-11.312,1.672-15
		c4.594-3.672,11.312-2.938,14.983,1.672C308.666,109.857,307.916,116.575,303.306,120.247z"/>
	<path style="fill:#8CC153;" d="M289.995,103.592c-4.609,3.672-11.312,2.938-14.999-1.672c-3.672-4.594-2.938-11.312,1.672-14.984
		c4.593-3.687,11.312-2.937,14.983,1.656C295.339,93.201,294.589,99.904,289.995,103.592z"/>
</g>
</svg>