<?xml version="1.0" encoding="iso-8859-1"?>
<!-- Uploaded to: SVG Repo, www.svgrepo.com, Generator: SVG Repo Mixer Tools -->
<svg fill="#000000" height="800px" width="800px" version="1.1" id="Layer_1" xmlns="http://www.w3.org/2000/svg" xmlns:xlink="http://www.w3.org/1999/xlink" 
	 viewBox="0 0 511.999 511.999" xml:space="preserve">
<g>
	<g>
		<path d="M356.836,323.035l-4.832-11.49c-26.946-64.062-40.609-131.783-40.609-201.281v-22.28l5.459-29.457h7.095
			c4.351,0,8.035-3.212,8.627-7.522l5.645-41.111c0.341-2.493-0.411-5.011-2.064-6.908S332.11,0,329.594,0H182.405
			c-2.516,0-4.91,1.089-6.562,2.984c-1.654,1.897-2.406,4.415-2.064,6.908l5.645,41.111c0.592,4.311,4.276,7.522,8.627,7.522h7.095
			l5.46,29.464v22.274c0,69.496-13.664,137.217-40.609,201.281l-4.833,11.489c-22.602,53.733-28.754,112.4-17.791,169.654
			c2.143,11.19,11.969,19.312,23.362,19.312h190.533c11.393,0,21.217-8.122,23.36-19.312v-0.001
			C385.59,435.433,379.438,376.768,356.836,323.035z M195.641,41.111l-3.252-23.696h127.219l-3.253,23.696h-6.744
			c-4.197,0-7.797,2.994-8.561,7.122l-5.606,30.253h-78.889l-5.608-30.253c-0.764-4.127-4.364-7.122-8.561-7.122H195.641z
			 M357.523,489.413c-0.573,2.997-3.206,5.172-6.257,5.172H160.734c-3.052,0-5.684-2.176-6.258-5.172
			c-10.315-53.87-4.526-109.069,16.739-159.626l4.833-11.489c27.85-66.213,41.971-136.206,41.971-208.035V95.901h75.959v14.363
			c0,71.831,14.121,141.823,41.971,208.033l4.832,11.49C362.05,380.344,367.838,435.542,357.523,489.413z"/>
	</g>
</g>
<g>
	<g>
		<path d="M326.871,335.64l-4.833-11.492c-27.415-65.176-41.909-134.01-43.075-204.592c-0.078-4.752-3.953-8.564-8.706-8.564
			h-28.514c-4.753,0-8.629,3.812-8.706,8.564c-1.167,70.581-15.66,139.416-43.075,204.593l-4.833,11.489
			c-18.093,43.016-24.388,90.148-18.207,136.302c0.579,4.324,4.269,7.551,8.631,7.551h160.897c4.363,0,8.052-3.228,8.631-7.551
			C351.26,425.787,344.964,378.655,326.871,335.64z M250.243,128.409h11.512c1.418,45.123,8.136,89.521,20.042,132.723h-51.597
			C242.107,217.93,248.826,173.532,250.243,128.409z M328.709,462.077H183.291c-4.156-40.653,1.984-81.872,17.889-119.686
			l4.833-11.489c7.241-17.214,13.599-34.679,19.086-52.356h61.802c5.487,17.677,11.844,35.141,19.086,52.355l4.833,11.49
			C326.725,380.206,332.864,421.424,328.709,462.077z"/>
	</g>
</g>
</svg>