<!DOCTYPE svg PUBLIC "-//W3C//DTD SVG 1.1//EN" "http://www.w3.org/Graphics/SVG/1.1/DTD/svg11.dtd">
<!-- Uploaded to: SVG Repo, www.svgrepo.com, Transformed by: SVG Repo Mixer Tools -->
<svg fill="#d5d67a" height="800px" width="800px" version="1.1" id="Capa_1" xmlns="http://www.w3.org/2000/svg" xmlns:xlink="http://www.w3.org/1999/xlink" viewBox="0 0 390 390" xml:space="preserve" stroke="#d5d67a">
<g id="SVGRepo_bgCarrier" stroke-width="0"/>
<g id="SVGRepo_tracerCarrier" stroke-linecap="round" stroke-linejoin="round"/>
<g id="SVGRepo_iconCarrier"> <g> <path d="M390,198.953c0-7.834-4.649-15.144-13.803-21.793c5.547-5.391,8.393-11.184,8.393-17.296 c0-8.576-5.556-16.529-16.506-23.665c-0.406-1.767-1.065-3.511-1.963-5.224c4.543-5.448,6.932-11.04,6.932-16.596 c0-15.603-17.88-27.334-53.144-34.868c-29.986-6.406-72.184-9.792-122.03-9.792c-46.746,0-90.757,5.164-123.925,14.541 C38.36,94.32,19.546,107.965,19.546,123.718c0,0.094,0.009,0.188,0.011,0.282c-5.064,5.2-7.636,10.752-7.636,16.533 c0,4.918,1.86,9.661,5.524,14.163C5.869,161.983,0,170.123,0,178.953c0,9.491,6.84,18.214,20.054,25.852 C13.386,210.644,10,216.95,10,223.623c0,7.92,4.751,15.323,14.119,22.032c0.02,0.193,0.04,0.387,0.065,0.579 c-7.635,6.188-11.514,12.92-11.514,20.049c0,15.752,18.813,29.396,54.406,39.459c33.168,9.377,77.179,14.541,123.924,14.541 c46.746,0,90.755-5.164,123.924-14.541c35.593-10.063,54.406-23.707,54.406-39.459c0-0.864-0.074-1.728-0.192-2.589 c7.615-6.161,11.531-12.897,11.531-20.072c0-6.767-3.477-13.156-10.331-19.059C383.386,216.946,390,208.351,390,198.953z M374.59,159.863c0,10.34-17.619,21.493-47.132,29.836c-32.311,9.134-75.356,14.164-121.208,14.164 c-45.06,0-87.573-4.882-119.708-13.748c-16.876-4.656-30.034-10.252-38.386-16.116c32.883,12.858,84.781,20.534,142.093,20.534 c46.746,0,90.758-5.164,123.929-14.541c29.927-8.46,47.988-19.453,52.983-32.1C371.244,151.271,374.59,155.398,374.59,159.863z M76.674,93.881c32.308-9.133,75.353-14.163,121.205-14.163c114.101,0,165.174,17.408,165.174,34.66 c0,10.816-18.021,24.406-45.908,34.624c-32.945,12.07-75.301,18.717-119.266,18.717c-45.852,0-88.897-5.03-121.205-14.163 c-29.51-8.342-47.128-19.497-47.128-29.837S47.164,102.223,76.674,93.881z M73.954,163.177 c33.168,9.376,77.179,14.541,123.925,14.541c45.108,0,88.687-6.864,122.705-19.327c16.087-5.893,28.852-12.679,37.768-19.891 c0.09,0.401,0.238,1.751,0.238,2.034c0,10.34-17.619,21.494-47.132,29.836c-32.311,9.134-75.356,14.164-121.208,14.164 c-66.351,0-127.063-10.85-154.669-27.64c-2.611-1.591-4.897-3.228-6.796-4.867c-4.555-3.927-6.864-7.793-6.864-11.493 c0-1.644,0.476-3.325,1.385-5.03C30.425,146.295,47.576,155.72,73.954,163.177z M10,178.953c0-5.496,5.315-11.523,15.023-17.147 c1.075,0.807,2.206,1.607,3.41,2.393c4.048,17.774,32.055,29.102,55.45,35.557c32.978,9.097,76.435,14.107,122.368,14.107 c41.535,0,80.905-4.08,112.436-11.567c-28.536,11.591-77.475,20.657-140.356,20.657c-45.851,0-88.896-5.03-121.204-14.164 C27.617,200.447,10,189.293,10,178.953z M29.876,209.763c2.901,1.29,5.998,2.543,9.306,3.755 c19.625,23.282,89.952,39.435,172.488,39.435c55.219,0,107.297-7.512,140.413-19.93c-7.131,7.457-22.27,14.776-43.313,20.65 c-32.227,8.996-75,13.95-120.44,13.95c-68.481,0-129.939-11.323-156.573-28.848C26.394,235.249,20,229.758,20,223.623 C20,218.219,24.954,213.309,29.876,209.763z M312.204,296.119c-32.308,9.134-75.353,14.164-121.204,14.164 s-88.896-5.03-121.203-14.164c-29.509-8.342-47.126-19.496-47.126-29.836c0-3.798,2.488-7.345,5.509-10.256 c7.36,10.533,24.356,19.74,50.227,27.055c33.168,9.377,77.179,14.541,123.924,14.541c46.746,0,90.758-5.164,123.929-14.541 c12.898-3.646,23.581-7.765,31.976-12.282C353.986,279.784,337.454,288.981,312.204,296.119z M323.539,273.459 c-32.311,9.134-75.356,14.164-121.208,14.164s-88.896-5.03-121.204-14.164c-19.305-5.458-33.518-12.118-41.041-18.967 c32.261,14.268,87.768,23.131,148.244,23.131c78.203,0,161.652-15.673,176.135-44.904c3.427,3.105,6.206,6.863,6.206,10.904 C370.67,253.963,353.051,265.116,323.539,273.459z M359.481,219.028c-30.303,14.758-86.94,23.925-147.811,23.925 c-39.516,0-78.055-3.878-108.518-10.919c-11.385-2.632-21.506-5.69-30.048-9.024c30.227,6.451,66.799,9.943,105.226,9.943 c85.333,0,156.156-16.865,173.852-41.186c6.103-2.564,11.369-5.286,15.777-8.149c5.992,3.894,12.042,9.315,12.042,15.335 C380,205.461,372.714,212.59,359.481,219.028z"/> <path d="M82.288,140.778c6.192-6.193,16.27-6.194,22.462,0c0.977,0.976,2.256,1.464,3.536,1.464s2.559-0.488,3.536-1.464 c1.953-1.953,1.953-5.119,0-7.071c-4.892-4.892-11.392-7.586-18.303-7.586c-6.91,0-13.41,2.694-18.302,7.586 c-1.953,1.953-1.953,5.119,0,7.071C77.169,142.73,80.334,142.73,82.288,140.778z"/> <path d="M221.783,101.749c6.193-6.193,16.27-6.193,22.463,0c0.976,0.976,2.256,1.464,3.535,1.464s2.56-0.488,3.535-1.464 c1.953-1.953,1.953-5.119,0-7.071c-4.892-4.892-11.392-7.586-18.302-7.586s-13.41,2.694-18.302,7.586 c-1.953,1.953-1.953,5.119,0,7.071C216.664,103.701,219.832,103.701,221.783,101.749z"/> <path d="M130.13,117.619c1.28,0,2.559-0.488,3.536-1.464c3.803-3.803,9.992-3.804,13.796,0c1.952,1.952,5.119,1.953,7.071,0 c1.953-1.953,1.953-5.118,0-7.071c-7.703-7.703-20.236-7.702-27.938,0c-1.953,1.953-1.953,5.119,0,7.071 C127.571,117.131,128.85,117.619,130.13,117.619z"/> <path d="M271.665,136.822c1.846-1.845,4.295-2.861,6.898-2.861s5.054,1.016,6.897,2.86c0.977,0.977,2.257,1.465,3.536,1.465 s2.56-0.488,3.535-1.464c1.953-1.953,1.953-5.118,0.001-7.071c-3.733-3.734-8.694-5.79-13.97-5.79 c-5.274,0-10.235,2.056-13.969,5.79c-1.953,1.953-1.953,5.118-0.001,7.071C266.546,138.775,269.713,138.774,271.665,136.822z"/> <path d="M192.492,154.032c1.845-1.845,4.295-2.861,6.897-2.861c2.604,0,5.054,1.016,6.897,2.86 c0.977,0.977,2.257,1.465,3.536,1.465s2.56-0.488,3.535-1.464c1.953-1.953,1.953-5.118,0.001-7.071 c-3.733-3.734-8.694-5.79-13.97-5.79c-5.274,0-10.235,2.056-13.969,5.79c-1.953,1.953-1.953,5.119,0,7.071 C187.374,155.985,190.539,155.985,192.492,154.032z"/> </g> </g>
</svg>