<!DOCTYPE svg PUBLIC "-//W3C//DTD SVG 1.1//EN" "http://www.w3.org/Graphics/SVG/1.1/DTD/svg11.dtd">
<!-- Uploaded to: SVG Repo, www.svgrepo.com, Transformed by: SVG Repo Mixer Tools -->
<svg fill="#dfa768" version="1.1" id="Capa_1" xmlns="http://www.w3.org/2000/svg" xmlns:xlink="http://www.w3.org/1999/xlink" width="800px" height="800px" viewBox="0 0 46 46" xml:space="preserve" stroke="#dfa768">
<g id="SVGRepo_bgCarrier" stroke-width="0"/>
<g id="SVGRepo_tracerCarrier" stroke-linecap="round" stroke-linejoin="round"/>
<g id="SVGRepo_iconCarrier"> <g> <path d="M41.793,1.516C41.521,0.616,40.65,0,39.712,0H6.499C5.561,0,4.583,0.616,4.313,1.516L1.5,10.394V43.68 C1.5,44.812,2.718,46,3.852,46h38.507c1.134,0,2.141-1.188,2.141-2.32V10.394L41.793,1.516z M24.38,36.336 c-0.868,0.736-2.466,1.826-4.291,1.826c-1.812,0-3.396-1.072-4.27-1.807l-3.492,3.492c-0.396,0.396-0.991,0.44-1.388,0.045 c-0.396-0.396-0.349-0.99,0.047-1.386l3.487-3.487c-0.733-0.863-1.847-2.474-1.847-4.319c0-1.825,1.09-3.421,1.826-4.291 c0.163-0.193,0.403-0.306,0.656-0.306c0.254,0,0.494,0.111,0.658,0.306c0.735,0.87,1.825,2.466,1.826,4.292 c-0.002,2.017-1.33,3.753-2.044,4.539c0.786-0.713,2.522-2.043,4.538-2.045c1.826,0,3.423,1.091,4.292,1.826 c0.192,0.164,0.306,0.404,0.306,0.658C24.686,35.934,24.574,36.173,24.38,36.336z M29.221,31.496 c-0.869,0.734-2.468,1.826-4.291,1.826c-2.699,0-4.896-2.379-4.987-2.479c-0.099-0.092-2.477-2.287-2.478-4.984 c0-1.824,1.091-3.42,1.826-4.291c0.163-0.193,0.404-0.305,0.658-0.305c0.252,0,0.493,0.111,0.656,0.304 c0.736,0.87,1.827,2.465,1.827,4.292c0,2.018-1.331,3.754-2.044,4.541c0.785-0.715,2.521-2.045,4.539-2.045 c1.825,0,3.423,1.09,4.292,1.826c0.193,0.164,0.307,0.404,0.307,0.657S29.414,31.332,29.221,31.496z M34.061,26.656 c-0.869,0.734-2.467,1.826-4.293,1.826c-2.697,0-4.893-2.379-4.983-2.479c-0.101-0.092-2.478-2.287-2.478-4.985 c0-1.825,1.09-3.421,1.826-4.291c0.163-0.193,0.403-0.306,0.656-0.306c0.254,0,0.494,0.111,0.657,0.305 c0.736,0.87,1.826,2.466,1.828,4.292c-0.002,2.016-1.332,3.752-2.047,4.54c0.787-0.713,2.523-2.043,4.541-2.045 c1.825,0.002,3.422,1.092,4.291,1.827c0.192,0.163,0.307,0.404,0.307,0.657S34.253,26.492,34.061,26.656z M33.8,20.492 c-1.291,1.291-3.19,1.649-4.325,1.744c-0.252,0.021-0.502-0.069-0.681-0.249c-0.181-0.179-0.271-0.428-0.25-0.681 c0.095-1.135,0.453-3.035,1.743-4.326c1.291-1.291,3.191-1.648,4.326-1.744c0.253-0.021,0.502,0.071,0.682,0.25 c0.178,0.179,0.27,0.428,0.248,0.68C35.447,17.302,35.09,19.202,33.8,20.492z M8.748,7C8.1,7,7.489,6.831,7.102,6.311 C6.715,5.79,6.596,5.126,6.782,4.505C7.053,3.606,7.881,3,8.819,3h28.628c0.906,0,1.705,0.653,1.965,1.521l0.018,0.082 c0.187,0.621,0.066,1.172-0.32,1.692C38.723,6.816,38.111,7,37.463,7H8.748z"/> </g> </g>
</svg>